SplineFontDB: 3.0
FontName: Volkhov-BoldItalic
FullName: Volkhov Bold Italic
FamilyName: Volkhov
Weight: Bold
Copyright: Copyright (c) 2011, Cyreal (www.cyreal.org)\nwith Reserved Font Name "Volkhov" and "Volkhov Bold Italic".\n\nThis Font Software is licensed under the SIL Open Font License,\nVersion 1.1. This license is available with a FAQ at:\nhttp://scripts.sil.org/OFL
Version: 1.001
ItalicAngle: 0
UnderlinePosition: -50
UnderlineWidth: 50
Ascent: 800
Descent: 200
sfntRevision: 0x00010041
LayerCount: 2
Layer: 0 1 "Back"  1
Layer: 1 1 "Fore"  0
XUID: [1021 288 713564382 14379675]
FSType: 0
OS2Version: 3
OS2_WeightWidthSlopeOnly: 0
OS2_UseTypoMetrics: 1
CreationTime: 1312462200
ModificationTime: 1313074462
PfmFamily: 17
TTFWeight: 700
TTFWidth: 5
LineGap: 0
VLineGap: 0
Panose: 2 0 8 3 0 0 0 9 0 4
OS2TypoAscent: 171
OS2TypoAOffset: 1
OS2TypoDescent: -119
OS2TypoDOffset: 1
OS2TypoLinegap: 0
OS2WinAscent: 0
OS2WinAOffset: 1
OS2WinDescent: 11
OS2WinDOffset: 1
HheadAscent: 0
HheadAOffset: 1
HheadDescent: -11
HheadDOffset: 1
OS2SubXSize: 700
OS2SubYSize: 650
OS2SubXOff: 0
OS2SubYOff: 140
OS2SupXSize: 700
OS2SupYSize: 650
OS2SupXOff: 0
OS2SupYOff: 477
OS2StrikeYSize: 50
OS2StrikeYPos: 250
OS2Vendor: 'PYRS'
OS2CodePages: 00000003.00000000
OS2UnicodeRanges: 80000027.0000004b.00000000.00000000
Lookup: 258 0 0 "'kern' Horizontal Kerning in Latin lookup 0"  {"'kern' Horizontal Kerning in Latin lookup 0 subtable"  } ['kern' ('DFLT' <'dflt' > 'latn' <'dflt' > ) ]
DEI: 91125
TtTable: prep
PUSHW_1
 511
SCANCTRL
PUSHB_1
 4
SCANTYPE
EndTTInstrs
TtTable: fpgm
PUSHB_1
 0
FDEF
PUSHB_1
 0
SZP0
MPPEM
PUSHB_1
 42
LT
IF
PUSHB_1
 74
SROUND
EIF
PUSHB_1
 0
SWAP
MIAP[rnd]
RTG
PUSHB_1
 6
CALL
IF
RTDG
EIF
MPPEM
PUSHB_1
 42
LT
IF
RDTG
EIF
DUP
MDRP[rp0,rnd,grey]
PUSHB_1
 1
SZP0
MDAP[no-rnd]
RTG
ENDF
PUSHB_1
 1
FDEF
DUP
MDRP[rp0,min,white]
PUSHB_1
 12
CALL
ENDF
PUSHB_1
 2
FDEF
MPPEM
GT
IF
RCVT
SWAP
EIF
POP
ENDF
PUSHB_1
 3
FDEF
ROUND[Black]
RTG
DUP
PUSHB_1
 64
LT
IF
POP
PUSHB_1
 64
EIF
ENDF

StartChar: exclam
Encoding: 33 33 4
Width: 303
Flags: W
LayerCount: 2
Fore
SplineSet
184 700 m 1,0,-1
 313 700 l 1,1,-1
 171 208 l 1,2,-1
 82 208 l 1,3,-1
 184 700 l 1,0,-1
19 79 m 0,4,5
 19 114 19 114 44.5 139 c 128,-1,6
 70 164 70 164 105 164 c 0,7,8
 123 164 123 164 138.5 157 c 128,-1,9
 154 150 154 150 165.5 138.5 c 128,-1,10
 177 127 177 127 183.5 111.5 c 128,-1,11
 190 96 190 96 190 79 c 256,12,13
 190 62 190 62 183.5 46.5 c 128,-1,14
 177 31 177 31 165.5 19 c 128,-1,15
 154 7 154 7 138.5 0 c 128,-1,16
 123 -7 123 -7 105 -7 c 0,17,18
 88 -7 88 -7 72.5 0 c 128,-1,19
 57 7 57 7 45 19 c 128,-1,20
 33 31 33 31 26 46.5 c 128,-1,21
 19 62 19 62 19 79 c 0,4,5
EndSplineSet
EndChar

StartChar: quotedbl
Encoding: 34 34 5
Width: 378
Flags: W
LayerCount: 2
Fore
SplineSet
138 707 m 1,0,-1
 262 707 l 1,1,-1
 183 472 l 1,2,-1
 113 472 l 1,3,-1
 138 707 l 1,0,-1
310 707 m 1,4,-1
 434 707 l 1,5,-1
 354 472 l 1,6,-1
 285 472 l 1,7,-1
 310 707 l 1,4,-1
EndSplineSet
EndChar

StartChar: numbersign
Encoding: 35 35 6
Width: 572
Flags: W
LayerCount: 2
Fore
SplineSet
125 529 m 1,0,-1
 231 529 l 1,1,-1
 301 708 l 1,2,-1
 385 708 l 1,3,-1
 314 529 l 1,4,-1
 416 529 l 1,5,-1
 486 708 l 1,6,-1
 570 708 l 1,7,-1
 499 529 l 1,8,-1
 581 529 l 1,9,-1
 563 446 l 1,10,-1
 467 446 l 1,11,-1
 399 274 l 1,12,-1
 500 274 l 1,13,-1
 482 191 l 1,14,-1
 366 191 l 1,15,-1
 291 0 l 1,16,-1
 208 0 l 1,17,-1
 283 191 l 1,18,-1
 181 191 l 1,19,-1
 106 0 l 1,20,-1
 24 0 l 1,21,-1
 98 191 l 1,22,-1
 25 191 l 1,23,-1
 44 274 l 1,24,-1
 131 274 l 1,25,-1
 199 446 l 1,26,-1
 106 446 l 1,27,-1
 125 529 l 1,0,-1
214 274 m 1,28,-1
 316 274 l 1,29,-1
 384 446 l 1,30,-1
 282 446 l 1,31,-1
 214 274 l 1,28,-1
EndSplineSet
EndChar

StartChar: dollar
Encoding: 36 36 7
Width: 576
Flags: W
LayerCount: 2
Fore
SplineSet
60 224 m 1,0,-1
 114 224 l 1,1,-1
 114 73 l 1,2,3
 130 67 130 67 150.5 63 c 128,-1,4
 171 59 171 59 191 57 c 1,5,-1
 255 316 l 1,6,7
 230 335 230 335 205.5 355 c 128,-1,8
 181 375 181 375 161.5 398.5 c 128,-1,9
 142 422 142 422 130 450.5 c 128,-1,10
 118 479 118 479 118 514 c 0,11,12
 118 559 118 559 136.5 593.5 c 128,-1,13
 155 628 155 628 187 652 c 128,-1,14
 219 676 219 676 261.5 689.5 c 128,-1,15
 304 703 304 703 352 706 c 1,16,-1
 370 777 l 1,17,-1
 447 777 l 1,18,-1
 429 705 l 1,19,20
 471 702 471 702 504.5 694.5 c 128,-1,21
 538 687 538 687 564 676 c 1,22,-1
 509 492 l 1,23,-1
 456 492 l 1,24,-1
 456 638 l 1,25,26
 448 640 448 640 436.5 641 c 128,-1,27
 425 642 425 642 413 642 c 1,28,-1
 351 396 l 1,29,30
 378 377 378 377 404 356 c 128,-1,31
 430 335 430 335 450.5 310 c 128,-1,32
 471 285 471 285 484 254.5 c 128,-1,33
 497 224 497 224 497 187 c 0,34,35
 497 140 497 140 478.5 105.5 c 128,-1,36
 460 71 460 71 427 47 c 128,-1,37
 394 23 394 23 349 10 c 128,-1,38
 304 -3 304 -3 251 -6 c 1,39,-1
 232 -83 l 1,40,-1
 156 -83 l 1,41,-1
 175 -5 l 1,42,43
 132 -1 132 -1 86.5 9.5 c 128,-1,44
 41 20 41 20 4 40 c 1,45,-1
 60 224 l 1,0,-1
374 167 m 0,46,47
 374 197 374 197 358.5 221 c 128,-1,48
 343 245 343 245 319 266 c 1,49,-1
 268 62 l 1,50,51
 289 66 289 66 308 74 c 128,-1,52
 327 82 327 82 342 95 c 128,-1,53
 357 108 357 108 365.5 125.5 c 128,-1,54
 374 143 374 143 374 167 c 0,46,47
231 539 m 0,55,56
 231 511 231 511 246.5 488.5 c 128,-1,57
 262 466 262 466 287 445 c 1,58,-1
 335 638 l 1,59,60
 315 634 315 634 296.5 626 c 128,-1,61
 278 618 278 618 263.5 606 c 128,-1,62
 249 594 249 594 240 577.5 c 128,-1,63
 231 561 231 561 231 539 c 0,55,56
EndSplineSet
EndChar

StartChar: percent
Encoding: 37 37 8
Width: 751
Flags: W
LayerCount: 2
Fore
SplineSet
184 0 m 1,0,-1
 97 0 l 1,1,-1
 601 700 l 1,2,-1
 687 700 l 1,3,-1
 184 0 l 1,0,-1
203 369 m 0,4,5
 155 369 155 369 125 395.5 c 128,-1,6
 95 422 95 422 95 477 c 0,7,8
 95 523 95 523 108.5 564.5 c 128,-1,9
 122 606 122 606 147 638 c 128,-1,10
 172 670 172 670 207.5 689 c 128,-1,11
 243 708 243 708 286 708 c 0,12,13
 334 708 334 708 364 681.5 c 128,-1,14
 394 655 394 655 394 600 c 0,15,16
 394 554 394 554 380.5 512.5 c 128,-1,17
 367 471 367 471 342 439 c 128,-1,18
 317 407 317 407 281.5 388 c 128,-1,19
 246 369 246 369 203 369 c 0,4,5
493 -8 m 0,20,21
 445 -8 445 -8 415 18.5 c 128,-1,22
 385 45 385 45 385 100 c 0,23,24
 385 146 385 146 398.5 187.5 c 128,-1,25
 412 229 412 229 437 261 c 128,-1,26
 462 293 462 293 497.5 312 c 128,-1,27
 533 331 533 331 576 331 c 0,28,29
 624 331 624 331 654 304.5 c 128,-1,30
 684 278 684 278 684 223 c 0,31,32
 684 177 684 177 670.5 135.5 c 128,-1,33
 657 94 657 94 632 62 c 128,-1,34
 607 30 607 30 571.5 11 c 128,-1,35
 536 -8 536 -8 493 -8 c 0,20,21
215 405 m 0,36,37
 236 405 236 405 252 425 c 128,-1,38
 268 445 268 445 279 475 c 128,-1,39
 290 505 290 505 295.5 540 c 128,-1,40
 301 575 301 575 301 606 c 0,41,42
 301 671 301 671 275 671 c 0,43,44
 254 671 254 671 238 652.5 c 128,-1,45
 222 634 222 634 211 605.5 c 128,-1,46
 200 577 200 577 194.5 541 c 128,-1,47
 189 505 189 505 189 471 c 0,48,49
 189 405 189 405 215 405 c 0,36,37
505 28 m 0,50,51
 524 28 524 28 540 48 c 128,-1,52
 556 68 556 68 567.5 98 c 128,-1,53
 579 128 579 128 585 163 c 128,-1,54
 591 198 591 198 591 229 c 0,55,56
 591 265 591 265 584 279.5 c 128,-1,57
 577 294 577 294 565 294 c 0,58,59
 546 294 546 294 530 276 c 128,-1,60
 514 258 514 258 503 229 c 128,-1,61
 492 200 492 200 485.5 164.5 c 128,-1,62
 479 129 479 129 479 94 c 0,63,64
 479 28 479 28 505 28 c 0,50,51
EndSplineSet
EndChar

StartChar: ampersand
Encoding: 38 38 9
Width: 762
Flags: W
LayerCount: 2
Fore
SplineSet
290 202 m 1,0,1
 309 241 309 241 336.5 265.5 c 128,-1,2
 364 290 364 290 398 303.5 c 128,-1,3
 432 317 432 317 469.5 322 c 128,-1,4
 507 327 507 327 546 327 c 2,5,-1
 579 327 l 2,6,7
 600 327 600 327 622.5 329.5 c 128,-1,8
 645 332 645 332 665 339.5 c 128,-1,9
 685 347 685 347 700.5 360.5 c 128,-1,10
 716 374 716 374 724 397 c 1,11,12
 741 389 741 389 754.5 370.5 c 128,-1,13
 768 352 768 352 768 328 c 0,14,15
 768 292 768 292 737 267 c 128,-1,16
 706 242 706 242 640 242 c 2,17,-1
 612 242 l 1,18,19
 586 191 586 191 550.5 145.5 c 128,-1,20
 515 100 515 100 468.5 66 c 128,-1,21
 422 32 422 32 365 12 c 128,-1,22
 308 -8 308 -8 239 -8 c 0,23,24
 182 -8 182 -8 139.5 6.5 c 128,-1,25
 97 21 97 21 69.5 45.5 c 128,-1,26
 42 70 42 70 28.5 102.5 c 128,-1,27
 15 135 15 135 15 171 c 0,28,29
 15 220 15 220 35.5 262 c 128,-1,30
 56 304 56 304 91 335.5 c 128,-1,31
 126 367 126 367 172.5 387 c 128,-1,32
 219 407 219 407 272 413 c 1,33,-1
 272 415 l 1,34,35
 240 419 240 419 217.5 431.5 c 128,-1,36
 195 444 195 444 180 461.5 c 128,-1,37
 165 479 165 479 158 500 c 128,-1,38
 151 521 151 521 151 541 c 0,39,40
 151 577 151 577 167 607.5 c 128,-1,41
 183 638 183 638 214.5 660.5 c 128,-1,42
 246 683 246 683 292 695.5 c 128,-1,43
 338 708 338 708 398 708 c 0,44,45
 479 708 479 708 526 682.5 c 128,-1,46
 573 657 573 657 573 613 c 0,47,48
 573 568 573 568 536.5 547 c 128,-1,49
 500 526 500 526 445 526 c 0,50,51
 442 526 442 526 438.5 526 c 128,-1,52
 435 526 435 526 432 527 c 1,53,54
 436 538 436 538 439.5 552.5 c 128,-1,55
 443 567 443 567 443 587 c 0,56,57
 443 614 443 614 428.5 636 c 128,-1,58
 414 658 414 658 384 658 c 0,59,60
 339 658 339 658 313.5 620.5 c 128,-1,61
 288 583 288 583 288 528 c 0,62,63
 288 508 288 508 293 491.5 c 128,-1,64
 298 475 298 475 309.5 462 c 128,-1,65
 321 449 321 449 340.5 442 c 128,-1,66
 360 435 360 435 389 435 c 1,67,-1
 383 375 l 1,68,69
 347 374 347 374 307.5 361 c 128,-1,70
 268 348 268 348 234 324 c 128,-1,71
 200 300 200 300 178 264.5 c 128,-1,72
 156 229 156 229 156 183 c 0,73,74
 156 127 156 127 189 98.5 c 128,-1,75
 222 70 222 70 279 70 c 0,76,77
 330 70 330 70 371 84.5 c 128,-1,78
 412 99 412 99 445 123 c 128,-1,79
 478 147 478 147 503.5 178 c 128,-1,80
 529 209 529 209 549 242 c 1,81,-1
 531 242 l 2,82,83
 489 242 489 242 459.5 241.5 c 128,-1,84
 430 241 430 241 406.5 235.5 c 128,-1,85
 383 230 383 230 363.5 217 c 128,-1,86
 344 204 344 204 323 179 c 1,87,-1
 290 202 l 1,0,1
EndSplineSet
EndChar

StartChar: quotesingle
Encoding: 39 39 10
Width: 204
Flags: W
LayerCount: 2
Fore
SplineSet
138 708 m 1,0,-1
 261 708 l 1,1,-1
 182 473 l 1,2,-1
 112 473 l 1,3,-1
 138 708 l 1,0,-1
EndSplineSet
EndChar

StartChar: parenleft
Encoding: 40 40 11
Width: 340
Flags: W
LayerCount: 2
Fore
SplineSet
156 -304 m 1,0,1
 87 -235 87 -235 44.5 -139.5 c 128,-1,2
 2 -44 2 -44 2 81 c 0,3,4
 2 185 2 185 31 288 c 128,-1,5
 60 391 60 391 113.5 485.5 c 128,-1,6
 167 580 167 580 241 661.5 c 128,-1,7
 315 743 315 743 405 805 c 1,8,-1
 436 763 l 1,9,10
 288 632 288 632 205 457.5 c 128,-1,11
 122 283 122 283 122 66 c 0,12,13
 122 -15 122 -15 138 -95.5 c 128,-1,14
 154 -176 154 -176 198 -266 c 1,15,-1
 156 -304 l 1,0,1
EndSplineSet
EndChar

StartChar: parenright
Encoding: 41 41 12
Width: 342
Flags: W
LayerCount: 2
Fore
SplineSet
164 805 m 1,0,1
 233 736 233 736 275 635.5 c 128,-1,2
 317 535 317 535 317 410 c 0,3,4
 317 306 317 306 288 204.5 c 128,-1,5
 259 103 259 103 206 10.5 c 128,-1,6
 153 -82 153 -82 79 -162 c 128,-1,7
 5 -242 5 -242 -85 -304 c 1,8,-1
 -117 -262 l 1,9,10
 -43 -197 -43 -197 15 -122 c 128,-1,11
 73 -47 73 -47 113.5 38 c 128,-1,12
 154 123 154 123 175.5 219.5 c 128,-1,13
 197 316 197 316 197 425 c 0,14,15
 197 522 197 522 179 604 c 128,-1,16
 161 686 161 686 121 767 c 1,17,-1
 164 805 l 1,0,1
EndSplineSet
EndChar

StartChar: asterisk
Encoding: 42 42 13
Width: 488
Flags: W
LayerCount: 2
Fore
SplineSet
473 679 m 1,0,-1
 506 581 l 1,1,-1
 374 552 l 1,2,-1
 464 449 l 1,3,-1
 379 386 l 1,4,-1
 311 505 l 1,5,-1
 245 386 l 1,6,-1
 157 449 l 1,7,-1
 248 553 l 1,8,-1
 115 581 l 1,9,-1
 148 681 l 1,10,-1
 272 627 l 1,11,-1
 258 760 l 1,12,-1
 364 760 l 1,13,-1
 350 627 l 1,14,-1
 473 679 l 1,0,-1
EndSplineSet
EndChar

StartChar: plus
Encoding: 43 43 14
Width: 558
Flags: W
LayerCount: 2
Fore
SplineSet
334 586 m 1,0,-1
 334 398 l 1,1,-1
 524 398 l 1,2,-1
 524 316 l 1,3,-1
 334 316 l 1,4,-1
 334 127 l 1,5,-1
 253 127 l 1,6,-1
 253 316 l 1,7,-1
 65 316 l 1,8,-1
 65 398 l 1,9,-1
 253 398 l 1,10,-1
 253 586 l 1,11,-1
 334 586 l 1,0,-1
EndSplineSet
EndChar

StartChar: comma
Encoding: 44 44 15
Width: 258
Flags: W
LayerCount: 2
Fore
SplineSet
-68 -129 m 1,0,1
 -29 -97 -29 -97 1 -59.5 c 128,-1,2
 31 -22 31 -22 49 21 c 1,3,-1
 -8 79 l 1,4,5
 -8 96 -8 96 -1 111.5 c 128,-1,6
 6 127 6 127 17.5 138.5 c 128,-1,7
 29 150 29 150 44.5 157 c 128,-1,8
 60 164 60 164 78 164 c 0,9,10
 113 164 113 164 138 140 c 128,-1,11
 163 116 163 116 163 79 c 0,12,13
 163 37 163 37 142 -2 c 128,-1,14
 121 -41 121 -41 90.5 -74 c 128,-1,15
 60 -107 60 -107 25.5 -132 c 128,-1,16
 -9 -157 -9 -157 -35 -171 c 1,17,-1
 -68 -129 l 1,0,1
EndSplineSet
EndChar

StartChar: hyphen
Encoding: 45 45 16
Width: 358
Flags: W
LayerCount: 2
Fore
SplineSet
64 319 m 1,0,-1
 282 319 l 1,1,-1
 282 228 l 1,2,-1
 64 228 l 1,3,-1
 64 319 l 1,0,-1
EndSplineSet
EndChar

StartChar: period
Encoding: 46 46 17
Width: 256
Flags: W
LayerCount: 2
Fore
SplineSet
-6 79 m 0,0,1
 -6 97 -6 97 1 112.5 c 128,-1,2
 8 128 8 128 19.5 139.5 c 128,-1,3
 31 151 31 151 46.5 157.5 c 128,-1,4
 62 164 62 164 80 164 c 0,5,6
 115 164 115 164 140 139 c 128,-1,7
 165 114 165 114 165 79 c 0,8,9
 165 62 165 62 158.5 46.5 c 128,-1,10
 152 31 152 31 140.5 19 c 128,-1,11
 129 7 129 7 113.5 0 c 128,-1,12
 98 -7 98 -7 80 -7 c 256,13,14
 62 -7 62 -7 46.5 0 c 128,-1,15
 31 7 31 7 19.5 19 c 128,-1,16
 8 31 8 31 1 46.5 c 128,-1,17
 -6 62 -6 62 -6 79 c 0,0,1
EndSplineSet
EndChar

StartChar: slash
Encoding: 47 47 18
Width: 457
Flags: W
LayerCount: 2
Fore
SplineSet
57 0 m 1,0,-1
 -38 0 l 1,1,-1
 429 700 l 1,2,-1
 524 700 l 1,3,-1
 57 0 l 1,0,-1
EndSplineSet
EndChar

StartChar: zero
Encoding: 48 48 19
Width: 633
Flags: W
LayerCount: 2
Fore
SplineSet
244 -7 m 0,0,1
 193 -7 193 -7 156.5 10 c 128,-1,2
 120 27 120 27 96.5 57.5 c 128,-1,3
 73 88 73 88 62 129.5 c 128,-1,4
 51 171 51 171 51 219 c 0,5,6
 51 312 51 312 77 400 c 128,-1,7
 103 488 103 488 150.5 556.5 c 128,-1,8
 198 625 198 625 265.5 666.5 c 128,-1,9
 333 708 333 708 417 708 c 0,10,11
 515 708 515 708 562 647 c 128,-1,12
 609 586 609 586 609 483 c 0,13,14
 609 385 609 385 583.5 296.5 c 128,-1,15
 558 208 558 208 510.5 140.5 c 128,-1,16
 463 73 463 73 395.5 33 c 128,-1,17
 328 -7 328 -7 244 -7 c 0,0,1
257 44 m 256,18,19
 291 44 291 44 320 65 c 128,-1,20
 349 86 349 86 373 121.5 c 128,-1,21
 397 157 397 157 416 203.5 c 128,-1,22
 435 250 435 250 448 300.5 c 128,-1,23
 461 351 461 351 467.5 402 c 128,-1,24
 474 453 474 453 474 499 c 0,25,26
 474 580 474 580 455.5 617.5 c 128,-1,27
 437 655 437 655 403 655 c 0,28,29
 352 655 352 655 312 613 c 128,-1,30
 272 571 272 571 244 505 c 128,-1,31
 216 439 216 439 201 358.5 c 128,-1,32
 186 278 186 278 186 202 c 0,33,34
 186 117 186 117 204.5 80.5 c 128,-1,35
 223 44 223 44 257 44 c 256,18,19
EndSplineSet
EndChar

StartChar: one
Encoding: 49 49 20
Width: 354
Flags: W
LayerCount: 2
Fore
SplineSet
50 0 m 1,0,-1
 202 594 l 1,1,-1
 93 550 l 1,2,-1
 85 596 l 1,3,-1
 311 708 l 1,4,-1
 361 708 l 1,5,-1
 184 0 l 1,6,-1
 50 0 l 1,0,-1
EndSplineSet
EndChar

StartChar: two
Encoding: 50 50 21
Width: 540
Flags: W
LayerCount: 2
Fore
SplineSet
514 557 m 0,0,1
 514 505 514 505 488 458 c 128,-1,2
 462 411 462 411 412.5 358.5 c 128,-1,3
 363 306 363 306 292 243 c 128,-1,4
 221 180 221 180 132 97 c 1,5,-1
 356 97 l 1,6,-1
 422 195 l 1,7,-1
 484 195 l 1,8,-1
 416 0 l 1,9,-1
 -22 0 l 1,10,-1
 -8 60 l 1,11,12
 98 173 98 173 172 250.5 c 128,-1,13
 246 328 246 328 292.5 383.5 c 128,-1,14
 339 439 339 439 360 480.5 c 128,-1,15
 381 522 381 522 381 563 c 0,16,17
 381 608 381 608 362.5 632 c 128,-1,18
 344 656 344 656 308 656 c 0,19,20
 271 656 271 656 251.5 628 c 128,-1,21
 232 600 232 600 232 556 c 0,22,23
 232 541 232 541 235 525 c 128,-1,24
 238 509 238 509 241 495 c 1,25,26
 224 492 224 492 202 492 c 0,27,28
 185 492 185 492 168 496.5 c 128,-1,29
 151 501 151 501 137.5 511 c 128,-1,30
 124 521 124 521 115.5 537 c 128,-1,31
 107 553 107 553 107 576 c 0,32,33
 107 607 107 607 122.5 632 c 128,-1,34
 138 657 138 657 165.5 673.5 c 128,-1,35
 193 690 193 690 230.5 699 c 128,-1,36
 268 708 268 708 312 708 c 0,37,38
 357 708 357 708 394 697.5 c 128,-1,39
 431 687 431 687 458 667.5 c 128,-1,40
 485 648 485 648 499.5 620 c 128,-1,41
 514 592 514 592 514 557 c 0,0,1
EndSplineSet
EndChar

StartChar: three
Encoding: 51 51 22
Width: 552
Flags: W
LayerCount: 2
Fore
SplineSet
514 561 m 0,0,1
 514 526 514 526 500 495.5 c 128,-1,2
 486 465 486 465 461 440 c 128,-1,3
 436 415 436 415 401 397 c 128,-1,4
 366 379 366 379 324 370 c 1,5,-1
 324 368 l 1,6,7
 363 365 363 365 392.5 351.5 c 128,-1,8
 422 338 422 338 442.5 317 c 128,-1,9
 463 296 463 296 473.5 269 c 128,-1,10
 484 242 484 242 484 212 c 0,11,12
 484 164 484 164 465 124 c 128,-1,13
 446 84 446 84 411 54.5 c 128,-1,14
 376 25 376 25 326.5 9 c 128,-1,15
 277 -7 277 -7 216 -7 c 0,16,17
 92 -7 92 -7 -13 56 c 1,18,-1
 10 106 l 1,19,20
 54 85 54 85 95 72.5 c 128,-1,21
 136 60 136 60 176 60 c 0,22,23
 213 60 213 60 245 71.5 c 128,-1,24
 277 83 277 83 299.5 103.5 c 128,-1,25
 322 124 322 124 335 151 c 128,-1,26
 348 178 348 178 348 209 c 0,27,28
 348 234 348 234 341 257 c 128,-1,29
 334 280 334 280 317 298 c 128,-1,30
 300 316 300 316 272 327 c 128,-1,31
 244 338 244 338 201 340 c 1,32,-1
 216 400 l 1,33,34
 292 410 292 410 337.5 456 c 128,-1,35
 383 502 383 502 383 573 c 0,36,37
 383 613 383 613 363 635.5 c 128,-1,38
 343 658 343 658 312 658 c 0,39,40
 275 658 275 658 253 634.5 c 128,-1,41
 231 611 231 611 231 566 c 0,42,43
 231 541 231 541 238 514 c 1,44,45
 230 512 230 512 221.5 511 c 128,-1,46
 213 510 213 510 204 510 c 0,47,48
 187 510 187 510 170.5 514 c 128,-1,49
 154 518 154 518 140.5 527 c 128,-1,50
 127 536 127 536 118.5 550.5 c 128,-1,51
 110 565 110 565 110 586 c 0,52,53
 110 611 110 611 124 633.5 c 128,-1,54
 138 656 138 656 163.5 672.5 c 128,-1,55
 189 689 189 689 226 698.5 c 128,-1,56
 263 708 263 708 310 708 c 0,57,58
 408 708 408 708 461 669 c 128,-1,59
 514 630 514 630 514 561 c 0,0,1
EndSplineSet
EndChar

StartChar: four
Encoding: 52 52 23
Width: 554
Flags: W
LayerCount: 2
Fore
SplineSet
461 707 m 1,0,-1
 540 707 l 1,1,-1
 428 258 l 1,2,-1
 502 258 l 1,3,-1
 482 177 l 1,4,-1
 408 177 l 1,5,-1
 364 0 l 1,6,-1
 237 0 l 1,7,-1
 281 177 l 1,8,-1
 -20 177 l 1,9,-1
 -6 230 l 1,10,-1
 461 707 l 1,0,-1
301 258 m 1,11,-1
 362 500 l 1,12,-1
 120 258 l 1,13,-1
 301 258 l 1,11,-1
EndSplineSet
EndChar

StartChar: five
Encoding: 53 53 24
Width: 518
Flags: W
LayerCount: 2
Fore
SplineSet
-5 83 m 1,0,1
 21 69 21 69 51.5 63.5 c 128,-1,2
 82 58 82 58 112 58 c 0,3,4
 156 58 156 58 194.5 73.5 c 128,-1,5
 233 89 233 89 262 117 c 128,-1,6
 291 145 291 145 308 182.5 c 128,-1,7
 325 220 325 220 325 265 c 0,8,9
 325 319 325 319 292.5 350.5 c 128,-1,10
 260 382 260 382 202 382 c 0,11,12
 186 382 186 382 172 381 c 128,-1,13
 158 380 158 380 147 378 c 0,14,15
 134 376 134 376 123 375 c 1,16,-1
 99 393 l 1,17,-1
 201 700 l 1,18,-1
 400 700 l 2,19,20
 433 700 433 700 453.5 702 c 128,-1,21
 474 704 474 704 487.5 708.5 c 128,-1,22
 501 713 501 713 510.5 720.5 c 128,-1,23
 520 728 520 728 531 739 c 1,24,-1
 572 724 l 1,25,26
 555 689 555 689 540 663 c 128,-1,27
 525 637 525 637 503.5 619.5 c 128,-1,28
 482 602 482 602 451 593.5 c 128,-1,29
 420 585 420 585 372 585 c 2,30,-1
 230 585 l 1,31,-1
 184 442 l 1,32,33
 199 446 199 446 215 450 c 0,34,35
 229 453 229 453 246 455.5 c 128,-1,36
 263 458 263 458 282 458 c 0,37,38
 330 458 330 458 364.5 444.5 c 128,-1,39
 399 431 399 431 421.5 408 c 128,-1,40
 444 385 444 385 454.5 353.5 c 128,-1,41
 465 322 465 322 465 286 c 0,42,43
 465 230 465 230 440 177 c 128,-1,44
 415 124 415 124 370 83 c 128,-1,45
 325 42 325 42 263.5 17.5 c 128,-1,46
 202 -7 202 -7 129 -7 c 0,47,48
 89 -7 89 -7 58 -0.5 c 128,-1,49
 27 6 27 6 6 14 c 0,50,51
 -20 23 -20 23 -38 35 c 1,52,-1
 -5 83 l 1,0,1
EndSplineSet
EndChar

StartChar: six
Encoding: 54 54 25
Width: 558
Flags: W
LayerCount: 2
Fore
SplineSet
528 651 m 1,0,1
 417 622 417 622 334.5 557.5 c 128,-1,2
 252 493 252 493 198 379 c 1,3,4
 234 403 234 403 272.5 418 c 128,-1,5
 311 433 311 433 353 433 c 256,6,7
 395 433 395 433 425 420 c 128,-1,8
 455 407 455 407 474.5 384 c 128,-1,9
 494 361 494 361 503.5 330.5 c 128,-1,10
 513 300 513 300 513 264 c 0,11,12
 513 204 513 204 492.5 154 c 128,-1,13
 472 104 472 104 434.5 68.5 c 128,-1,14
 397 33 397 33 345 13 c 128,-1,15
 293 -7 293 -7 231 -7 c 0,16,17
 140 -7 140 -7 88.5 47.5 c 128,-1,18
 37 102 37 102 37 197 c 0,19,20
 37 290 37 290 72.5 377 c 128,-1,21
 108 464 108 464 172 533.5 c 128,-1,22
 236 603 236 603 325 649.5 c 128,-1,23
 414 696 414 696 521 708 c 1,24,-1
 528 651 l 1,0,1
286 352 m 0,25,26
 254 352 254 352 229.5 342.5 c 128,-1,27
 205 333 205 333 183 321 c 0,28,29
 181 320 181 320 179 319 c 128,-1,30
 177 318 177 318 174 316 c 1,31,32
 166 289 166 289 162 261 c 128,-1,33
 158 233 158 233 158 199 c 0,34,35
 158 133 158 133 180.5 93 c 128,-1,36
 203 53 203 53 245 53 c 0,37,38
 273 53 273 53 296.5 69.5 c 128,-1,39
 320 86 320 86 337.5 112.5 c 128,-1,40
 355 139 355 139 365 172.5 c 128,-1,41
 375 206 375 206 375 241 c 0,42,43
 375 290 375 290 353 321 c 128,-1,44
 331 352 331 352 286 352 c 0,25,26
131 288 m 2,45,-1
 129 286 l 1,46,47
 129 286 129 286 131 288 c 2,45,-1
EndSplineSet
EndChar

StartChar: seven
Encoding: 55 55 26
Width: 456
Flags: W
LayerCount: 2
Fore
SplineSet
56 0 m 1,0,1
 87 81 87 81 128 160.5 c 128,-1,2
 169 240 169 240 215.5 314 c 128,-1,3
 262 388 262 388 311.5 455 c 128,-1,4
 361 522 361 522 408 579 c 1,5,-1
 170 579 l 1,6,-1
 123 510 l 1,7,-1
 73 510 l 1,8,-1
 138 700 l 1,9,-1
 541 700 l 1,10,-1
 527 637 l 1,11,12
 407 480 407 480 324.5 316 c 128,-1,13
 242 152 242 152 194 0 c 1,14,-1
 56 0 l 1,0,1
EndSplineSet
EndChar

StartChar: eight
Encoding: 56 56 27
Width: 574
Flags: W
LayerCount: 2
Fore
SplineSet
35 129 m 0,0,1
 35 168 35 168 50.5 202.5 c 128,-1,2
 66 237 66 237 90.5 267.5 c 128,-1,3
 115 298 115 298 147 323.5 c 128,-1,4
 179 349 179 349 212 369 c 1,5,6
 183 395 183 395 161 429 c 128,-1,7
 139 463 139 463 139 509 c 0,8,9
 139 552 139 552 158 589 c 128,-1,10
 177 626 177 626 209.5 652 c 128,-1,11
 242 678 242 678 284.5 693 c 128,-1,12
 327 708 327 708 374 708 c 0,13,14
 414 708 414 708 447 699.5 c 128,-1,15
 480 691 480 691 504 674 c 128,-1,16
 528 657 528 657 541 632.5 c 128,-1,17
 554 608 554 608 554 577 c 0,18,19
 554 544 554 544 542.5 516 c 128,-1,20
 531 488 531 488 510.5 463.5 c 128,-1,21
 490 439 490 439 462.5 417.5 c 128,-1,22
 435 396 435 396 403 377 c 1,23,24
 446 339 446 339 468.5 301 c 128,-1,25
 491 263 491 263 491 215 c 256,26,27
 491 167 491 167 470.5 126.5 c 128,-1,28
 450 86 450 86 414 56.5 c 128,-1,29
 378 27 378 27 328.5 10 c 128,-1,30
 279 -7 279 -7 220 -7 c 0,31,32
 184 -7 184 -7 150.5 0.5 c 128,-1,33
 117 8 117 8 91.5 24.5 c 128,-1,34
 66 41 66 41 50.5 66.5 c 128,-1,35
 35 92 35 92 35 129 c 0,0,1
380 169 m 0,36,37
 380 193 380 193 370 213.5 c 128,-1,38
 360 234 360 234 343.5 253 c 128,-1,39
 327 272 327 272 305.5 290 c 128,-1,40
 284 308 284 308 261 327 c 1,41,42
 240 311 240 311 220 291 c 128,-1,43
 200 271 200 271 184 248 c 128,-1,44
 168 225 168 225 158 199 c 128,-1,45
 148 173 148 173 148 146 c 0,46,47
 148 107 148 107 172.5 79 c 128,-1,48
 197 51 197 51 243 51 c 0,49,50
 272 51 272 51 297 61 c 128,-1,51
 322 71 322 71 340.5 87.5 c 128,-1,52
 359 104 359 104 369.5 125 c 128,-1,53
 380 146 380 146 380 169 c 0,36,37
252 554 m 256,54,55
 252 533 252 533 261.5 514 c 128,-1,56
 271 495 271 495 286 477.5 c 128,-1,57
 301 460 301 460 319 445 c 128,-1,58
 337 430 337 430 354 416 c 1,59,60
 394 446 394 446 420.5 483.5 c 128,-1,61
 447 521 447 521 447 563 c 256,62,63
 447 605 447 605 420.5 626.5 c 128,-1,64
 394 648 394 648 356 648 c 0,65,66
 336 648 336 648 317 641 c 128,-1,67
 298 634 298 634 283.5 621.5 c 128,-1,68
 269 609 269 609 260.5 592 c 128,-1,69
 252 575 252 575 252 554 c 256,54,55
EndSplineSet
EndChar

StartChar: nine
Encoding: 57 57 28
Width: 558
Flags: W
LayerCount: 2
Fore
SplineSet
58 49 m 1,0,1
 168 78 168 78 250.5 142.5 c 128,-1,2
 333 207 333 207 387 320 c 1,3,4
 351 297 351 297 313 282 c 128,-1,5
 275 267 275 267 233 267 c 256,6,7
 191 267 191 267 160.5 280 c 128,-1,8
 130 293 130 293 110.5 316 c 128,-1,9
 91 339 91 339 82 369.5 c 128,-1,10
 73 400 73 400 73 436 c 0,11,12
 73 496 73 496 93.5 546 c 128,-1,13
 114 596 114 596 151.5 631.5 c 128,-1,14
 189 667 189 667 241 687 c 128,-1,15
 293 707 293 707 355 707 c 0,16,17
 446 707 446 707 497.5 652.5 c 128,-1,18
 549 598 549 598 549 503 c 0,19,20
 549 410 549 410 513.5 323 c 128,-1,21
 478 236 478 236 414 166.5 c 128,-1,22
 350 97 350 97 261 50.5 c 128,-1,23
 172 4 172 4 65 -8 c 1,24,-1
 58 49 l 1,0,1
300 348 m 0,25,26
 332 348 332 348 356.5 357.5 c 128,-1,27
 381 367 381 367 403 379 c 2,28,-1
 411 383 l 1,29,30
 419 411 419 411 423.5 439 c 128,-1,31
 428 467 428 467 428 501 c 0,32,33
 428 567 428 567 405.5 607 c 128,-1,34
 383 647 383 647 341 647 c 0,35,36
 313 647 313 647 289.5 630.5 c 128,-1,37
 266 614 266 614 248.5 587.5 c 128,-1,38
 231 561 231 561 221 527 c 128,-1,39
 211 493 211 493 211 459 c 0,40,41
 211 410 211 410 233 379 c 128,-1,42
 255 348 255 348 300 348 c 0,25,26
454 412 m 2,43,44
 455 412 455 412 457 414 c 2,45,-1
 454 412 l 2,43,44
EndSplineSet
EndChar

StartChar: colon
Encoding: 58 58 29
Width: 311
Flags: W
LayerCount: 2
Fore
SplineSet
14 78 m 0,0,1
 14 96 14 96 21 111.5 c 128,-1,2
 28 127 28 127 39.5 138.5 c 128,-1,3
 51 150 51 150 66.5 157 c 128,-1,4
 82 164 82 164 99 164 c 0,5,6
 135 164 135 164 159.5 138.5 c 128,-1,7
 184 113 184 113 184 78 c 0,8,9
 184 44 184 44 159.5 18.5 c 128,-1,10
 135 -7 135 -7 99 -7 c 0,11,12
 82 -7 82 -7 66.5 0 c 128,-1,13
 51 7 51 7 39.5 18.5 c 128,-1,14
 28 30 28 30 21 45.5 c 128,-1,15
 14 61 14 61 14 78 c 0,0,1
99 394 m 0,16,17
 99 412 99 412 106 427.5 c 128,-1,18
 113 443 113 443 125 454.5 c 128,-1,19
 137 466 137 466 152.5 472.5 c 128,-1,20
 168 479 168 479 185 479 c 0,21,22
 221 479 221 479 245.5 454 c 128,-1,23
 270 429 270 429 270 394 c 0,24,25
 270 377 270 377 263.5 361.5 c 128,-1,26
 257 346 257 346 245.5 334 c 128,-1,27
 234 322 234 322 218.5 315 c 128,-1,28
 203 308 203 308 185 308 c 0,29,30
 150 308 150 308 124.5 333.5 c 128,-1,31
 99 359 99 359 99 394 c 0,16,17
EndSplineSet
EndChar

StartChar: semicolon
Encoding: 59 59 30
Width: 310
Flags: W
LayerCount: 2
Fore
SplineSet
105 394 m 0,0,1
 105 412 105 412 112 427.5 c 128,-1,2
 119 443 119 443 131 454.5 c 128,-1,3
 143 466 143 466 158.5 472.5 c 128,-1,4
 174 479 174 479 191 479 c 0,5,6
 227 479 227 479 251.5 454 c 128,-1,7
 276 429 276 429 276 394 c 0,8,9
 276 377 276 377 269.5 361.5 c 128,-1,10
 263 346 263 346 251.5 334 c 128,-1,11
 240 322 240 322 224.5 315 c 128,-1,12
 209 308 209 308 191 308 c 0,13,14
 156 308 156 308 130.5 333.5 c 128,-1,15
 105 359 105 359 105 394 c 0,0,1
-44 -129 m 1,16,17
 -4 -97 -4 -97 26 -59.5 c 128,-1,18
 56 -22 56 -22 74 21 c 1,19,-1
 17 79 l 1,20,21
 17 114 17 114 42 139 c 128,-1,22
 67 164 67 164 102 164 c 0,23,24
 138 164 138 164 162.5 140 c 128,-1,25
 187 116 187 116 187 79 c 0,26,27
 187 37 187 37 166 -2 c 128,-1,28
 145 -41 145 -41 114.5 -74 c 128,-1,29
 84 -107 84 -107 49.5 -132 c 128,-1,30
 15 -157 15 -157 -11 -171 c 1,31,-1
 -44 -129 l 1,16,17
EndSplineSet
EndChar

StartChar: less
Encoding: 60 60 31
Width: 581
Flags: W
LayerCount: 2
Fore
SplineSet
61 321 m 1,0,-1
 61 394 l 1,1,-1
 490 625 l 1,2,-1
 490 530 l 1,3,-1
 171 357 l 1,4,-1
 490 186 l 1,5,-1
 490 91 l 1,6,-1
 61 321 l 1,0,-1
EndSplineSet
EndChar

StartChar: equal
Encoding: 61 61 32
Width: 639
Flags: W
LayerCount: 2
Fore
SplineSet
95 305 m 1,0,-1
 554 305 l 1,1,-1
 554 223 l 1,2,-1
 95 223 l 1,3,-1
 95 305 l 1,0,-1
95 471 m 1,4,-1
 554 471 l 1,5,-1
 554 389 l 1,6,-1
 95 389 l 1,7,-1
 95 471 l 1,4,-1
EndSplineSet
EndChar

StartChar: greater
Encoding: 62 62 33
Width: 579
Flags: W
LayerCount: 2
Fore
SplineSet
121 91 m 1,0,-1
 121 186 l 1,1,-1
 440 357 l 1,2,-1
 121 530 l 1,3,-1
 121 625 l 1,4,-1
 550 394 l 1,5,-1
 550 321 l 1,6,-1
 121 91 l 1,0,-1
EndSplineSet
EndChar

StartChar: question
Encoding: 63 63 34
Width: 488
Flags: W
LayerCount: 2
Fore
SplineSet
132 286 m 0,0,1
 132 326 132 326 150 354.5 c 128,-1,2
 168 383 168 383 195 405 c 128,-1,3
 222 427 222 427 254 445.5 c 128,-1,4
 286 464 286 464 313 484.5 c 128,-1,5
 340 505 340 505 358 530.5 c 128,-1,6
 376 556 376 556 376 592 c 0,7,8
 376 623 376 623 359 639.5 c 128,-1,9
 342 656 342 656 313 656 c 0,10,11
 281 656 281 656 261 631.5 c 128,-1,12
 241 607 241 607 241 560 c 0,13,14
 241 548 241 548 243 533 c 128,-1,15
 245 518 245 518 248 504 c 1,16,17
 177 504 177 504 146 527.5 c 128,-1,18
 115 551 115 551 115 594 c 0,19,20
 115 647 115 647 170 677.5 c 128,-1,21
 225 708 225 708 325 708 c 0,22,23
 365 708 365 708 399 699.5 c 128,-1,24
 433 691 433 691 458 674 c 128,-1,25
 483 657 483 657 497 632 c 128,-1,26
 511 607 511 607 511 575 c 0,27,28
 511 532 511 532 489 501.5 c 128,-1,29
 467 471 467 471 434 448 c 128,-1,30
 401 425 401 425 362 407 c 128,-1,31
 323 389 323 389 290 371 c 128,-1,32
 257 353 257 353 235 332.5 c 128,-1,33
 213 312 213 312 213 284 c 0,34,35
 213 267 213 267 223 256.5 c 128,-1,36
 233 246 233 246 249 246 c 0,37,38
 260 246 260 246 271.5 249.5 c 128,-1,39
 283 253 283 253 299 265 c 1,40,-1
 329 227 l 1,41,42
 311 209 311 209 290.5 199 c 128,-1,43
 270 189 270 189 238 189 c 0,44,45
 192 189 192 189 162 215.5 c 128,-1,46
 132 242 132 242 132 286 c 0,0,1
107 79 m 0,47,48
 107 97 107 97 114 112.5 c 128,-1,49
 121 128 121 128 132.5 139.5 c 128,-1,50
 144 151 144 151 159.5 157.5 c 128,-1,51
 175 164 175 164 193 164 c 0,52,53
 228 164 228 164 253 139 c 128,-1,54
 278 114 278 114 278 79 c 0,55,56
 278 62 278 62 271.5 46.5 c 128,-1,57
 265 31 265 31 253.5 19 c 128,-1,58
 242 7 242 7 226.5 0 c 128,-1,59
 211 -7 211 -7 193 -7 c 256,60,61
 175 -7 175 -7 159.5 0 c 128,-1,62
 144 7 144 7 132.5 19 c 128,-1,63
 121 31 121 31 114 46.5 c 128,-1,64
 107 62 107 62 107 79 c 0,47,48
EndSplineSet
EndChar

StartChar: at
Encoding: 64 64 35
Width: 886
Flags: W
LayerCount: 2
Fore
SplineSet
465 115 m 0,0,1
 465 125 465 125 468.5 137 c 128,-1,2
 472 149 472 149 477 161 c 1,3,4
 444 126 444 126 407.5 109 c 128,-1,5
 371 92 371 92 335 92 c 0,6,7
 293 92 293 92 268 116.5 c 128,-1,8
 243 141 243 141 243 195 c 0,9,10
 243 264 243 264 269 324.5 c 128,-1,11
 295 385 295 385 337.5 430.5 c 128,-1,12
 380 476 380 476 435 502 c 128,-1,13
 490 528 490 528 548 528 c 0,14,15
 589 528 589 528 628 519 c 128,-1,16
 667 510 667 510 703 489 c 1,17,-1
 585 151 l 1,18,19
 631 160 631 160 671.5 183 c 128,-1,20
 712 206 712 206 741.5 240 c 128,-1,21
 771 274 771 274 788 317.5 c 128,-1,22
 805 361 805 361 805 411 c 0,23,24
 805 466 805 466 784 511.5 c 128,-1,25
 763 557 763 557 726 588.5 c 128,-1,26
 689 620 689 620 637.5 637.5 c 128,-1,27
 586 655 586 655 526 655 c 0,28,29
 442 655 442 655 374.5 620.5 c 128,-1,30
 307 586 307 586 260 528 c 128,-1,31
 213 470 213 470 187.5 395.5 c 128,-1,32
 162 321 162 321 162 241 c 0,33,34
 162 171 162 171 183 116 c 128,-1,35
 204 61 204 61 243 22.5 c 128,-1,36
 282 -16 282 -16 336.5 -36.5 c 128,-1,37
 391 -57 391 -57 457 -57 c 0,38,39
 504 -57 504 -57 550 -47.5 c 128,-1,40
 596 -38 596 -38 643 -20 c 1,41,-1
 663 -58 l 1,42,43
 610 -87 610 -87 550 -102 c 128,-1,44
 490 -117 490 -117 427 -117 c 0,45,46
 353 -117 353 -117 286 -95 c 128,-1,47
 219 -73 219 -73 167 -29.5 c 128,-1,48
 115 14 115 14 84.5 79.5 c 128,-1,49
 54 145 54 145 54 232 c 0,50,51
 54 329 54 329 88.5 416 c 128,-1,52
 123 503 123 503 185 567.5 c 128,-1,53
 247 632 247 632 334.5 670 c 128,-1,54
 422 708 422 708 528 708 c 0,55,56
 599 708 599 708 660.5 686.5 c 128,-1,57
 722 665 722 665 767.5 626.5 c 128,-1,58
 813 588 813 588 839 534.5 c 128,-1,59
 865 481 865 481 865 416 c 0,60,61
 865 343 865 343 837 283 c 128,-1,62
 809 223 809 223 759.5 180.5 c 128,-1,63
 710 138 710 138 642 115 c 128,-1,64
 574 92 574 92 494 92 c 0,65,66
 465 92 465 92 465 115 c 0,0,1
393 163 m 0,67,68
 416 163 416 163 445 182 c 128,-1,69
 474 201 474 201 509 244 c 1,70,-1
 591 479 l 1,71,72
 583 481 583 481 575 481.5 c 128,-1,73
 567 482 567 482 556 482 c 0,74,75
 518 482 518 482 483 460.5 c 128,-1,76
 448 439 448 439 421 403 c 128,-1,77
 394 367 394 367 377.5 319 c 128,-1,78
 361 271 361 271 361 218 c 0,79,80
 361 163 361 163 393 163 c 0,67,68
552 307 m 1,81,-1
 547 299 l 1,82,-1
 552 307 l 1,81,-1
EndSplineSet
EndChar

StartChar: A
Encoding: 65 65 36
Width: 663
Flags: W
LayerCount: 2
Fore
SplineSet
-71 41 m 1,0,-1
 20 63 l 1,1,-1
 400 700 l 1,2,-1
 483 700 l 1,3,-1
 529 62 l 1,4,-1
 608 41 l 1,5,-1
 598 0 l 1,6,-1
 316 0 l 1,7,-1
 327 41 l 1,8,-1
 403 59 l 1,9,-1
 393 196 l 1,10,-1
 196 196 l 1,11,-1
 116 62 l 1,12,-1
 195 41 l 1,13,-1
 184 0 l 1,14,-1
 -82 0 l 1,15,-1
 -71 41 l 1,0,-1
371 488 m 1,16,-1
 234 260 l 1,17,-1
 388 260 l 1,18,-1
 371 488 l 1,16,-1
EndSplineSet
EndChar

StartChar: B
Encoding: 66 66 37
Width: 628
Flags: W
LayerCount: 2
Fore
SplineSet
-23 51 m 1,0,-1
 70 73 l 1,1,-1
 208 627 l 1,2,-1
 128 649 l 1,3,-1
 140 700 l 1,4,-1
 401 700 l 2,5,6
 444 700 444 700 479.5 692 c 128,-1,7
 515 684 515 684 540.5 666.5 c 128,-1,8
 566 649 566 649 579.5 621 c 128,-1,9
 593 593 593 593 593 553 c 0,10,11
 593 517 593 517 580 487 c 128,-1,12
 567 457 567 457 544.5 433 c 128,-1,13
 522 409 522 409 492 392.5 c 128,-1,14
 462 376 462 376 428 367 c 1,15,-1
 427 364 l 1,16,17
 487 354 487 354 523 315 c 128,-1,18
 559 276 559 276 559 216 c 0,19,20
 559 162 559 162 536 121.5 c 128,-1,21
 513 81 513 81 474 54 c 128,-1,22
 435 27 435 27 384 13.5 c 128,-1,23
 333 0 333 0 278 0 c 2,24,-1
 -37 0 l 1,25,-1
 -23 51 l 1,0,-1
262 76 m 2,26,27
 295 76 295 76 324.5 87 c 128,-1,28
 354 98 354 98 376 117 c 128,-1,29
 398 136 398 136 411 163 c 128,-1,30
 424 190 424 190 424 222 c 0,31,32
 424 271 424 271 395 300 c 128,-1,33
 366 329 366 329 311 329 c 2,34,-1
 265 329 l 1,35,-1
 201 76 l 1,36,-1
 262 76 l 2,26,27
314 397 m 2,37,38
 344 397 344 397 370.5 409 c 128,-1,39
 397 421 397 421 416.5 441 c 128,-1,40
 436 461 436 461 447 488 c 128,-1,41
 458 515 458 515 458 546 c 0,42,43
 458 590 458 590 433 607.5 c 128,-1,44
 408 625 408 625 371 625 c 2,45,-1
 338 625 l 1,46,-1
 281 397 l 1,47,-1
 314 397 l 2,37,38
EndSplineSet
EndChar

StartChar: C
Encoding: 67 67 38
Width: 619
Flags: W
LayerCount: 2
Fore
SplineSet
556 226 m 1,0,-1
 485 42 l 1,1,2
 444 19 444 19 394.5 6 c 128,-1,3
 345 -7 345 -7 284 -7 c 0,4,5
 220 -7 220 -7 175 12.5 c 128,-1,6
 130 32 130 32 101.5 65.5 c 128,-1,7
 73 99 73 99 59.5 144 c 128,-1,8
 46 189 46 189 46 239 c 0,9,10
 46 325 46 325 75 409 c 128,-1,11
 104 493 104 493 158.5 559.5 c 128,-1,12
 213 626 213 626 290.5 667 c 128,-1,13
 368 708 368 708 465 708 c 0,14,15
 510 708 510 708 546 702 c 128,-1,16
 582 696 582 696 608 688 c 0,17,18
 638 679 638 679 660 668 c 1,19,-1
 614 483 l 1,20,-1
 555 483 l 1,21,-1
 549 632 l 1,22,23
 538 635 538 635 522.5 637.5 c 128,-1,24
 507 640 507 640 489 640 c 0,25,26
 423 640 423 640 366 608.5 c 128,-1,27
 309 577 309 577 267.5 523 c 128,-1,28
 226 469 226 469 202.5 397 c 128,-1,29
 179 325 179 325 179 245 c 0,30,31
 179 154 179 154 216 109.5 c 128,-1,32
 253 65 253 65 310 65 c 0,33,34
 327 65 327 65 344.5 66.5 c 128,-1,35
 362 68 362 68 383 74 c 1,36,-1
 498 226 l 1,37,-1
 556 226 l 1,0,-1
EndSplineSet
EndChar

StartChar: D
Encoding: 68 68 39
Width: 703
Flags: W
LayerCount: 2
Fore
SplineSet
-23 51 m 1,0,-1
 68 73 l 1,1,-1
 208 627 l 1,2,-1
 127 649 l 1,3,-1
 140 700 l 1,4,-1
 386 700 l 2,5,6
 539 700 539 700 610.5 634 c 128,-1,7
 682 568 682 568 682 453 c 0,8,9
 682 343 682 343 645 258.5 c 128,-1,10
 608 174 608 174 544 116.5 c 128,-1,11
 480 59 480 59 394.5 29.5 c 128,-1,12
 309 0 309 0 212 0 c 2,13,-1
 -34 0 l 1,14,-1
 -23 51 l 1,0,-1
225 72 m 2,15,16
 288 72 288 72 346.5 99.5 c 128,-1,17
 405 127 405 127 450 177.5 c 128,-1,18
 495 228 495 228 522 299 c 128,-1,19
 549 370 549 370 549 457 c 256,20,21
 549 544 549 544 500 586 c 128,-1,22
 451 628 451 628 369 628 c 2,23,-1
 338 628 l 1,24,-1
 199 72 l 1,25,-1
 225 72 l 2,15,16
EndSplineSet
EndChar

StartChar: E
Encoding: 69 69 40
Width: 591
Flags: W
LayerCount: 2
Fore
SplineSet
280 391 m 1,0,-1
 463 411 l 1,1,-1
 439 307 l 1,2,-1
 263 325 l 1,3,-1
 200 72 l 1,4,-1
 365 72 l 1,5,-1
 474 216 l 1,6,-1
 532 216 l 1,7,-1
 451 0 l 1,8,-1
 -35 0 l 1,9,-1
 -24 49 l 1,10,-1
 70 73 l 1,11,-1
 208 627 l 1,12,-1
 128 650 l 1,13,-1
 140 700 l 1,14,-1
 625 700 l 1,15,-1
 574 495 l 1,16,-1
 517 495 l 1,17,-1
 510 628 l 1,18,-1
 338 628 l 1,19,-1
 280 391 l 1,0,-1
EndSplineSet
EndChar

StartChar: F
Encoding: 70 70 41
Width: 549
Flags: W
LayerCount: 2
Fore
SplineSet
338 628 m 1,0,-1
 278 391 l 1,1,-1
 467 412 l 1,2,-1
 441 306 l 1,3,-1
 263 325 l 1,4,-1
 200 73 l 1,5,-1
 301 51 l 1,6,-1
 289 0 l 1,7,-1
 -35 0 l 1,8,-1
 -22 51 l 1,9,-1
 70 73 l 1,10,-1
 208 627 l 1,11,-1
 126 649 l 1,12,-1
 139 700 l 1,13,-1
 624 700 l 1,14,-1
 573 495 l 1,15,-1
 515 495 l 1,16,-1
 509 628 l 1,17,-1
 338 628 l 1,0,-1
EndSplineSet
EndChar

StartChar: G
Encoding: 71 71 42
Width: 684
Flags: W
LayerCount: 2
Fore
SplineSet
665 286 m 1,0,-1
 585 251 l 1,1,-1
 533 42 l 1,2,3
 488 21 488 21 434 7 c 128,-1,4
 380 -7 380 -7 314 -7 c 0,5,6
 258 -7 258 -7 209 7 c 128,-1,7
 160 21 160 21 124 50.5 c 128,-1,8
 88 80 88 80 67 126 c 128,-1,9
 46 172 46 172 46 236 c 0,10,11
 46 332 46 332 78 418 c 128,-1,12
 110 504 110 504 168.5 568.5 c 128,-1,13
 227 633 227 633 309.5 670.5 c 128,-1,14
 392 708 392 708 492 708 c 0,15,16
 535 708 535 708 582.5 698.5 c 128,-1,17
 630 689 630 689 678 669 c 1,18,-1
 632 484 l 1,19,-1
 574 484 l 1,20,-1
 567 637 l 1,21,22
 537 643 537 643 500 643 c 0,23,24
 427 643 427 643 368.5 609.5 c 128,-1,25
 310 576 310 576 268.5 520 c 128,-1,26
 227 464 227 464 204.5 392 c 128,-1,27
 182 320 182 320 182 242 c 0,28,29
 182 197 182 197 195 163 c 128,-1,30
 208 129 208 129 230.5 106.5 c 128,-1,31
 253 84 253 84 284 72.5 c 128,-1,32
 315 61 315 61 351 61 c 0,33,34
 384 61 384 61 410 67 c 1,35,-1
 456 252 l 1,36,-1
 358 286 l 1,37,-1
 367 327 l 1,38,-1
 674 327 l 1,39,-1
 665 286 l 1,0,-1
EndSplineSet
EndChar

StartChar: H
Encoding: 72 72 43
Width: 770
Flags: W
LayerCount: 2
Fore
SplineSet
660 0 m 1,0,-1
 357 0 l 1,1,-1
 371 51 l 1,2,-1
 460 72 l 1,3,-1
 523 323 l 1,4,-1
 262 323 l 1,5,-1
 200 73 l 1,6,-1
 284 51 l 1,7,-1
 271 0 l 1,8,-1
 -35 0 l 1,9,-1
 -21 51 l 1,10,-1
 69 72 l 1,11,-1
 208 626 l 1,12,-1
 126 649 l 1,13,-1
 139 700 l 1,14,-1
 444 700 l 1,15,-1
 432 649 l 1,16,-1
 339 627 l 1,17,-1
 278 385 l 1,18,-1
 538 385 l 1,19,-1
 599 626 l 1,20,-1
 519 649 l 1,21,-1
 531 700 l 1,22,-1
 833 700 l 1,23,-1
 821 649 l 1,24,-1
 729 628 l 1,25,-1
 590 73 l 1,26,-1
 673 51 l 1,27,-1
 660 0 l 1,0,-1
EndSplineSet
EndChar

StartChar: I
Encoding: 73 73 44
Width: 379
Flags: W
LayerCount: 2
Fore
SplineSet
269 0 m 1,0,-1
 -35 0 l 1,1,-1
 -22 51 l 1,2,-1
 70 73 l 1,3,-1
 207 627 l 1,4,-1
 126 649 l 1,5,-1
 139 700 l 1,6,-1
 443 700 l 1,7,-1
 430 649 l 1,8,-1
 337 627 l 1,9,-1
 200 73 l 1,10,-1
 282 51 l 1,11,-1
 269 0 l 1,0,-1
EndSplineSet
EndChar

StartChar: J
Encoding: 74 74 45
Width: 359
Flags: W
LayerCount: 2
Fore
SplineSet
422 649 m 1,0,-1
 331 628 l 1,1,-1
 212 150 l 2,2,3
 197 92 197 92 167.5 43.5 c 128,-1,4
 138 -5 138 -5 99.5 -44 c 128,-1,5
 61 -83 61 -83 18 -112 c 128,-1,6
 -25 -141 -25 -141 -66 -159 c 1,7,-1
 -86 -106 l 1,8,9
 -58 -87 -58 -87 -33 -64 c 128,-1,10
 -8 -41 -8 -41 13 -11 c 128,-1,11
 34 19 34 19 51 58 c 128,-1,12
 68 97 68 97 81 150 c 2,13,-1
 200 626 l 1,14,-1
 119 649 l 1,15,-1
 133 700 l 1,16,-1
 435 700 l 1,17,-1
 422 649 l 1,0,-1
EndSplineSet
EndChar

StartChar: K
Encoding: 75 75 46
Width: 685
Flags: W
LayerCount: 2
Fore
SplineSet
-21 51 m 1,0,-1
 70 73 l 1,1,-1
 208 627 l 1,2,-1
 127 649 l 1,3,-1
 139 700 l 1,4,-1
 444 700 l 1,5,-1
 431 649 l 1,6,-1
 338 626 l 1,7,-1
 201 72 l 1,8,-1
 283 51 l 1,9,-1
 270 0 l 1,10,-1
 -34 0 l 1,11,-1
 -21 51 l 1,0,-1
544 628 m 1,12,-1
 487 649 l 1,13,-1
 499 700 l 1,14,-1
 757 700 l 1,15,-1
 744 649 l 1,16,-1
 658 629 l 1,17,-1
 419 384 l 1,18,-1
 467 259 l 2,19,20
 491 198 491 198 507 162 c 128,-1,21
 523 126 523 126 540 105 c 128,-1,22
 557 84 557 84 578.5 73 c 128,-1,23
 600 62 600 62 635 51 c 1,24,-1
 621 -7 l 1,25,26
 562 -7 562 -7 520 5 c 128,-1,27
 478 17 478 17 447 44 c 128,-1,28
 416 71 416 71 392.5 114.5 c 128,-1,29
 369 158 369 158 346 221 c 2,30,-1
 294 364 l 1,31,-1
 544 628 l 1,12,-1
EndSplineSet
EndChar

StartChar: L
Encoding: 76 76 47
Width: 561
Flags: W
LayerCount: 2
Fore
SplineSet
531 216 m 1,0,-1
 450 0 l 1,1,-1
 -35 0 l 1,2,-1
 -22 51 l 1,3,-1
 70 73 l 1,4,-1
 208 626 l 1,5,-1
 126 649 l 1,6,-1
 139 700 l 1,7,-1
 443 700 l 1,8,-1
 431 649 l 1,9,-1
 338 626 l 1,10,-1
 199 72 l 1,11,-1
 370 72 l 1,12,-1
 473 216 l 1,13,-1
 531 216 l 1,0,-1
EndSplineSet
EndChar

StartChar: M
Encoding: 77 77 48
Width: 944
Flags: W
LayerCount: 2
Fore
SplineSet
161 700 m 1,0,-1
 367 700 l 1,1,-1
 443 194 l 1,2,-1
 764 700 l 1,3,-1
 986 700 l 1,4,-1
 973 649 l 1,5,-1
 885 629 l 1,6,-1
 776 73 l 1,7,-1
 863 51 l 1,8,-1
 849 0 l 1,9,-1
 546 0 l 1,10,-1
 559 51 l 1,11,-1
 646 72 l 1,12,-1
 736 523 l 1,13,-1
 399 -5 l 1,14,-1
 346 -5 l 1,15,-1
 266 524 l 1,16,-1
 132 72 l 1,17,-1
 211 51 l 1,18,-1
 198 0 l 1,19,-1
 -51 0 l 1,20,-1
 -38 51 l 1,21,-1
 58 75 l 1,22,-1
 226 628 l 1,23,-1
 148 649 l 1,24,-1
 161 700 l 1,0,-1
EndSplineSet
EndChar

StartChar: N
Encoding: 78 78 49
Width: 720
Flags: W
LayerCount: 2
Fore
SplineSet
783 649 m 1,0,-1
 689 627 l 1,1,-1
 534 0 l 1,2,-1
 487 0 l 1,3,-1
 250 503 l 1,4,-1
 143 72 l 1,5,-1
 224 51 l 1,6,-1
 212 0 l 1,7,-1
 -35 0 l 1,8,-1
 -23 51 l 1,9,-1
 69 73 l 1,10,-1
 207 626 l 1,11,-1
 127 649 l 1,12,-1
 139 700 l 1,13,-1
 296 700 l 1,14,-1
 517 231 l 1,15,-1
 615 627 l 1,16,-1
 535 649 l 1,17,-1
 548 700 l 1,18,-1
 795 700 l 1,19,-1
 783 649 l 1,0,-1
EndSplineSet
EndChar

StartChar: O
Encoding: 79 79 50
Width: 731
Flags: W
LayerCount: 2
Fore
SplineSet
299 -7 m 0,0,1
 236 -7 236 -7 188 10.5 c 128,-1,2
 140 28 140 28 108.5 59.5 c 128,-1,3
 77 91 77 91 61 135 c 128,-1,4
 45 179 45 179 45 233 c 0,5,6
 45 324 45 324 74.5 409.5 c 128,-1,7
 104 495 104 495 158.5 561.5 c 128,-1,8
 213 628 213 628 290 668 c 128,-1,9
 367 708 367 708 461 708 c 0,10,11
 524 708 524 708 571.5 690.5 c 128,-1,12
 619 673 619 673 650.5 641 c 128,-1,13
 682 609 682 609 698 565 c 128,-1,14
 714 521 714 521 714 467 c 0,15,16
 714 376 714 376 684.5 290.5 c 128,-1,17
 655 205 655 205 601 139 c 128,-1,18
 547 73 547 73 470.5 33 c 128,-1,19
 394 -7 394 -7 299 -7 c 0,0,1
307 57 m 0,20,21
 353 57 353 57 391 75.5 c 128,-1,22
 429 94 429 94 459 126 c 128,-1,23
 489 158 489 158 511.5 200 c 128,-1,24
 534 242 534 242 548.5 289 c 128,-1,25
 563 336 563 336 570.5 384 c 128,-1,26
 578 432 578 432 578 477 c 0,27,28
 578 513 578 513 570.5 543.5 c 128,-1,29
 563 574 563 574 547.5 596.5 c 128,-1,30
 532 619 532 619 508 631.5 c 128,-1,31
 484 644 484 644 451 644 c 0,32,33
 383 644 383 644 332.5 603 c 128,-1,34
 282 562 282 562 248.5 499.5 c 128,-1,35
 215 437 215 437 198.5 363 c 128,-1,36
 182 289 182 289 182 223 c 0,37,38
 182 187 182 187 189 156.5 c 128,-1,39
 196 126 196 126 211 104 c 128,-1,40
 226 82 226 82 250 69.5 c 128,-1,41
 274 57 274 57 307 57 c 0,20,21
EndSplineSet
EndChar

StartChar: P
Encoding: 80 80 51
Width: 596
Flags: W
LayerCount: 2
Fore
SplineSet
-22 51 m 1,0,-1
 70 73 l 1,1,-1
 209 627 l 1,2,-1
 127 649 l 1,3,-1
 140 700 l 1,4,-1
 407 700 l 2,5,6
 504 700 504 700 562.5 657 c 128,-1,7
 621 614 621 614 621 526 c 0,8,9
 621 462 621 462 598 412 c 128,-1,10
 575 362 575 362 534.5 328 c 128,-1,11
 494 294 494 294 439 276.5 c 128,-1,12
 384 259 384 259 320 259 c 0,13,14
 301 259 301 259 282.5 260.5 c 128,-1,15
 264 262 264 262 248 264 c 1,16,-1
 199 70 l 1,17,-1
 310 51 l 1,18,-1
 297 0 l 1,19,-1
 -35 0 l 1,20,-1
 -22 51 l 1,0,-1
340 632 m 1,21,-1
 265 330 l 1,22,23
 273 329 273 329 280.5 329 c 128,-1,24
 288 329 288 329 297 329 c 0,25,26
 340 329 340 329 375 343.5 c 128,-1,27
 410 358 410 358 435 384 c 128,-1,28
 460 410 460 410 473 445.5 c 128,-1,29
 486 481 486 481 486 522 c 0,30,31
 486 575 486 575 457 603.5 c 128,-1,32
 428 632 428 632 365 632 c 2,33,-1
 340 632 l 1,21,-1
EndSplineSet
EndChar

StartChar: Q
Encoding: 81 81 52
Width: 732
Flags: W
LayerCount: 2
Fore
SplineSet
627 -210 m 0,0,1
 595 -210 595 -210 567.5 -197 c 128,-1,2
 540 -184 540 -184 514.5 -164 c 128,-1,3
 489 -144 489 -144 463.5 -119.5 c 128,-1,4
 438 -95 438 -95 411.5 -72.5 c 128,-1,5
 385 -50 385 -50 356 -32 c 128,-1,6
 327 -14 327 -14 294 -7 c 1,7,8
 232 -6 232 -6 185.5 11.5 c 128,-1,9
 139 29 139 29 108 60.5 c 128,-1,10
 77 92 77 92 61.5 136 c 128,-1,11
 46 180 46 180 46 233 c 0,12,13
 46 324 46 324 75.5 409.5 c 128,-1,14
 105 495 105 495 159.5 561.5 c 128,-1,15
 214 628 214 628 291 668 c 128,-1,16
 368 708 368 708 462 708 c 0,17,18
 525 708 525 708 572.5 690.5 c 128,-1,19
 620 673 620 673 651.5 641 c 128,-1,20
 683 609 683 609 699 565 c 128,-1,21
 715 521 715 521 715 467 c 0,22,23
 715 387 715 387 692 311 c 128,-1,24
 669 235 669 235 626.5 172.5 c 128,-1,25
 584 110 584 110 523.5 65 c 128,-1,26
 463 20 463 20 387 3 c 1,27,-1
 415 -5 l 2,28,29
 446 -14 446 -14 475 -29.5 c 128,-1,30
 504 -45 504 -45 532 -60 c 128,-1,31
 560 -75 560 -75 587 -86 c 128,-1,32
 614 -97 614 -97 642 -97 c 0,33,34
 693 -97 693 -97 748 -45 c 1,35,-1
 788 -68 l 1,36,37
 750 -143 750 -143 712.5 -176.5 c 128,-1,38
 675 -210 675 -210 627 -210 c 0,0,1
308 57 m 0,39,40
 354 57 354 57 392 75.5 c 128,-1,41
 430 94 430 94 460 126 c 128,-1,42
 490 158 490 158 512.5 200 c 128,-1,43
 535 242 535 242 549.5 289 c 128,-1,44
 564 336 564 336 571.5 384 c 128,-1,45
 579 432 579 432 579 477 c 0,46,47
 579 513 579 513 571.5 543.5 c 128,-1,48
 564 574 564 574 548.5 596.5 c 128,-1,49
 533 619 533 619 509 631.5 c 128,-1,50
 485 644 485 644 452 644 c 0,51,52
 384 644 384 644 333.5 603 c 128,-1,53
 283 562 283 562 249.5 499.5 c 128,-1,54
 216 437 216 437 199.5 363 c 128,-1,55
 183 289 183 289 183 223 c 0,56,57
 183 187 183 187 190 156.5 c 128,-1,58
 197 126 197 126 212 104 c 128,-1,59
 227 82 227 82 251 69.5 c 128,-1,60
 275 57 275 57 308 57 c 0,39,40
EndSplineSet
EndChar

StartChar: R
Encoding: 82 82 53
Width: 650
Flags: W
LayerCount: 2
Fore
SplineSet
621 543 m 0,0,1
 621 495 621 495 606 457.5 c 128,-1,2
 591 420 591 420 565.5 393 c 128,-1,3
 540 366 540 366 505 349.5 c 128,-1,4
 470 333 470 333 430 328 c 1,5,-1
 458 232 l 2,6,7
 468 196 468 196 479 166 c 128,-1,8
 490 136 490 136 506 111.5 c 128,-1,9
 522 87 522 87 545.5 69 c 128,-1,10
 569 51 569 51 604 40 c 1,11,-1
 592 -7 l 1,12,13
 532 -6 532 -6 489.5 10 c 128,-1,14
 447 26 447 26 417.5 53 c 128,-1,15
 388 80 388 80 369 116.5 c 128,-1,16
 350 153 350 153 337 197 c 2,17,-1
 303 306 l 1,18,-1
 258 306 l 1,19,-1
 200 73 l 1,20,-1
 282 51 l 1,21,-1
 270 0 l 1,22,-1
 -35 0 l 1,23,-1
 -22 51 l 1,24,-1
 70 73 l 1,25,-1
 209 626 l 1,26,-1
 127 649 l 1,27,-1
 139 700 l 1,28,-1
 406 700 l 2,29,30
 507 700 507 700 564 663.5 c 128,-1,31
 621 627 621 627 621 543 c 0,0,1
304 371 m 2,32,33
 337 371 337 371 369.5 381.5 c 128,-1,34
 402 392 402 392 428 413 c 128,-1,35
 454 434 454 434 470 466 c 128,-1,36
 486 498 486 498 486 541 c 0,37,38
 486 589 486 589 457.5 610.5 c 128,-1,39
 429 632 429 632 379 632 c 2,40,-1
 340 632 l 1,41,-1
 274 371 l 1,42,-1
 304 371 l 2,32,33
EndSplineSet
EndChar

StartChar: S
Encoding: 83 83 54
Width: 554
Flags: W
LayerCount: 2
Fore
SplineSet
53 224 m 1,0,-1
 102 224 l 1,1,-1
 102 71 l 1,2,3
 122 65 122 65 145.5 61 c 128,-1,4
 169 57 169 57 194 57 c 0,5,6
 266 57 266 57 309 84 c 128,-1,7
 352 111 352 111 352 167 c 0,8,9
 352 200 352 200 334 225.5 c 128,-1,10
 316 251 316 251 289 274 c 128,-1,11
 262 297 262 297 230 320 c 128,-1,12
 198 343 198 343 171 370.5 c 128,-1,13
 144 398 144 398 126 432.5 c 128,-1,14
 108 467 108 467 108 514 c 0,15,16
 108 562 108 562 128.5 598.5 c 128,-1,17
 149 635 149 635 184 659 c 128,-1,18
 219 683 219 683 266 695.5 c 128,-1,19
 313 708 313 708 367 708 c 0,20,21
 426 708 426 708 475.5 699 c 128,-1,22
 525 690 525 690 557 676 c 1,23,-1
 502 492 l 1,24,-1
 454 492 l 1,25,-1
 454 636 l 1,26,27
 436 639 436 639 418.5 641 c 128,-1,28
 401 643 401 643 382 643 c 0,29,30
 357 643 357 643 331.5 638 c 128,-1,31
 306 633 306 633 285.5 621 c 128,-1,32
 265 609 265 609 252 589 c 128,-1,33
 239 569 239 569 239 539 c 0,34,35
 239 511 239 511 257.5 487 c 128,-1,36
 276 463 276 463 304.5 439 c 128,-1,37
 333 415 333 415 365.5 390 c 128,-1,38
 398 365 398 365 426.5 335 c 128,-1,39
 455 305 455 305 473.5 269 c 128,-1,40
 492 233 492 233 492 187 c 0,41,42
 492 143 492 143 476 107.5 c 128,-1,43
 460 72 460 72 425.5 46.5 c 128,-1,44
 391 21 391 21 338 7 c 128,-1,45
 285 -7 285 -7 211 -7 c 0,46,47
 161 -7 161 -7 102.5 4.5 c 128,-1,48
 44 16 44 16 -3 40 c 1,49,-1
 53 224 l 1,0,-1
EndSplineSet
EndChar

StartChar: T
Encoding: 84 84 55
Width: 589
Flags: W
LayerCount: 2
Fore
SplineSet
73 488 m 1,0,-1
 126 700 l 1,1,-1
 666 700 l 1,2,-1
 613 488 l 1,3,-1
 565 488 l 1,4,-1
 560 628 l 1,5,-1
 443 628 l 1,6,-1
 304 73 l 1,7,-1
 386 51 l 1,8,-1
 373 0 l 1,9,-1
 71 0 l 1,10,-1
 83 51 l 1,11,-1
 175 73 l 1,12,-1
 314 628 l 1,13,-1
 197 628 l 1,14,-1
 122 488 l 1,15,-1
 73 488 l 1,0,-1
EndSplineSet
EndChar

StartChar: U
Encoding: 85 85 56
Width: 731
Flags: W
LayerCount: 2
Fore
SplineSet
802 649 m 1,0,-1
 709 628 l 1,1,-1
 620 269 l 2,2,3
 585 129 585 129 505 61 c 128,-1,4
 425 -7 425 -7 304 -7 c 0,5,6
 200 -7 200 -7 142.5 36 c 128,-1,7
 85 79 85 79 85 169 c 0,8,9
 85 210 85 210 100 269 c 2,10,-1
 188 627 l 1,11,-1
 108 649 l 1,12,-1
 121 700 l 1,13,-1
 425 700 l 1,14,-1
 412 649 l 1,15,-1
 319 627 l 1,16,-1
 229 269 l 2,17,18
 223 244 223 244 219.5 223 c 128,-1,19
 216 202 216 202 216 184 c 0,20,21
 216 162 216 162 223.5 142 c 128,-1,22
 231 122 231 122 246.5 107 c 128,-1,23
 262 92 262 92 285.5 83.5 c 128,-1,24
 309 75 309 75 341 75 c 0,25,26
 417 75 417 75 470.5 128 c 128,-1,27
 524 181 524 181 546 269 c 2,28,-1
 635 627 l 1,29,-1
 556 649 l 1,30,-1
 568 700 l 1,31,-1
 815 700 l 1,32,-1
 802 649 l 1,0,-1
EndSplineSet
EndChar

StartChar: V
Encoding: 86 86 57
Width: 659
Flags: W
LayerCount: 2
Fore
SplineSet
750 649 m 1,0,-1
 655 627 l 1,1,-1
 303 -7 l 1,2,-1
 211 -7 l 1,3,-1
 162 626 l 1,4,-1
 80 649 l 1,5,-1
 93 700 l 1,6,-1
 376 700 l 1,7,-1
 363 649 l 1,8,-1
 290 632 l 1,9,-1
 324 182 l 1,10,-1
 571 628 l 1,11,-1
 503 649 l 1,12,-1
 517 700 l 1,13,-1
 763 700 l 1,14,-1
 750 649 l 1,0,-1
EndSplineSet
EndChar

StartChar: W
Encoding: 87 87 58
Width: 960
Flags: W
LayerCount: 2
Fore
SplineSet
92 700 m 1,0,-1
 377 700 l 1,1,-1
 364 649 l 1,2,-1
 286 631 l 1,3,-1
 305 206 l 1,4,-1
 556 700 l 1,5,-1
 639 700 l 1,6,-1
 666 211 l 1,7,-1
 870 629 l 1,8,-1
 800 649 l 1,9,-1
 813 700 l 1,10,-1
 1059 700 l 1,11,-1
 1047 649 l 1,12,-1
 952 627 l 1,13,-1
 642 -7 l 1,14,-1
 551 -7 l 1,15,-1
 524 476 l 1,16,-1
 280 -7 l 1,17,-1
 189 -7 l 1,18,-1
 160 627 l 1,19,-1
 80 649 l 1,20,-1
 92 700 l 1,0,-1
EndSplineSet
EndChar

StartChar: X
Encoding: 88 88 59
Width: 668
Flags: W
LayerCount: 2
Fore
SplineSet
322 634 m 1,0,-1
 390 444 l 1,1,-1
 551 631 l 1,2,-1
 484 649 l 1,3,-1
 496 700 l 1,4,-1
 759 700 l 1,5,-1
 748 649 l 1,6,-1
 645 625 l 1,7,-1
 417 366 l 1,8,-1
 520 73 l 1,9,-1
 606 51 l 1,10,-1
 594 0 l 1,11,-1
 318 0 l 1,12,-1
 330 51 l 1,13,-1
 388 65 l 1,14,-1
 314 277 l 1,15,-1
 132 69 l 1,16,-1
 199 51 l 1,17,-1
 187 0 l 1,18,-1
 -76 0 l 1,19,-1
 -64 51 l 1,20,-1
 36 75 l 1,21,-1
 287 355 l 1,22,-1
 192 624 l 1,23,-1
 106 649 l 1,24,-1
 118 700 l 1,25,-1
 393 700 l 1,26,-1
 381 649 l 1,27,-1
 322 634 l 1,0,-1
EndSplineSet
EndChar

StartChar: Y
Encoding: 89 89 60
Width: 627
Flags: W
LayerCount: 2
Fore
SplineSet
481 700 m 1,0,-1
 727 700 l 1,1,-1
 713 649 l 1,2,-1
 630 624 l 1,3,-1
 392 326 l 1,4,-1
 329 73 l 1,5,-1
 417 51 l 1,6,-1
 405 0 l 1,7,-1
 102 0 l 1,8,-1
 114 51 l 1,9,-1
 199 73 l 1,10,-1
 261 326 l 1,11,-1
 155 627 l 1,12,-1
 74 649 l 1,13,-1
 87 700 l 1,14,-1
 358 700 l 1,15,-1
 346 649 l 1,16,-1
 285 637 l 1,17,-1
 364 408 l 1,18,-1
 539 630 l 1,19,-1
 468 649 l 1,20,-1
 481 700 l 1,0,-1
EndSplineSet
EndChar

StartChar: Z
Encoding: 90 90 61
Width: 613
Flags: W
LayerCount: 2
Fore
SplineSet
109 495 m 1,0,-1
 160 700 l 1,1,-1
 655 700 l 1,2,-1
 640 638 l 1,3,-1
 152 72 l 1,4,-1
 409 72 l 1,5,-1
 510 216 l 1,6,-1
 559 216 l 1,7,-1
 478 0 l 1,8,-1
 -37 0 l 1,9,-1
 -22 62 l 1,10,-1
 465 628 l 1,11,-1
 227 628 l 1,12,-1
 157 495 l 1,13,-1
 109 495 l 1,0,-1
EndSplineSet
EndChar

StartChar: bracketleft
Encoding: 91 91 62
Width: 334
Flags: W
LayerCount: 2
Fore
SplineSet
428 760 m 1,0,-1
 415 703 l 1,1,-1
 299 703 l 1,2,-1
 106 -71 l 1,3,-1
 222 -71 l 1,4,-1
 208 -128 l 1,5,-1
 -16 -128 l 1,6,-1
 205 760 l 1,7,-1
 428 760 l 1,0,-1
EndSplineSet
EndChar

StartChar: backslash
Encoding: 92 92 63
Width: 363
Flags: W
LayerCount: 2
Fore
SplineSet
156 760 m 1,0,-1
 221 760 l 1,1,-1
 221 -121 l 1,2,-1
 156 -121 l 1,3,-1
 156 760 l 1,0,-1
EndSplineSet
EndChar

StartChar: bracketright
Encoding: 93 93 64
Width: 335
Flags: W
LayerCount: 2
Fore
SplineSet
-82 -128 m 1,0,-1
 -69 -71 l 1,1,-1
 47 -71 l 1,2,-1
 240 703 l 1,3,-1
 124 703 l 1,4,-1
 138 760 l 1,5,-1
 362 760 l 1,6,-1
 141 -128 l 1,7,-1
 -82 -128 l 1,0,-1
EndSplineSet
EndChar

StartChar: asciicircum
Encoding: 94 94 65
Width: 559
Flags: W
LayerCount: 2
Fore
SplineSet
413 715 m 1,0,-1
 463 715 l 1,1,-1
 550 267 l 1,2,-1
 473 267 l 1,3,-1
 413 604 l 1,4,-1
 187 267 l 1,5,-1
 104 267 l 1,6,-1
 413 715 l 1,0,-1
EndSplineSet
EndChar

StartChar: underscore
Encoding: 95 95 66
Width: 763
Flags: W
LayerCount: 2
Fore
SplineSet
510 -142 m 1,0,-1
 51 -142 l 1,1,-1
 51 -71 l 1,2,-1
 510 -71 l 1,3,-1
 510 -142 l 1,0,-1
EndSplineSet
EndChar

StartChar: grave
Encoding: 96 96 67
Width: 221
Flags: W
LayerCount: 2
Fore
SplineSet
152 602 m 1,0,-1
 95 574 l 1,1,-1
 -41 746 l 1,2,3
 -12 771 -12 771 18.5 782 c 128,-1,4
 49 793 49 793 73 796 c 1,5,-1
 152 602 l 1,0,-1
EndSplineSet
EndChar

StartChar: a
Encoding: 97 97 68
Width: 584
Flags: W
LayerCount: 2
Fore
SplineSet
303 83 m 1,0,1
 266 41 266 41 222 17 c 128,-1,2
 178 -7 178 -7 133 -7 c 0,3,4
 81 -7 81 -7 49 29 c 128,-1,5
 17 65 17 65 17 137 c 0,6,7
 17 217 17 217 43 284.5 c 128,-1,8
 69 352 69 352 113.5 401.5 c 128,-1,9
 158 451 158 451 218.5 479 c 128,-1,10
 279 507 279 507 348 507 c 0,11,12
 402 507 402 507 447 494 c 128,-1,13
 492 481 492 481 528 461 c 1,14,-1
 429 79 l 1,15,-1
 527 79 l 1,16,-1
 527 37 l 1,17,18
 505 31 505 31 483 25 c 0,19,20
 464 20 464 20 443.5 14.5 c 128,-1,21
 423 9 423 9 406 5 c 0,22,23
 401 3 401 3 391 1 c 128,-1,24
 381 -1 381 -1 369.5 -2.5 c 128,-1,25
 358 -4 358 -4 347 -5.5 c 128,-1,26
 336 -7 336 -7 329 -7 c 0,27,28
 292 -7 292 -7 292 26 c 0,29,30
 292 30 292 30 292.5 38.5 c 128,-1,31
 293 47 293 47 298 64 c 2,32,-1
 303 83 l 1,0,1
192 72 m 0,33,34
 210 72 210 72 229 82 c 128,-1,35
 248 92 248 92 266.5 109 c 128,-1,36
 285 126 285 126 301.5 147 c 128,-1,37
 318 168 318 168 331 191 c 1,38,-1
 399 448 l 1,39,40
 384 453 384 453 355 453 c 0,41,42
 314 453 314 453 276.5 426 c 128,-1,43
 239 399 239 399 211 355.5 c 128,-1,44
 183 312 183 312 166.5 257.5 c 128,-1,45
 150 203 150 203 150 147 c 0,46,47
 150 106 150 106 161 89 c 128,-1,48
 172 72 172 72 192 72 c 0,33,34
EndSplineSet
EndChar

StartChar: b
Encoding: 98 98 69
Width: 558
Flags: W
LayerCount: 2
Fore
SplineSet
234 417 m 1,0,1
 271 459 271 459 315 483 c 128,-1,2
 359 507 359 507 404 507 c 0,3,4
 456 507 456 507 488 471 c 128,-1,5
 520 435 520 435 520 363 c 0,6,7
 520 283 520 283 494 215.5 c 128,-1,8
 468 148 468 148 423.5 98.5 c 128,-1,9
 379 49 379 49 318.5 21 c 128,-1,10
 258 -7 258 -7 189 -7 c 0,11,12
 135 -7 135 -7 89.5 6 c 128,-1,13
 44 19 44 19 8 39 c 1,14,-1
 185 722 l 1,15,-1
 88 722 l 1,16,-1
 88 763 l 1,17,18
 111 769 111 769 135 775 c 0,19,20
 155 780 155 780 177.5 786 c 128,-1,21
 200 792 200 792 218 797 c 0,22,23
 221 798 221 798 228.5 799.5 c 128,-1,24
 236 801 236 801 245 802.5 c 128,-1,25
 254 804 254 804 263.5 805.5 c 128,-1,26
 273 807 273 807 280 807 c 0,27,28
 303 807 303 807 312.5 798 c 128,-1,29
 322 789 322 789 322 774 c 0,30,31
 322 771 322 771 321 762 c 128,-1,32
 320 753 320 753 316 736 c 2,33,-1
 234 417 l 1,0,1
345 428 m 0,34,35
 327 428 327 428 308 418 c 128,-1,36
 289 408 289 408 270.5 391 c 128,-1,37
 252 374 252 374 235.5 352.5 c 128,-1,38
 219 331 219 331 206 309 c 1,39,-1
 138 52 l 1,40,41
 153 47 153 47 182 47 c 0,42,43
 223 47 223 47 260.5 74 c 128,-1,44
 298 101 298 101 326 144.5 c 128,-1,45
 354 188 354 188 370.5 242.5 c 128,-1,46
 387 297 387 297 387 353 c 0,47,48
 387 394 387 394 376 411 c 128,-1,49
 365 428 365 428 345 428 c 0,34,35
EndSplineSet
EndChar

StartChar: c
Encoding: 99 99 70
Width: 468
Flags: W
LayerCount: 2
Fore
SplineSet
358 339 m 1,0,1
 353 368 353 368 350 389 c 128,-1,2
 347 410 347 410 344 426 c 0,3,4
 341 446 341 446 333.5 451.5 c 128,-1,5
 326 457 326 457 315 457 c 0,6,7
 288 457 288 457 259.5 437.5 c 128,-1,8
 231 418 231 418 207.5 381.5 c 128,-1,9
 184 345 184 345 169 293.5 c 128,-1,10
 154 242 154 242 154 178 c 0,11,12
 154 157 154 157 157.5 135 c 128,-1,13
 161 113 161 113 171.5 95 c 128,-1,14
 182 77 182 77 201.5 65.5 c 128,-1,15
 221 54 221 54 254 54 c 0,16,17
 280 54 280 54 311.5 61 c 128,-1,18
 343 68 343 68 375 81 c 1,19,-1
 388 42 l 1,20,21
 368 32 368 32 348 23 c 128,-1,22
 328 14 328 14 305.5 7.5 c 128,-1,23
 283 1 283 1 256.5 -3 c 128,-1,24
 230 -7 230 -7 197 -7 c 0,25,26
 114 -7 114 -7 65.5 38 c 128,-1,27
 17 83 17 83 17 170 c 0,28,29
 17 229 17 229 38.5 289 c 128,-1,30
 60 349 60 349 100.5 397.5 c 128,-1,31
 141 446 141 446 200.5 476.5 c 128,-1,32
 260 507 260 507 335 507 c 0,33,34
 394 507 394 507 431.5 485.5 c 128,-1,35
 469 464 469 464 469 426 c 0,36,37
 469 385 469 385 436.5 362 c 128,-1,38
 404 339 404 339 358 339 c 1,0,1
EndSplineSet
EndChar

StartChar: d
Encoding: 100 100 71
Width: 582
Flags: W
LayerCount: 2
Fore
SplineSet
302 84 m 1,0,1
 266 42 266 42 222 17.5 c 128,-1,2
 178 -7 178 -7 127 -7 c 0,3,4
 106 -7 106 -7 86.5 0.5 c 128,-1,5
 67 8 67 8 51.5 25.5 c 128,-1,6
 36 43 36 43 26.5 70.5 c 128,-1,7
 17 98 17 98 17 137 c 0,8,9
 17 220 17 220 44 288.5 c 128,-1,10
 71 357 71 357 116.5 405.5 c 128,-1,11
 162 454 162 454 221.5 480.5 c 128,-1,12
 281 507 281 507 347 507 c 0,13,14
 381 507 381 507 407 501 c 1,15,-1
 460 721 l 1,16,-1
 364 721 l 1,17,-1
 364 763 l 1,18,19
 383 768 383 768 402 773 c 0,20,21
 419 778 419 778 437.5 782.5 c 128,-1,22
 456 787 456 787 473 792 c 0,23,24
 479 793 479 793 490 796 c 128,-1,25
 501 799 501 799 512.5 801 c 128,-1,26
 524 803 524 803 535.5 805 c 128,-1,27
 547 807 547 807 555 807 c 0,28,29
 572 807 572 807 585 800.5 c 128,-1,30
 598 794 598 794 598 777 c 0,31,32
 598 768 598 768 595 754.5 c 128,-1,33
 592 741 592 741 587 721 c 2,34,-1
 429 79 l 1,35,-1
 523 79 l 1,36,-1
 523 37 l 1,37,38
 508 32 508 32 490 28 c 0,39,40
 475 24 475 24 456.5 19 c 128,-1,41
 438 14 438 14 420 10 c 0,42,43
 392 3 392 3 367 -2 c 128,-1,44
 342 -7 342 -7 329 -7 c 0,45,46
 312 -7 312 -7 301.5 0 c 128,-1,47
 291 7 291 7 291 24 c 0,48,49
 291 34 291 34 292.5 44 c 128,-1,50
 294 54 294 54 299 69 c 1,51,-1
 302 84 l 1,0,1
190 72 m 0,52,53
 209 72 209 72 228 81.5 c 128,-1,54
 247 91 247 91 265 107.5 c 128,-1,55
 283 124 283 124 300 146.5 c 128,-1,56
 317 169 317 169 331 194 c 1,57,-1
 394 449 l 1,58,59
 386 451 386 451 376 452 c 128,-1,60
 366 453 366 453 357 453 c 0,61,62
 310 453 310 453 272 423.5 c 128,-1,63
 234 394 234 394 206.5 349 c 128,-1,64
 179 304 179 304 164 252 c 128,-1,65
 149 200 149 200 149 155 c 256,66,67
 149 110 149 110 159 91 c 128,-1,68
 169 72 169 72 190 72 c 0,52,53
EndSplineSet
EndChar

StartChar: e
Encoding: 101 101 72
Width: 481
Flags: W
LayerCount: 2
Fore
SplineSet
473 407 m 0,0,1
 473 364 473 364 449.5 329.5 c 128,-1,2
 426 295 426 295 383.5 268 c 128,-1,3
 341 241 341 241 281.5 222.5 c 128,-1,4
 222 204 222 204 150 192 c 1,5,6
 149 187 149 187 149.5 182 c 128,-1,7
 150 177 150 177 150 172 c 0,8,9
 150 120 150 120 173 87 c 128,-1,10
 196 54 196 54 245 54 c 0,11,12
 274 54 274 54 306 61 c 128,-1,13
 338 68 338 68 370 79 c 1,14,-1
 383 41 l 1,15,16
 352 24 352 24 305.5 8.5 c 128,-1,17
 259 -7 259 -7 192 -7 c 0,18,19
 109 -7 109 -7 62.5 36 c 128,-1,20
 16 79 16 79 16 162 c 0,21,22
 16 225 16 225 37 286.5 c 128,-1,23
 58 348 58 348 99 397 c 128,-1,24
 140 446 140 446 200 476.5 c 128,-1,25
 260 507 260 507 338 507 c 0,26,27
 373 507 373 507 398.5 499 c 128,-1,28
 424 491 424 491 440.5 477.5 c 128,-1,29
 457 464 457 464 465 445.5 c 128,-1,30
 473 427 473 427 473 407 c 0,0,1
307 457 m 0,31,32
 283 457 283 457 259 441 c 128,-1,33
 235 425 235 425 214 396.5 c 128,-1,34
 193 368 193 368 177.5 329.5 c 128,-1,35
 162 291 162 291 155 246 c 1,36,37
 191 260 191 260 225.5 277.5 c 128,-1,38
 260 295 260 295 286.5 316 c 128,-1,39
 313 337 313 337 329.5 362.5 c 128,-1,40
 346 388 346 388 346 417 c 0,41,42
 346 438 346 438 335 447.5 c 128,-1,43
 324 457 324 457 307 457 c 0,31,32
EndSplineSet
EndChar

StartChar: f
Encoding: 102 102 73
Width: 371
Flags: W
LayerCount: 2
Fore
SplineSet
275 500 m 1,0,-1
 421 512 l 1,1,-1
 404 444 l 1,2,-1
 262 444 l 1,3,-1
 138 -68 l 2,4,5
 121 -138 121 -138 92.5 -184 c 128,-1,6
 64 -230 64 -230 27 -257.5 c 128,-1,7
 -10 -285 -10 -285 -53.5 -296.5 c 128,-1,8
 -97 -308 -97 -308 -143 -308 c 0,9,10
 -178 -308 -178 -308 -208 -302.5 c 128,-1,11
 -238 -297 -238 -297 -259.5 -286.5 c 128,-1,12
 -281 -276 -281 -276 -293.5 -259.5 c 128,-1,13
 -306 -243 -306 -243 -306 -221 c 0,14,15
 -306 -185 -306 -185 -281.5 -158.5 c 128,-1,16
 -257 -132 -257 -132 -215 -111 c 1,17,18
 -205 -140 -205 -140 -196 -165.5 c 128,-1,19
 -187 -191 -187 -191 -177 -209.5 c 128,-1,20
 -167 -228 -167 -228 -154 -239 c 128,-1,21
 -141 -250 -141 -250 -121 -250 c 0,22,23
 -81 -250 -81 -250 -45.5 -206 c 128,-1,24
 -10 -162 -10 -162 13 -66 c 2,25,-1
 137 444 l 1,26,-1
 62 444 l 1,27,-1
 74 487 l 1,28,-1
 149 493 l 1,29,-1
 168 573 l 2,30,31
 183 639 183 639 211 684 c 128,-1,32
 239 729 239 729 277 756.5 c 128,-1,33
 315 784 315 784 361.5 795.5 c 128,-1,34
 408 807 408 807 461 807 c 0,35,36
 551 807 551 807 591.5 782.5 c 128,-1,37
 632 758 632 758 632 719 c 0,38,39
 632 687 632 687 606.5 657.5 c 128,-1,40
 581 628 581 628 542 610 c 1,41,42
 531 640 531 640 521.5 665.5 c 128,-1,43
 512 691 512 691 500.5 709.5 c 128,-1,44
 489 728 489 728 474 739 c 128,-1,45
 459 750 459 750 437 750 c 0,46,47
 421 750 421 750 401.5 744 c 128,-1,48
 382 738 382 738 362 717 c 128,-1,49
 342 696 342 696 322.5 656 c 128,-1,50
 303 616 303 616 287 548 c 2,51,-1
 275 500 l 1,0,-1
EndSplineSet
EndChar

StartChar: g
Encoding: 103 103 74
Width: 556
Flags: W
LayerCount: 2
Fore
SplineSet
110 -308 m 0,0,1
 75 -308 75 -308 45.5 -302.5 c 128,-1,2
 16 -297 16 -297 -6 -286 c 128,-1,3
 -28 -275 -28 -275 -40 -258.5 c 128,-1,4
 -52 -242 -52 -242 -52 -219 c 0,5,6
 -52 -190 -52 -190 -31 -162 c 128,-1,7
 -10 -134 -10 -134 39 -111 c 1,8,9
 49 -143 49 -143 58.5 -168.5 c 128,-1,10
 68 -194 68 -194 78 -212 c 128,-1,11
 88 -230 88 -230 100.5 -240 c 128,-1,12
 113 -250 113 -250 131 -250 c 0,13,14
 143 -250 143 -250 159.5 -245.5 c 128,-1,15
 176 -241 176 -241 195.5 -221 c 128,-1,16
 215 -201 215 -201 235 -159.5 c 128,-1,17
 255 -118 255 -118 273 -43 c 2,18,-1
 305 86 l 1,19,20
 267 43 267 43 226 18 c 128,-1,21
 185 -7 185 -7 129 -7 c 0,22,23
 107 -7 107 -7 87 0.5 c 128,-1,24
 67 8 67 8 51.5 25.5 c 128,-1,25
 36 43 36 43 26.5 70.5 c 128,-1,26
 17 98 17 98 17 137 c 0,27,28
 17 218 17 218 43 285.5 c 128,-1,29
 69 353 69 353 114 402.5 c 128,-1,30
 159 452 159 452 219 479.5 c 128,-1,31
 279 507 279 507 347 507 c 0,32,33
 389 507 389 507 434.5 497 c 128,-1,34
 480 487 480 487 525 461 c 1,35,-1
 392 -68 l 2,36,37
 374 -142 374 -142 343.5 -188.5 c 128,-1,38
 313 -235 313 -235 275.5 -261.5 c 128,-1,39
 238 -288 238 -288 195.5 -298 c 128,-1,40
 153 -308 153 -308 110 -308 c 0,0,1
191 72 m 0,41,42
 210 72 210 72 228.5 82 c 128,-1,43
 247 92 247 92 265 109 c 128,-1,44
 283 126 283 126 300 148.5 c 128,-1,45
 317 171 317 171 333 196 c 1,46,-1
 396 449 l 1,47,48
 390 451 390 451 380 452 c 128,-1,49
 370 453 370 453 359 453 c 0,50,51
 309 453 309 453 270 422 c 128,-1,52
 231 391 231 391 204 346 c 128,-1,53
 177 301 177 301 162.5 249 c 128,-1,54
 148 197 148 197 148 155 c 256,55,56
 148 113 148 113 157.5 92.5 c 128,-1,57
 167 72 167 72 191 72 c 0,41,42
EndSplineSet
EndChar

StartChar: h
Encoding: 104 104 75
Width: 585
Flags: W
LayerCount: 2
Fore
SplineSet
301 62 m 0,0,1
 324 151 324 151 340.5 208.5 c 128,-1,2
 357 266 357 266 367.5 301.5 c 128,-1,3
 378 337 378 337 383 357 c 128,-1,4
 388 377 388 377 388 391 c 0,5,6
 388 417 388 417 366 417 c 0,7,8
 339 417 339 417 294.5 382.5 c 128,-1,9
 250 348 250 348 202 285 c 1,10,-1
 131 0 l 1,11,-1
 3 -7 l 1,12,-1
 185 722 l 1,13,-1
 88 722 l 1,14,-1
 88 763 l 1,15,16
 111 769 111 769 133 775 c 0,17,18
 152 780 152 780 173 785 c 128,-1,19
 194 790 194 790 211 794 c 0,20,21
 232 799 232 799 252.5 803 c 128,-1,22
 273 807 273 807 286 807 c 0,23,24
 302 807 302 807 311.5 800.5 c 128,-1,25
 321 794 321 794 321 777 c 0,26,27
 321 773 321 773 320.5 763.5 c 128,-1,28
 320 754 320 754 315 737 c 2,29,-1
 228 390 l 1,30,31
 271 441 271 441 319 474 c 128,-1,32
 367 507 367 507 421 507 c 0,33,34
 469 507 469 507 490.5 480 c 128,-1,35
 512 453 512 453 512 411 c 0,36,37
 512 383 512 383 504.5 346 c 128,-1,38
 497 309 497 309 479 247 c 2,39,-1
 432 80 l 1,40,-1
 529 80 l 1,41,-1
 529 37 l 1,42,43
 505 30 505 30 483 25 c 0,44,45
 463 20 463 20 442.5 15 c 128,-1,46
 422 10 422 10 405 6 c 0,47,48
 384 1 384 1 362.5 -3 c 128,-1,49
 341 -7 341 -7 327 -7 c 0,50,51
 311 -7 311 -7 301.5 -0.5 c 128,-1,52
 292 6 292 6 292 22 c 0,53,54
 292 31 292 31 295 41.5 c 128,-1,55
 298 52 298 52 301 62 c 0,0,1
EndSplineSet
EndChar

StartChar: i
Encoding: 105 105 76
Width: 332
Flags: W
LayerCount: 2
Fore
SplineSet
135 421 m 1,0,-1
 37 421 l 1,1,-1
 37 463 l 1,2,-1
 118 486 l 2,3,4
 158 497 158 497 181.5 502 c 128,-1,5
 205 507 205 507 222 507 c 0,6,7
 270 507 270 507 270 472 c 0,8,9
 270 461 270 461 267.5 449 c 128,-1,10
 265 437 265 437 260 419 c 2,11,-1
 175 78 l 1,12,-1
 273 78 l 1,13,-1
 273 37 l 1,14,15
 258 32 258 32 241 27 c 0,16,17
 227 22 227 22 209.5 17.5 c 128,-1,18
 192 13 192 13 176 8 c 0,19,20
 170 6 170 6 159 3.5 c 128,-1,21
 148 1 148 1 135 -1 c 128,-1,22
 122 -3 122 -3 109 -5 c 128,-1,23
 96 -7 96 -7 86 -7 c 0,24,25
 68 -7 68 -7 54.5 0 c 128,-1,26
 41 7 41 7 41 32 c 0,27,28
 41 42 41 42 43 53 c 128,-1,29
 45 64 45 64 49 80 c 2,30,-1
 135 421 l 1,0,-1
171 649 m 0,31,32
 171 685 171 685 196 709.5 c 128,-1,33
 221 734 221 734 256 734 c 0,34,35
 292 734 292 734 316.5 709.5 c 128,-1,36
 341 685 341 685 341 649 c 0,37,38
 341 614 341 614 316.5 589 c 128,-1,39
 292 564 292 564 256 564 c 0,40,41
 221 564 221 564 196 589 c 128,-1,42
 171 614 171 614 171 649 c 0,31,32
EndSplineSet
EndChar

StartChar: j
Encoding: 106 106 77
Width: 318
Flags: W
LayerCount: 2
Fore
SplineSet
-132 -308 m 0,0,1
 -167 -308 -167 -308 -196.5 -302.5 c 128,-1,2
 -226 -297 -226 -297 -248 -286 c 128,-1,3
 -270 -275 -270 -275 -282 -259 c 128,-1,4
 -294 -243 -294 -243 -294 -221 c 0,5,6
 -294 -189 -294 -189 -273 -161.5 c 128,-1,7
 -252 -134 -252 -134 -203 -111 c 1,8,9
 -193 -138 -193 -138 -184.5 -163 c 128,-1,10
 -176 -188 -176 -188 -166 -207.5 c 128,-1,11
 -156 -227 -156 -227 -143.5 -238.5 c 128,-1,12
 -131 -250 -131 -250 -113 -250 c 0,13,14
 -100 -250 -100 -250 -81.5 -242.5 c 128,-1,15
 -63 -235 -63 -235 -42.5 -212.5 c 128,-1,16
 -22 -190 -22 -190 -2.5 -149.5 c 128,-1,17
 17 -109 17 -109 33 -43 c 2,18,-1
 146 422 l 1,19,-1
 49 422 l 1,20,-1
 49 463 l 1,21,-1
 131 487 l 2,22,23
 161 495 161 495 189 501 c 128,-1,24
 217 507 217 507 237 507 c 256,25,26
 257 507 257 507 269 499 c 128,-1,27
 281 491 281 491 281 469 c 0,28,29
 281 465 281 465 279.5 452.5 c 128,-1,30
 278 440 278 440 273 422 c 2,31,-1
 153 -68 l 2,32,33
 136 -138 136 -138 105 -184 c 128,-1,34
 74 -230 74 -230 36 -257.5 c 128,-1,35
 -2 -285 -2 -285 -45.5 -296.5 c 128,-1,36
 -89 -308 -89 -308 -132 -308 c 0,0,1
174 649 m 0,37,38
 174 685 174 685 199 709.5 c 128,-1,39
 224 734 224 734 259 734 c 0,40,41
 295 734 295 734 319.5 709.5 c 128,-1,42
 344 685 344 685 344 649 c 0,43,44
 344 614 344 614 319.5 589 c 128,-1,45
 295 564 295 564 259 564 c 0,46,47
 224 564 224 564 199 589 c 128,-1,48
 174 614 174 614 174 649 c 0,37,38
EndSplineSet
EndChar

StartChar: k
Encoding: 107 107 78
Width: 542
Flags: W
LayerCount: 2
Fore
SplineSet
3 -7 m 1,0,-1
 185 721 l 1,1,-1
 88 721 l 1,2,-1
 88 763 l 1,3,4
 102 768 102 768 118 772 c 0,5,6
 132 776 132 776 148 780.5 c 128,-1,7
 164 785 164 785 180 790 c 0,8,9
 186 791 186 791 197 794 c 128,-1,10
 208 797 208 797 221.5 800 c 128,-1,11
 235 803 235 803 249 805 c 128,-1,12
 263 807 263 807 275 807 c 0,13,14
 293 807 293 807 306 799 c 128,-1,15
 319 791 319 791 319 771 c 0,16,17
 319 763 319 763 317.5 751 c 128,-1,18
 316 739 316 739 311 721 c 2,19,-1
 131 0 l 1,20,-1
 3 -7 l 1,0,-1
349 479 m 1,21,22
 360 487 360 487 372 493 c 0,23,24
 383 498 383 498 396 502.5 c 128,-1,25
 409 507 409 507 425 507 c 0,26,27
 459 507 459 507 478.5 487 c 128,-1,28
 498 467 498 467 498 439 c 0,29,30
 498 386 498 386 456 344.5 c 128,-1,31
 414 303 414 303 346 262 c 1,32,-1
 376 190 l 2,33,34
 393 149 393 149 405.5 122.5 c 128,-1,35
 418 96 418 96 430.5 79 c 128,-1,36
 443 62 443 62 457 51.5 c 128,-1,37
 471 41 471 41 490 33 c 1,38,-1
 477 -7 l 1,39,40
 441 -7 441 -7 412 -4 c 128,-1,41
 383 -1 383 -1 359 10.5 c 128,-1,42
 335 22 335 22 315.5 44 c 128,-1,43
 296 66 296 66 280 104 c 2,44,-1
 214 260 l 1,45,46
 264 283 264 283 297 303 c 128,-1,47
 330 323 330 323 349.5 341 c 128,-1,48
 369 359 369 359 377 374.5 c 128,-1,49
 385 390 385 390 385 403 c 0,50,51
 385 422 385 422 374 440.5 c 128,-1,52
 363 459 363 459 349 479 c 1,21,22
EndSplineSet
EndChar

StartChar: l
Encoding: 108 108 79
Width: 314
Flags: W
LayerCount: 2
Fore
SplineSet
191 721 m 1,0,-1
 94 721 l 1,1,-1
 94 763 l 1,2,-1
 175 786 l 2,3,4
 214 797 214 797 238 802 c 128,-1,5
 262 807 262 807 279 807 c 0,6,7
 327 807 327 807 327 771 c 0,8,9
 327 761 327 761 324.5 749 c 128,-1,10
 322 737 322 737 317 719 c 2,11,-1
 156 78 l 1,12,-1
 255 78 l 1,13,-1
 255 37 l 1,14,15
 239 32 239 32 222 27 c 0,16,17
 208 22 208 22 190.5 17.5 c 128,-1,18
 173 13 173 13 157 8 c 0,19,20
 152 6 152 6 141 3.5 c 128,-1,21
 130 1 130 1 117 -1 c 128,-1,22
 104 -3 104 -3 91 -5 c 128,-1,23
 78 -7 78 -7 68 -7 c 0,24,25
 50 -7 50 -7 36 0 c 128,-1,26
 22 7 22 7 22 32 c 0,27,28
 22 42 22 42 24.5 53.5 c 128,-1,29
 27 65 27 65 31 80 c 2,30,-1
 191 721 l 1,0,-1
EndSplineSet
EndChar

StartChar: m
Encoding: 109 109 80
Width: 878
Flags: W
LayerCount: 2
Fore
SplineSet
253 397 m 1,0,1
 294 447 294 447 338 477 c 128,-1,2
 382 507 382 507 433 507 c 0,3,4
 478 507 478 507 503.5 483.5 c 128,-1,5
 529 460 529 460 529 407 c 0,6,7
 529 404 529 404 529 400.5 c 128,-1,8
 529 397 529 397 528 394 c 1,9,10
 617 507 617 507 714 507 c 0,11,12
 759 507 759 507 783.5 483.5 c 128,-1,13
 808 460 808 460 808 407 c 0,14,15
 808 386 808 386 800 349 c 128,-1,16
 792 312 792 312 779.5 267 c 128,-1,17
 767 222 767 222 752 173 c 128,-1,18
 737 124 737 124 723 80 c 1,19,-1
 821 80 l 1,20,-1
 821 37 l 1,21,22
 797 30 797 30 775 25 c 0,23,24
 755 20 755 20 734.5 15 c 128,-1,25
 714 10 714 10 697 6 c 0,26,27
 676 1 676 1 653.5 -3 c 128,-1,28
 631 -7 631 -7 618 -7 c 0,29,30
 602 -7 602 -7 592 -0.5 c 128,-1,31
 582 6 582 6 582 22 c 0,32,33
 582 31 582 31 585.5 42.5 c 128,-1,34
 589 54 589 54 592 65 c 0,35,36
 607 116 607 116 622 167.5 c 128,-1,37
 637 219 637 219 650 263 c 128,-1,38
 663 307 663 307 671 340 c 128,-1,39
 679 373 679 373 679 387 c 0,40,41
 679 418 679 418 657 418 c 0,42,43
 633 418 633 418 591 386 c 128,-1,44
 549 354 549 354 507 289 c 1,45,-1
 428 0 l 1,46,-1
 300 -7 l 1,47,-1
 376 273 l 2,48,49
 379 283 379 283 383 298 c 128,-1,50
 387 313 387 313 390.5 329.5 c 128,-1,51
 394 346 394 346 397 361 c 128,-1,52
 400 376 400 376 400 387 c 0,53,54
 400 418 400 418 376 418 c 0,55,56
 354 418 354 418 312.5 388 c 128,-1,57
 271 358 271 358 226 291 c 1,58,-1
 153 0 l 1,59,-1
 25 -7 l 1,60,-1
 133 421 l 1,61,-1
 35 421 l 1,62,-1
 35 463 l 1,63,64
 58 469 58 469 80 475 c 0,65,66
 99 480 99 480 120 485 c 128,-1,67
 141 490 141 490 158 494 c 0,68,69
 179 499 179 499 200.5 503 c 128,-1,70
 222 507 222 507 235 507 c 0,71,72
 251 507 251 507 260.5 500.5 c 128,-1,73
 270 494 270 494 270 477 c 0,74,75
 270 473 270 473 269.5 463.5 c 128,-1,76
 269 454 269 454 264 437 c 2,77,-1
 253 397 l 1,0,1
EndSplineSet
EndChar

StartChar: n
Encoding: 110 110 81
Width: 606
Flags: W
LayerCount: 2
Fore
SplineSet
323 62 m 0,0,1
 346 151 346 151 362.5 208.5 c 128,-1,2
 379 266 379 266 389.5 301.5 c 128,-1,3
 400 337 400 337 404.5 357 c 128,-1,4
 409 377 409 377 409 391 c 0,5,6
 409 417 409 417 388 417 c 0,7,8
 361 417 361 417 316.5 382.5 c 128,-1,9
 272 348 272 348 224 285 c 1,10,-1
 153 0 l 1,11,-1
 25 -7 l 1,12,-1
 132 421 l 1,13,-1
 36 421 l 1,14,-1
 36 463 l 1,15,16
 59 469 59 469 81 475 c 0,17,18
 100 480 100 480 121 485 c 128,-1,19
 142 490 142 490 159 494 c 0,20,21
 180 499 180 499 200.5 503 c 128,-1,22
 221 507 221 507 234 507 c 0,23,24
 250 507 250 507 259.5 500.5 c 128,-1,25
 269 494 269 494 269 477 c 0,26,27
 269 473 269 473 268.5 463 c 128,-1,28
 268 453 268 453 264 437 c 2,29,-1
 251 392 l 1,30,31
 294 443 294 443 342 475 c 128,-1,32
 390 507 390 507 443 507 c 0,33,34
 491 507 491 507 512.5 480 c 128,-1,35
 534 453 534 453 534 411 c 0,36,37
 534 383 534 383 526.5 346 c 128,-1,38
 519 309 519 309 501 247 c 2,39,-1
 453 80 l 1,40,-1
 551 80 l 1,41,-1
 551 37 l 1,42,43
 528 30 528 30 505 25 c 0,44,45
 485 20 485 20 464 15 c 128,-1,46
 443 10 443 10 426 6 c 0,47,48
 405 1 405 1 384 -3 c 128,-1,49
 363 -7 363 -7 349 -7 c 0,50,51
 333 -7 333 -7 323.5 -0.5 c 128,-1,52
 314 6 314 6 314 22 c 0,53,54
 314 31 314 31 317 41.5 c 128,-1,55
 320 52 320 52 323 62 c 0,0,1
EndSplineSet
EndChar

StartChar: o
Encoding: 111 111 82
Width: 551
Flags: W
LayerCount: 2
Fore
SplineSet
209 43 m 0,0,1
 250 43 250 43 281 73 c 128,-1,2
 312 103 312 103 332.5 148 c 128,-1,3
 353 193 353 193 363.5 245 c 128,-1,4
 374 297 374 297 374 341 c 0,5,6
 374 398 374 398 360.5 427.5 c 128,-1,7
 347 457 347 457 318 457 c 0,8,9
 291 457 291 457 268 442.5 c 128,-1,10
 245 428 245 428 226.5 404 c 128,-1,11
 208 380 208 380 194.5 348.5 c 128,-1,12
 181 317 181 317 171.5 284 c 128,-1,13
 162 251 162 251 157.5 218 c 128,-1,14
 153 185 153 185 153 158 c 0,15,16
 153 107 153 107 166 75 c 128,-1,17
 179 43 179 43 209 43 c 0,0,1
197 -7 m 0,18,19
 105 -7 105 -7 61.5 39 c 128,-1,20
 18 85 18 85 18 176 c 0,21,22
 18 238 18 238 41 297.5 c 128,-1,23
 64 357 64 357 105.5 403.5 c 128,-1,24
 147 450 147 450 204 478.5 c 128,-1,25
 261 507 261 507 330 507 c 0,26,27
 415 507 415 507 463 457 c 128,-1,28
 511 407 511 407 511 323 c 0,29,30
 511 261 511 261 489 202 c 128,-1,31
 467 143 467 143 426.5 96.5 c 128,-1,32
 386 50 386 50 327.5 21.5 c 128,-1,33
 269 -7 269 -7 197 -7 c 0,18,19
EndSplineSet
EndChar

StartChar: p
Encoding: 112 112 83
Width: 582
Flags: W
LayerCount: 2
Fore
SplineSet
-50 -300 m 1,0,-1
 133 421 l 1,1,-1
 36 421 l 1,2,-1
 36 463 l 1,3,4
 58 469 58 469 81 475 c 0,5,6
 100 480 100 480 121.5 485 c 128,-1,7
 143 490 143 490 160 494 c 0,8,9
 181 499 181 499 201.5 503 c 128,-1,10
 222 507 222 507 235 507 c 0,11,12
 251 507 251 507 260.5 500.5 c 128,-1,13
 270 494 270 494 270 477 c 0,14,15
 270 473 270 473 269.5 463.5 c 128,-1,16
 269 454 269 454 264 437 c 2,17,-1
 259 416 l 1,18,19
 297 460 297 460 341 483.5 c 128,-1,20
 385 507 385 507 433 507 c 0,21,22
 455 507 455 507 475 499 c 128,-1,23
 495 491 495 491 510.5 474 c 128,-1,24
 526 457 526 457 535.5 429.5 c 128,-1,25
 545 402 545 402 545 363 c 0,26,27
 545 282 545 282 519 214.5 c 128,-1,28
 493 147 493 147 448 97.5 c 128,-1,29
 403 48 403 48 342.5 20.5 c 128,-1,30
 282 -7 282 -7 214 -7 c 0,31,32
 194 -7 194 -7 178.5 -5 c 128,-1,33
 163 -3 163 -3 152 -1 c 1,34,-1
 79 -285 l 1,35,-1
 -50 -300 l 1,0,-1
370 428 m 0,36,37
 335 428 335 428 299.5 394.5 c 128,-1,38
 264 361 264 361 232 310 c 1,39,-1
 165 50 l 1,40,41
 174 48 174 48 183.5 47 c 128,-1,42
 193 46 193 46 204 46 c 0,43,44
 252 46 252 46 291 77 c 128,-1,45
 330 108 330 108 357 153 c 128,-1,46
 384 198 384 198 398.5 249 c 128,-1,47
 413 300 413 300 413 341 c 0,48,49
 413 391 413 391 401 409.5 c 128,-1,50
 389 428 389 428 370 428 c 0,36,37
EndSplineSet
EndChar

StartChar: q
Encoding: 113 113 84
Width: 556
Flags: W
LayerCount: 2
Fore
SplineSet
202 -307 m 1,0,-1
 302 83 l 1,1,2
 264 42 264 42 221.5 17.5 c 128,-1,3
 179 -7 179 -7 134 -7 c 0,4,5
 111 -7 111 -7 90 0 c 128,-1,6
 69 7 69 7 52.5 23.5 c 128,-1,7
 36 40 36 40 26 68 c 128,-1,8
 16 96 16 96 16 137 c 0,9,10
 16 217 16 217 42 284.5 c 128,-1,11
 68 352 68 352 113 401.5 c 128,-1,12
 158 451 158 451 218.5 479 c 128,-1,13
 279 507 279 507 347 507 c 0,14,15
 389 507 389 507 436 497 c 128,-1,16
 483 487 483 487 528 461 c 1,17,-1
 329 -294 l 1,18,-1
 202 -307 l 1,0,-1
191 72 m 0,19,20
 210 72 210 72 229 82.5 c 128,-1,21
 248 93 248 93 266 109.5 c 128,-1,22
 284 126 284 126 300 147.5 c 128,-1,23
 316 169 316 169 330 191 c 1,24,-1
 398 448 l 1,25,26
 380 453 380 453 356 453 c 0,27,28
 310 453 310 453 272 423.5 c 128,-1,29
 234 394 234 394 206.5 349.5 c 128,-1,30
 179 305 179 305 164 253.5 c 128,-1,31
 149 202 149 202 149 159 c 0,32,33
 149 114 149 114 158.5 93 c 128,-1,34
 168 72 168 72 191 72 c 0,19,20
EndSplineSet
EndChar

StartChar: r
Encoding: 114 114 85
Width: 459
Flags: W
LayerCount: 2
Fore
SplineSet
134 422 m 1,0,-1
 37 422 l 1,1,-1
 37 463 l 1,2,3
 48 466 48 466 61 470 c 0,4,5
 72 473 72 473 86 476.5 c 128,-1,6
 100 480 100 480 114 484 c 0,7,8
 152 494 152 494 183.5 500.5 c 128,-1,9
 215 507 215 507 232 507 c 0,10,11
 250 507 250 507 260 501 c 128,-1,12
 270 495 270 495 270 478 c 0,13,14
 270 470 270 470 268 458 c 128,-1,15
 266 446 266 446 260 423 c 2,16,-1
 252 394 l 1,17,18
 289 440 289 440 329 473.5 c 128,-1,19
 369 507 369 507 412 507 c 0,20,21
 447 507 447 507 466.5 488.5 c 128,-1,22
 486 470 486 470 486 443 c 0,23,24
 486 419 486 419 479 402.5 c 128,-1,25
 472 386 472 386 461 370 c 1,26,27
 425 388 425 388 407.5 397 c 128,-1,28
 390 406 390 406 373 406 c 0,29,30
 335 406 335 406 298 370 c 128,-1,31
 261 334 261 334 223 278 c 1,32,-1
 153 0 l 1,33,-1
 26 -7 l 1,34,-1
 134 422 l 1,0,-1
EndSplineSet
EndChar

StartChar: s
Encoding: 115 115 86
Width: 449
Flags: W
LayerCount: 2
Fore
SplineSet
252 106 m 0,0,1
 252 127 252 127 243 143 c 128,-1,2
 234 159 234 159 220 173 c 128,-1,3
 206 187 206 187 188.5 200 c 128,-1,4
 171 213 171 213 153 227 c 0,5,6
 114 258 114 258 92.5 291.5 c 128,-1,7
 71 325 71 325 71 373 c 0,8,9
 71 432 71 432 122 469.5 c 128,-1,10
 173 507 173 507 266 507 c 0,11,12
 345 507 345 507 385.5 482.5 c 128,-1,13
 426 458 426 458 426 424 c 0,14,15
 426 392 426 392 400 372.5 c 128,-1,16
 374 353 374 353 334 347 c 1,17,18
 324 369 324 369 315 388.5 c 128,-1,19
 306 408 306 408 295 422.5 c 128,-1,20
 284 437 284 437 271 445.5 c 128,-1,21
 258 454 258 454 241 454 c 0,22,23
 214 454 214 454 202 437.5 c 128,-1,24
 190 421 190 421 190 401 c 0,25,26
 190 375 190 375 210 352.5 c 128,-1,27
 230 330 230 330 265 303 c 1,28,29
 317 265 317 265 344.5 226.5 c 128,-1,30
 372 188 372 188 372 136 c 0,31,32
 372 102 372 102 356 75.5 c 128,-1,33
 340 49 340 49 312.5 30.5 c 128,-1,34
 285 12 285 12 247 2.5 c 128,-1,35
 209 -7 209 -7 165 -7 c 0,36,37
 78 -7 78 -7 33 18.5 c 128,-1,38
 -12 44 -12 44 -12 84 c 0,39,40
 -12 102 -12 102 -4.5 116 c 128,-1,41
 3 130 3 130 15.5 141 c 128,-1,42
 28 152 28 152 43.5 161.5 c 128,-1,43
 59 171 59 171 75 179 c 1,44,45
 85 152 85 152 95 128 c 128,-1,46
 105 104 105 104 118 85 c 128,-1,47
 131 66 131 66 147.5 55 c 128,-1,48
 164 44 164 44 188 44 c 0,49,50
 216 44 216 44 234 62 c 128,-1,51
 252 80 252 80 252 106 c 0,0,1
EndSplineSet
EndChar

StartChar: t
Encoding: 116 116 87
Width: 378
Flags: W
LayerCount: 2
Fore
SplineSet
63 484 m 1,0,-1
 148 491 l 1,1,-1
 171 576 l 1,2,-1
 300 591 l 1,3,-1
 276 498 l 1,4,-1
 406 509 l 1,5,-1
 392 445 l 1,6,-1
 263 445 l 1,7,-1
 182 119 l 2,8,9
 181 115 181 115 180.5 112 c 128,-1,10
 180 109 180 109 180 106 c 0,11,12
 180 95 180 95 186 90.5 c 128,-1,13
 192 86 192 86 200 86 c 0,14,15
 205 86 205 86 212 87 c 128,-1,16
 219 88 219 88 231 91.5 c 128,-1,17
 243 95 243 95 262.5 101.5 c 128,-1,18
 282 108 282 108 313 118 c 1,19,-1
 325 78 l 1,20,21
 306 68 306 68 279 53.5 c 128,-1,22
 252 39 252 39 222 25.5 c 128,-1,23
 192 12 192 12 160.5 2.5 c 128,-1,24
 129 -7 129 -7 101 -7 c 0,25,26
 68 -7 68 -7 55.5 10 c 128,-1,27
 43 27 43 27 43 53 c 0,28,29
 43 70 43 70 49 90 c 1,30,-1
 136 445 l 1,31,-1
 55 445 l 1,32,-1
 63 484 l 1,0,-1
EndSplineSet
EndChar

StartChar: u
Encoding: 117 117 88
Width: 607
Flags: W
LayerCount: 2
Fore
SplineSet
261 437 m 0,0,1
 238 348 238 348 221.5 290.5 c 128,-1,2
 205 233 205 233 194.5 197 c 128,-1,3
 184 161 184 161 179.5 141.5 c 128,-1,4
 175 122 175 122 175 107 c 0,5,6
 175 82 175 82 196 82 c 0,7,8
 223 82 223 82 267.5 116.5 c 128,-1,9
 312 151 312 151 359 213 c 1,10,-1
 431 500 l 1,11,-1
 559 507 l 1,12,-1
 452 78 l 1,13,-1
 549 78 l 1,14,-1
 549 37 l 1,15,16
 525 30 525 30 503 25 c 0,17,18
 483 20 483 20 462.5 15 c 128,-1,19
 442 10 442 10 425 6 c 0,20,21
 405 1 405 1 384 -3 c 128,-1,22
 363 -7 363 -7 350 -7 c 0,23,24
 334 -7 334 -7 324.5 -0.5 c 128,-1,25
 315 6 315 6 315 22 c 0,26,27
 315 26 315 26 315.5 36 c 128,-1,28
 316 46 316 46 321 62 c 2,29,-1
 333 107 l 1,30,31
 291 56 291 56 242.5 24.5 c 128,-1,32
 194 -7 194 -7 141 -7 c 0,33,34
 93 -7 93 -7 71.5 19.5 c 128,-1,35
 50 46 50 46 50 88 c 0,36,37
 50 116 50 116 58 153 c 128,-1,38
 66 190 66 190 83 252 c 2,39,-1
 131 420 l 1,40,-1
 33 420 l 1,41,-1
 33 463 l 1,42,43
 56 469 56 469 79 475 c 0,44,45
 99 480 99 480 120 485 c 128,-1,46
 141 490 141 490 158 494 c 0,47,48
 179 499 179 499 200 503 c 128,-1,49
 221 507 221 507 234 507 c 0,50,51
 250 507 250 507 260 500.5 c 128,-1,52
 270 494 270 494 270 477 c 0,53,54
 270 468 270 468 267 458 c 128,-1,55
 264 448 264 448 261 437 c 0,0,1
EndSplineSet
EndChar

StartChar: v
Encoding: 118 118 89
Width: 555
Flags: W
LayerCount: 2
Fore
SplineSet
112 421 m 1,0,-1
 12 421 l 1,1,-1
 12 463 l 1,2,3
 24 467 24 467 36 471 c 0,4,5
 47 474 47 474 60 477.5 c 128,-1,6
 73 481 73 481 86 485 c 0,7,8
 121 496 121 496 141.5 501.5 c 128,-1,9
 162 507 162 507 179 507 c 0,10,11
 197 507 197 507 210.5 498 c 128,-1,12
 224 489 224 489 229 467 c 1,13,-1
 294 98 l 1,14,15
 322 134 322 134 346.5 169.5 c 128,-1,16
 371 205 371 205 389.5 239 c 128,-1,17
 408 273 408 273 418.5 306 c 128,-1,18
 429 339 429 339 429 370 c 0,19,20
 429 385 429 385 424.5 396 c 128,-1,21
 420 407 420 407 411.5 416.5 c 128,-1,22
 403 426 403 426 390 435.5 c 128,-1,23
 377 445 377 445 361 456 c 1,24,25
 380 480 380 480 405 493.5 c 128,-1,26
 430 507 430 507 461 507 c 0,27,28
 490 507 490 507 513 489.5 c 128,-1,29
 536 472 536 472 536 432 c 0,30,31
 536 403 536 403 526 368.5 c 128,-1,32
 516 334 516 334 488.5 284.5 c 128,-1,33
 461 235 461 235 412.5 166 c 128,-1,34
 364 97 364 97 287 0 c 0,35,36
 286 0 286 0 270.5 -1 c 128,-1,37
 255 -2 255 -2 237 -4 c 0,38,39
 215 -6 215 -6 188 -7 c 1,40,-1
 112 421 l 1,0,-1
EndSplineSet
EndChar

StartChar: w
Encoding: 119 119 90
Width: 824
Flags: W
LayerCount: 2
Fore
SplineSet
110 421 m 1,0,-1
 12 421 l 1,1,-1
 12 463 l 1,2,3
 24 467 24 467 36 471 c 0,4,5
 47 474 47 474 60 477.5 c 128,-1,6
 73 481 73 481 86 485 c 0,7,8
 121 496 121 496 141 501.5 c 128,-1,9
 161 507 161 507 177 507 c 0,10,11
 196 507 196 507 210 498 c 128,-1,12
 224 489 224 489 228 467 c 2,13,-1
 290 98 l 1,14,15
 331 152 331 152 362 207 c 128,-1,16
 393 262 393 262 408 324 c 1,17,-1
 378 500 l 1,18,-1
 500 507 l 1,19,-1
 572 99 l 1,20,21
 623 167 623 167 656 235 c 128,-1,22
 689 303 689 303 689 369 c 0,23,24
 689 384 689 384 684.5 395 c 128,-1,25
 680 406 680 406 671.5 416 c 128,-1,26
 663 426 663 426 650 435.5 c 128,-1,27
 637 445 637 445 621 456 c 1,28,29
 646 485 646 485 671 496 c 128,-1,30
 696 507 696 507 719 507 c 0,31,32
 757 507 757 507 776.5 486 c 128,-1,33
 796 465 796 465 796 431 c 0,34,35
 796 404 796 404 787.5 367.5 c 128,-1,36
 779 331 779 331 754.5 280 c 128,-1,37
 730 229 730 229 684.5 160 c 128,-1,38
 639 91 639 91 565 0 c 0,39,40
 564 0 564 0 549 -1 c 128,-1,41
 534 -2 534 -2 515 -4 c 0,42,43
 493 -6 493 -6 466 -7 c 1,44,-1
 427 215 l 1,45,46
 399 167 399 167 363.5 109 c 128,-1,47
 328 51 328 51 287 0 c 0,48,49
 286 0 286 0 270.5 -1 c 128,-1,50
 255 -2 255 -2 236 -4 c 0,51,52
 214 -6 214 -6 186 -7 c 1,53,-1
 110 421 l 1,0,-1
EndSplineSet
EndChar

StartChar: x
Encoding: 120 120 91
Width: 568
Flags: W
LayerCount: 2
Fore
SplineSet
474 404 m 0,0,1
 454 404 454 404 438 396.5 c 128,-1,2
 422 389 422 389 406 373 c 128,-1,3
 390 357 390 357 372.5 333 c 128,-1,4
 355 309 355 309 331 275 c 1,5,-1
 392 79 l 1,6,-1
 496 79 l 1,7,-1
 496 37 l 1,8,9
 484 33 484 33 472 29 c 0,10,11
 461 26 461 26 448 22 c 128,-1,12
 435 18 435 18 422 15 c 1,13,14
 387 4 387 4 367 -1.5 c 128,-1,15
 347 -7 347 -7 331 -7 c 0,16,17
 290 -7 290 -7 278 34 c 2,18,-1
 235 174 l 1,19,20
 169 84 169 84 122.5 38.5 c 128,-1,21
 76 -7 76 -7 37 -7 c 0,22,23
 5 -7 5 -7 -12.5 8.5 c 128,-1,24
 -30 24 -30 24 -30 54 c 0,25,26
 -30 72 -30 72 -25.5 87 c 128,-1,27
 -21 102 -21 102 -16 116 c 1,28,29
 10 108 10 108 30.5 102 c 128,-1,30
 51 96 51 96 67 96 c 0,31,32
 88 96 88 96 104 103.5 c 128,-1,33
 120 111 120 111 136.5 127.5 c 128,-1,34
 153 144 153 144 171.5 170.5 c 128,-1,35
 190 197 190 197 217 234 c 1,36,-1
 160 421 l 1,37,-1
 57 421 l 1,38,-1
 57 463 l 1,39,40
 69 467 69 467 81 471 c 0,41,42
 92 474 92 474 105 477.5 c 128,-1,43
 118 481 118 481 131 485 c 0,44,45
 166 496 166 496 186 501.5 c 128,-1,46
 206 507 206 507 222 507 c 0,47,48
 241 507 241 507 254 498 c 128,-1,49
 267 489 267 489 274 467 c 2,50,-1
 313 336 l 1,51,52
 349 384 349 384 376.5 417 c 128,-1,53
 404 450 404 450 426.5 470 c 128,-1,54
 449 490 449 490 467.5 498.5 c 128,-1,55
 486 507 486 507 505 507 c 0,56,57
 536 507 536 507 553.5 490.5 c 128,-1,58
 571 474 571 474 571 445 c 0,59,60
 571 418 571 418 558 384 c 1,61,62
 532 392 532 392 511.5 398 c 128,-1,63
 491 404 491 404 474 404 c 0,0,1
EndSplineSet
EndChar

StartChar: y
Encoding: 121 121 92
Width: 551
Flags: W
LayerCount: 2
Fore
SplineSet
294 105 m 1,0,1
 358 190 358 190 393.5 255.5 c 128,-1,2
 429 321 429 321 429 370 c 0,3,4
 429 397 429 397 408 417 c 128,-1,5
 387 437 387 437 361 456 c 1,6,7
 378 476 378 476 404.5 491.5 c 128,-1,8
 431 507 431 507 464 507 c 0,9,10
 494 507 494 507 515.5 487.5 c 128,-1,11
 537 468 537 468 537 432 c 0,12,13
 537 403 537 403 526 367.5 c 128,-1,14
 515 332 515 332 489 285.5 c 128,-1,15
 463 239 463 239 421 179.5 c 128,-1,16
 379 120 379 120 316 44 c 0,17,18
 257 -27 257 -27 219.5 -68.5 c 128,-1,19
 182 -110 182 -110 161 -134 c 128,-1,20
 140 -158 140 -158 132.5 -172 c 128,-1,21
 125 -186 125 -186 125 -202 c 0,22,23
 125 -217 125 -217 133.5 -230.5 c 128,-1,24
 142 -244 142 -244 158 -261 c 1,25,26
 144 -277 144 -277 119 -288.5 c 128,-1,27
 94 -300 94 -300 65 -300 c 0,28,29
 37 -300 37 -300 18 -284.5 c 128,-1,30
 -1 -269 -1 -269 -1 -240 c 0,31,32
 -1 -215 -1 -215 15 -191.5 c 128,-1,33
 31 -168 31 -168 57.5 -141.5 c 128,-1,34
 84 -115 84 -115 118.5 -84 c 128,-1,35
 153 -53 153 -53 191 -13 c 1,36,-1
 113 421 l 1,37,-1
 12 421 l 1,38,-1
 12 463 l 1,39,40
 24 467 24 467 36 471 c 0,41,42
 47 474 47 474 60 477.5 c 128,-1,43
 73 481 73 481 86 485 c 0,44,45
 121 496 121 496 141.5 501.5 c 128,-1,46
 162 507 162 507 178 507 c 0,47,48
 197 507 197 507 210.5 498 c 128,-1,49
 224 489 224 489 229 467 c 1,50,-1
 294 105 l 1,0,1
EndSplineSet
EndChar

StartChar: z
Encoding: 122 122 93
Width: 510
Flags: W
LayerCount: 2
Fore
SplineSet
458 -7 m 0,0,1
 458 -42 458 -42 435 -62 c 128,-1,2
 412 -82 412 -82 374 -82 c 2,3,-1
 355 -82 l 2,4,5
 349 -82 349 -82 343 -81 c 1,6,-1
 343 -75 l 2,7,8
 343 -39 343 -39 307.5 -14 c 128,-1,9
 272 11 272 11 191 11 c 0,10,11
 159 11 159 11 116.5 8 c 128,-1,12
 74 5 74 5 28 0 c 1,13,-1
 -3 26 l 1,14,-1
 354 416 l 1,15,16
 308 396 308 396 241 396 c 2,17,-1
 184 396 l 2,18,19
 161 396 161 396 146 394 c 128,-1,20
 131 392 131 392 120 386 c 128,-1,21
 109 380 109 380 100.5 368 c 128,-1,22
 92 356 92 356 83 337 c 1,23,-1
 40 345 l 1,24,25
 52 396 52 396 61 427.5 c 128,-1,26
 70 459 70 459 79 476.5 c 128,-1,27
 88 494 88 494 100 500.5 c 128,-1,28
 112 507 112 507 132 507 c 0,29,30
 150 507 150 507 175.5 506 c 128,-1,31
 201 505 201 505 229 503.5 c 128,-1,32
 257 502 257 502 285 501 c 128,-1,33
 313 500 313 500 336 500 c 0,34,35
 346 500 346 500 362 500.5 c 128,-1,36
 378 501 378 501 396.5 501.5 c 128,-1,37
 415 502 415 502 433 503.5 c 128,-1,38
 451 505 451 505 466 507 c 1,39,-1
 493 478 l 1,40,-1
 118 67 l 1,41,42
 150 73 150 73 193 78.5 c 128,-1,43
 236 84 236 84 284 84 c 0,44,45
 322 84 322 84 354 79 c 128,-1,46
 386 74 386 74 409 63.5 c 128,-1,47
 432 53 432 53 445 35.5 c 128,-1,48
 458 18 458 18 458 -7 c 0,0,1
EndSplineSet
EndChar

StartChar: braceleft
Encoding: 123 123 94
Width: 376
Flags: W
LayerCount: 2
Fore
SplineSet
162 -128 m 2,0,1
 109 -128 109 -128 82.5 -101.5 c 128,-1,2
 56 -75 56 -75 56 -30 c 0,3,4
 56 -8 56 -8 62 16 c 2,5,-1
 105 185 l 2,6,7
 108 196 108 196 109 205.5 c 128,-1,8
 110 215 110 215 110 223 c 0,9,10
 110 262 110 262 84.5 276 c 128,-1,11
 59 290 59 290 20 292 c 1,12,-1
 33 344 l 1,13,14
 57 345 57 345 78.5 350 c 128,-1,15
 100 355 100 355 118 366.5 c 128,-1,16
 136 378 136 378 149 398 c 128,-1,17
 162 418 162 418 170 448 c 2,18,-1
 212 617 l 2,19,20
 229 686 229 686 272.5 723 c 128,-1,21
 316 760 316 760 383 760 c 2,22,-1
 469 760 l 1,23,-1
 456 707 l 1,24,-1
 428 707 l 2,25,26
 386 707 386 707 363 685.5 c 128,-1,27
 340 664 340 664 327 612 c 2,28,-1
 284 441 l 2,29,30
 272 392 272 392 238.5 359.5 c 128,-1,31
 205 327 205 327 150 317 c 1,32,-1
 150 316 l 1,33,34
 228 301 228 301 228 232 c 0,35,36
 228 223 228 223 227 213.5 c 128,-1,37
 226 204 226 204 223 193 c 2,38,-1
 179 20 l 2,39,40
 173 -7 173 -7 173 -24 c 0,41,42
 173 -75 173 -75 233 -75 c 2,43,-1
 261 -75 l 1,44,-1
 248 -128 l 1,45,-1
 162 -128 l 2,0,1
EndSplineSet
EndChar

StartChar: bar
Encoding: 124 124 95
Width: 331
Flags: W
LayerCount: 2
Fore
SplineSet
197 -240 m 1,0,-1
 118 -240 l 1,1,-1
 118 760 l 1,2,-1
 197 760 l 1,3,-1
 197 -240 l 1,0,-1
EndSplineSet
EndChar

StartChar: braceright
Encoding: 125 125 96
Width: 376
Flags: W
LayerCount: 2
Fore
SplineSet
226 760 m 2,0,1
 279 760 279 760 305.5 733.5 c 128,-1,2
 332 707 332 707 332 662 c 0,3,4
 332 640 332 640 326 616 c 2,5,-1
 283 447 l 2,6,7
 280 436 280 436 279 426.5 c 128,-1,8
 278 417 278 417 278 409 c 0,9,10
 278 370 278 370 303.5 355.5 c 128,-1,11
 329 341 329 341 368 339 c 1,12,-1
 355 288 l 1,13,14
 331 287 331 287 309.5 282 c 128,-1,15
 288 277 288 277 270 265.5 c 128,-1,16
 252 254 252 254 238.5 234 c 128,-1,17
 225 214 225 214 218 184 c 2,18,-1
 176 15 l 2,19,20
 159 -54 159 -54 115.5 -91 c 128,-1,21
 72 -128 72 -128 5 -128 c 2,22,-1
 -81 -128 l 1,23,-1
 -68 -75 l 1,24,-1
 -40 -75 l 2,25,26
 2 -75 2 -75 25 -53.5 c 128,-1,27
 48 -32 48 -32 61 20 c 2,28,-1
 104 191 l 2,29,30
 116 240 116 240 149 272.5 c 128,-1,31
 182 305 182 305 238 314 c 1,32,-1
 238 315 l 1,33,34
 160 331 160 331 160 400 c 0,35,36
 160 420 160 420 164 439 c 2,37,-1
 209 612 l 2,38,39
 215 639 215 639 215 656 c 0,40,41
 215 707 215 707 155 707 c 2,42,-1
 127 707 l 1,43,-1
 140 760 l 1,44,-1
 226 760 l 2,0,1
EndSplineSet
EndChar

StartChar: asciitilde
Encoding: 126 126 97
Width: 459
Flags: W
LayerCount: 2
Fore
SplineSet
403 686 m 0,0,1
 427 686 427 686 453.5 692 c 128,-1,2
 480 698 480 698 515 720 c 1,3,-1
 538 687 l 1,4,5
 513 664 513 664 486 646 c 0,6,7
 463 631 463 631 434.5 618.5 c 128,-1,8
 406 606 406 606 377 606 c 0,9,10
 349 606 349 606 332.5 613.5 c 128,-1,11
 316 621 316 621 303 630 c 128,-1,12
 290 639 290 639 277.5 646.5 c 128,-1,13
 265 654 265 654 245 654 c 0,14,15
 228 654 228 654 195.5 645.5 c 128,-1,16
 163 637 163 637 133 620 c 1,17,-1
 110 653 l 1,18,19
 136 675 136 675 164 693 c 0,20,21
 188 708 188 708 216.5 721 c 128,-1,22
 245 734 245 734 272 734 c 256,23,24
 299 734 299 734 316 726.5 c 128,-1,25
 333 719 333 719 346.5 710 c 128,-1,26
 360 701 360 701 372.5 693.5 c 128,-1,27
 385 686 385 686 403 686 c 0,0,1
EndSplineSet
EndChar

StartChar: exclamdown
Encoding: 161 161 99
Width: 283
Flags: W
LayerCount: 2
Fore
SplineSet
90 -200 m 1,0,-1
 -39 -200 l 1,1,-1
 103 292 l 1,2,-1
 192 292 l 1,3,-1
 90 -200 l 1,0,-1
255 421 m 0,4,5
 255 386 255 386 229.5 361 c 128,-1,6
 204 336 204 336 169 336 c 0,7,8
 151 336 151 336 135.5 343 c 128,-1,9
 120 350 120 350 108.5 361.5 c 128,-1,10
 97 373 97 373 90.5 388.5 c 128,-1,11
 84 404 84 404 84 421 c 256,12,13
 84 438 84 438 90.5 453.5 c 128,-1,14
 97 469 97 469 108.5 481 c 128,-1,15
 120 493 120 493 135.5 500 c 128,-1,16
 151 507 151 507 169 507 c 0,17,18
 186 507 186 507 201.5 500 c 128,-1,19
 217 493 217 493 229 481 c 128,-1,20
 241 469 241 469 248 453.5 c 128,-1,21
 255 438 255 438 255 421 c 0,4,5
EndSplineSet
EndChar

StartChar: cent
Encoding: 162 162 100
Width: 504
Flags: W
LayerCount: 2
Fore
SplineSet
371 339 m 1,0,1
 366 368 366 368 363 389 c 128,-1,2
 360 410 360 410 357 426 c 256,3,4
 354 442 354 442 350 447 c 1,5,-1
 252 54 l 1,6,-1
 267 54 l 2,7,8
 293 54 293 54 324.5 61 c 128,-1,9
 356 68 356 68 388 81 c 1,10,-1
 401 42 l 1,11,12
 364 24 364 24 327.5 10.5 c 128,-1,13
 291 -3 291 -3 237 -6 c 1,14,-1
 204 -140 l 1,15,-1
 134 -140 l 1,16,-1
 168 -3 l 1,17,18
 103 7 103 7 66.5 51 c 128,-1,19
 30 95 30 95 30 170 c 0,20,21
 30 223 30 223 47.5 277.5 c 128,-1,22
 65 332 65 332 99 378.5 c 128,-1,23
 133 425 133 425 181.5 458 c 128,-1,24
 230 491 230 491 293 502 c 1,25,-1
 330 648 l 1,26,-1
 400 648 l 1,27,-1
 364 506 l 1,28,29
 416 503 416 503 449 482 c 128,-1,30
 482 461 482 461 482 426 c 0,31,32
 482 385 482 385 449.5 362 c 128,-1,33
 417 339 417 339 371 339 c 1,0,1
167 178 m 0,34,35
 167 154 167 154 171.5 129.5 c 128,-1,36
 176 105 176 105 190 86 c 1,37,-1
 278 441 l 1,38,39
 256 427 256 427 236 403 c 128,-1,40
 216 379 216 379 200.5 345.5 c 128,-1,41
 185 312 185 312 176 269.5 c 128,-1,42
 167 227 167 227 167 178 c 0,34,35
EndSplineSet
EndChar

StartChar: sterling
Encoding: 163 163 101
Width: 600
Flags: W
LayerCount: 2
Fore
SplineSet
70 379 m 1,0,-1
 171 387 l 1,1,2
 163 419 163 419 154 451.5 c 128,-1,3
 145 484 145 484 145 519 c 0,4,5
 145 562 145 562 163.5 597 c 128,-1,6
 182 632 182 632 214.5 656.5 c 128,-1,7
 247 681 247 681 291 694 c 128,-1,8
 335 707 335 707 386 707 c 0,9,10
 431 707 431 707 468.5 699 c 128,-1,11
 506 691 506 691 533.5 676 c 128,-1,12
 561 661 561 661 576 638 c 128,-1,13
 591 615 591 615 591 585 c 0,14,15
 591 547 591 547 562.5 525.5 c 128,-1,16
 534 504 534 504 481 504 c 2,17,-1
 467 504 l 1,18,19
 470 517 470 517 471.5 533 c 128,-1,20
 473 549 473 549 473 560 c 0,21,22
 473 606 473 606 450.5 630.5 c 128,-1,23
 428 655 428 655 389 655 c 0,24,25
 336 655 336 655 306 616 c 128,-1,26
 276 577 276 577 276 509 c 0,27,28
 276 478 276 478 282.5 451.5 c 128,-1,29
 289 425 289 425 295 396 c 1,30,-1
 449 408 l 1,31,-1
 417 326 l 1,32,-1
 303 326 l 1,33,34
 301 268 301 268 273 218 c 128,-1,35
 245 168 245 168 191 116 c 1,36,-1
 421 116 l 1,37,-1
 483 205 l 1,38,-1
 532 205 l 1,39,-1
 461 0 l 1,40,-1
 5 0 l 1,41,-1
 -2 36 l 1,42,43
 30 57 30 57 63 86 c 128,-1,44
 96 115 96 115 122.5 150.5 c 128,-1,45
 149 186 149 186 166 226.5 c 128,-1,46
 183 267 183 267 183 312 c 0,47,48
 183 321 183 321 182 326 c 1,49,-1
 59 326 l 1,50,-1
 70 379 l 1,0,-1
EndSplineSet
EndChar

StartChar: currency
Encoding: 164 164 102
Width: 585
Flags: W
LayerCount: 2
Fore
SplineSet
431 120 m 1,0,-1
 385 181 l 1,1,2
 360 164 360 164 327 153 c 128,-1,3
 294 142 294 142 261 142 c 0,4,5
 231 142 231 142 204 150.5 c 128,-1,6
 177 159 177 159 152 181 c 1,7,8
 134 166 134 166 114 149 c 128,-1,9
 94 132 94 132 76 118 c 1,10,-1
 32 173 l 1,11,-1
 110 239 l 1,12,13
 103 256 103 256 100.5 274 c 128,-1,14
 98 292 98 292 98 309 c 0,15,16
 98 359 98 359 120 406 c 128,-1,17
 142 453 142 453 175 490 c 1,18,19
 164 506 164 506 152 523 c 128,-1,20
 140 540 140 540 129 555 c 1,21,-1
 187 598 l 1,22,-1
 231 536 l 1,23,24
 257 554 257 554 292.5 565.5 c 128,-1,25
 328 577 328 577 364 577 c 0,26,27
 391 577 391 577 418 568.5 c 128,-1,28
 445 560 445 560 468 542 c 1,29,-1
 547 606 l 1,30,-1
 590 550 l 1,31,-1
 512 485 l 1,32,33
 523 452 523 452 523 420 c 0,34,35
 523 394 523 394 516.5 367.5 c 128,-1,36
 510 341 510 341 499 316 c 128,-1,37
 488 291 488 291 473 268.5 c 128,-1,38
 458 246 458 246 441 229 c 1,39,40
 452 213 452 213 464.5 195.5 c 128,-1,41
 477 178 477 178 487 163 c 1,42,-1
 431 120 l 1,0,-1
286 216 m 0,43,44
 316 216 316 216 341 231 c 128,-1,45
 366 246 366 246 384.5 270 c 128,-1,46
 403 294 403 294 413.5 324 c 128,-1,47
 424 354 424 354 424 384 c 0,48,49
 424 408 424 408 418 429 c 128,-1,50
 412 450 412 450 400 465.5 c 128,-1,51
 388 481 388 481 370.5 490.5 c 128,-1,52
 353 500 353 500 329 500 c 0,53,54
 300 500 300 500 274.5 485 c 128,-1,55
 249 470 249 470 230.5 446 c 128,-1,56
 212 422 212 422 201.5 392 c 128,-1,57
 191 362 191 362 191 331 c 0,58,59
 191 280 191 280 215.5 248 c 128,-1,60
 240 216 240 216 286 216 c 0,43,44
EndSplineSet
EndChar

StartChar: yen
Encoding: 165 165 103
Width: 715
Flags: W
LayerCount: 2
Fore
SplineSet
527 700 m 1,0,-1
 772 700 l 1,1,-1
 761 649 l 1,2,-1
 680 626 l 1,3,-1
 477 376 l 1,4,-1
 616 384 l 1,5,-1
 586 307 l 1,6,-1
 423 307 l 1,7,-1
 410 258 l 1,8,-1
 586 268 l 1,9,-1
 557 191 l 1,10,-1
 393 191 l 1,11,-1
 364 73 l 1,12,-1
 452 51 l 1,13,-1
 440 0 l 1,14,-1
 154 0 l 1,15,-1
 166 51 l 1,16,-1
 250 73 l 1,17,-1
 279 191 l 1,18,-1
 135 191 l 1,19,-1
 148 243 l 1,20,-1
 294 251 l 1,21,-1
 308 307 l 1,22,-1
 164 307 l 1,23,-1
 177 359 l 1,24,-1
 290 365 l 1,25,-1
 193 629 l 1,26,-1
 119 649 l 1,27,-1
 131 700 l 1,28,-1
 403 700 l 1,29,-1
 390 649 l 1,30,-1
 326 636 l 1,31,-1
 408 405 l 1,32,-1
 589 629 l 1,33,-1
 515 649 l 1,34,-1
 527 700 l 1,0,-1
EndSplineSet
EndChar

StartChar: brokenbar
Encoding: 166 166 104
Width: 320
Flags: W
LayerCount: 2
Fore
SplineSet
192 360 m 1,0,-1
 113 360 l 1,1,-1
 113 760 l 1,2,-1
 192 760 l 1,3,-1
 192 360 l 1,0,-1
192 -240 m 1,4,-1
 113 -240 l 1,5,-1
 113 160 l 1,6,-1
 192 160 l 1,7,-1
 192 -240 l 1,4,-1
EndSplineSet
EndChar

StartChar: section
Encoding: 167 167 105
Width: 524
Flags: W
LayerCount: 2
Fore
SplineSet
416 89 m 0,0,1
 416 44 416 44 395 11.5 c 128,-1,2
 374 -21 374 -21 339.5 -42 c 128,-1,3
 305 -63 305 -63 261 -73 c 128,-1,4
 217 -83 217 -83 171 -83 c 0,5,6
 120 -83 120 -83 73 -71.5 c 128,-1,7
 26 -60 26 -60 -2 -43 c 1,8,-1
 37 113 l 1,9,-1
 80 113 l 1,10,-1
 88 -9 l 1,11,12
 102 -14 102 -14 120.5 -17.5 c 128,-1,13
 139 -21 139 -21 160 -21 c 0,14,15
 221 -21 221 -21 256 3.5 c 128,-1,16
 291 28 291 28 291 70 c 0,17,18
 291 97 291 97 274.5 117.5 c 128,-1,19
 258 138 258 138 233 155.5 c 128,-1,20
 208 173 208 173 179.5 189.5 c 128,-1,21
 151 206 151 206 126 226 c 128,-1,22
 101 246 101 246 84.5 272 c 128,-1,23
 68 298 68 298 68 334 c 0,24,25
 68 380 68 380 96.5 418.5 c 128,-1,26
 125 457 125 457 179 483 c 1,27,28
 160 500 160 500 148.5 524 c 128,-1,29
 137 548 137 548 137 583 c 0,30,31
 137 624 137 624 155.5 656.5 c 128,-1,32
 174 689 174 689 206.5 712 c 128,-1,33
 239 735 239 735 282 747 c 128,-1,34
 325 759 325 759 375 759 c 0,35,36
 423 759 423 759 460.5 751.5 c 128,-1,37
 498 744 498 744 526 733 c 1,38,-1
 487 576 l 1,39,-1
 444 576 l 1,40,-1
 437 693 l 1,41,42
 423 696 423 696 410.5 698 c 128,-1,43
 398 700 398 700 379 700 c 0,44,45
 355 700 355 700 332.5 695 c 128,-1,46
 310 690 310 690 292 679 c 128,-1,47
 274 668 274 668 263 651.5 c 128,-1,48
 252 635 252 635 252 613 c 0,49,50
 252 586 252 586 269 566.5 c 128,-1,51
 286 547 286 547 311.5 530 c 128,-1,52
 337 513 337 513 367 497 c 128,-1,53
 397 481 397 481 422.5 460 c 128,-1,54
 448 439 448 439 465 411 c 128,-1,55
 482 383 482 383 482 343 c 0,56,57
 482 297 482 297 457 259 c 128,-1,58
 432 221 432 221 371 189 c 1,59,60
 391 169 391 169 403.5 145 c 128,-1,61
 416 121 416 121 416 89 c 0,0,1
183 364 m 256,62,63
 183 341 183 341 195.5 323.5 c 128,-1,64
 208 306 208 306 228 290 c 128,-1,65
 248 274 248 274 272.5 259.5 c 128,-1,66
 297 245 297 245 321 229 c 1,67,68
 357 268 357 268 357 312 c 0,69,70
 357 340 357 340 346 360 c 128,-1,71
 335 380 335 380 317 395 c 128,-1,72
 299 410 299 410 277 422 c 128,-1,73
 255 434 255 434 233 446 c 1,74,75
 204 428 204 428 193.5 407.5 c 128,-1,76
 183 387 183 387 183 364 c 256,62,63
EndSplineSet
EndChar

StartChar: dieresis
Encoding: 168 168 106
Width: 489
Flags: W
LayerCount: 2
Fore
SplineSet
61 681 m 256,0,1
 61 715 61 715 84 737.5 c 128,-1,2
 107 760 107 760 141 760 c 0,3,4
 174 760 174 760 196.5 737.5 c 128,-1,5
 219 715 219 715 219 681 c 256,6,7
 219 647 219 647 196.5 624.5 c 128,-1,8
 174 602 174 602 141 602 c 0,9,10
 107 602 107 602 84 624.5 c 128,-1,11
 61 647 61 647 61 681 c 256,0,1
280 681 m 256,12,13
 280 715 280 715 303.5 737.5 c 128,-1,14
 327 760 327 760 360 760 c 0,15,16
 394 760 394 760 416.5 737.5 c 128,-1,17
 439 715 439 715 439 681 c 256,18,19
 439 647 439 647 416.5 624.5 c 128,-1,20
 394 602 394 602 360 602 c 0,21,22
 327 602 327 602 303.5 624.5 c 128,-1,23
 280 647 280 647 280 681 c 256,12,13
EndSplineSet
EndChar

StartChar: copyright
Encoding: 169 169 107
Width: 871
Flags: W
LayerCount: 2
Fore
SplineSet
77 357 m 256,0,1
 77 435 77 435 106.5 503 c 128,-1,2
 136 571 136 571 186.5 622 c 128,-1,3
 237 673 237 673 305 702.5 c 128,-1,4
 373 732 373 732 451 732 c 256,5,6
 529 732 529 732 597 702.5 c 128,-1,7
 665 673 665 673 716 622 c 128,-1,8
 767 571 767 571 796.5 503 c 128,-1,9
 826 435 826 435 826 357 c 256,10,11
 826 279 826 279 796.5 211 c 128,-1,12
 767 143 767 143 716 92.5 c 128,-1,13
 665 42 665 42 597 12.5 c 128,-1,14
 529 -17 529 -17 451 -17 c 256,15,16
 373 -17 373 -17 305 12.5 c 128,-1,17
 237 42 237 42 186.5 92.5 c 128,-1,18
 136 143 136 143 106.5 211 c 128,-1,19
 77 279 77 279 77 357 c 256,0,1
153 357 m 256,20,21
 153 295 153 295 176 240.5 c 128,-1,22
 199 186 199 186 239.5 145.5 c 128,-1,23
 280 105 280 105 334.5 82 c 128,-1,24
 389 59 389 59 451 59 c 0,25,26
 514 59 514 59 568.5 82 c 128,-1,27
 623 105 623 105 663.5 145.5 c 128,-1,28
 704 186 704 186 727 240.5 c 128,-1,29
 750 295 750 295 750 357 c 256,30,31
 750 419 750 419 727 473.5 c 128,-1,32
 704 528 704 528 663.5 568.5 c 128,-1,33
 623 609 623 609 568.5 632.5 c 128,-1,34
 514 656 514 656 451 656 c 0,35,36
 389 656 389 656 334.5 632.5 c 128,-1,37
 280 609 280 609 239.5 568.5 c 128,-1,38
 199 528 199 528 176 473.5 c 128,-1,39
 153 419 153 419 153 357 c 256,20,21
600 278 m 1,40,-1
 584 163 l 1,41,42
 563 152 563 152 529.5 141.5 c 128,-1,43
 496 131 496 131 461 131 c 0,44,45
 355 131 355 131 296 189.5 c 128,-1,46
 237 248 237 248 237 357 c 0,47,48
 237 465 237 465 297 524 c 128,-1,49
 357 583 357 583 471 583 c 0,50,51
 503 583 503 583 537 575.5 c 128,-1,52
 571 568 571 568 592 558 c 1,53,-1
 592 442 l 1,54,-1
 544 442 l 1,55,-1
 522 520 l 1,56,57
 511 521 511 521 499 522 c 128,-1,58
 487 523 487 523 479 523 c 0,59,60
 413 523 413 523 383.5 481 c 128,-1,61
 354 439 354 439 354 357 c 0,62,63
 354 277 354 277 382 234.5 c 128,-1,64
 410 192 410 192 476 192 c 0,65,66
 483 192 483 192 494 192 c 128,-1,67
 505 192 505 192 513 193 c 1,68,-1
 553 278 l 1,69,-1
 600 278 l 1,40,-1
EndSplineSet
EndChar

StartChar: ordfeminine
Encoding: 170 170 108
Width: 409
Flags: W
LayerCount: 2
Fore
SplineSet
270 445 m 1,0,1
 250 419 250 419 225 403 c 128,-1,2
 200 387 200 387 168 387 c 0,3,4
 128 387 128 387 110 409.5 c 128,-1,5
 92 432 92 432 92 477 c 0,6,7
 92 525 92 525 109 567 c 128,-1,8
 126 609 126 609 155 640.5 c 128,-1,9
 184 672 184 672 222 690 c 128,-1,10
 260 708 260 708 301 708 c 0,11,12
 327 708 327 708 358 702 c 128,-1,13
 389 696 389 696 414 679 c 1,14,-1
 354 446 l 1,15,-1
 413 446 l 1,16,-1
 413 415 l 1,17,18
 403 412 403 412 392 409 c 0,19,20
 383 407 383 407 372 403.5 c 128,-1,21
 361 400 361 400 351 398 c 0,22,23
 331 393 331 393 317 390 c 128,-1,24
 303 387 303 387 286 387 c 0,25,26
 275 387 275 387 268.5 392 c 128,-1,27
 262 397 262 397 262 409 c 0,28,29
 262 411 262 411 263 417 c 128,-1,30
 264 423 264 423 266 431 c 2,31,-1
 270 445 l 1,0,1
210 444 m 0,32,33
 227 444 227 444 249.5 466.5 c 128,-1,34
 272 489 272 489 290 524 c 1,35,-1
 328 667 l 1,36,37
 323 669 323 669 317.5 669.5 c 128,-1,38
 312 670 312 670 306 670 c 0,39,40
 280 670 280 670 258 654.5 c 128,-1,41
 236 639 236 639 220 613.5 c 128,-1,42
 204 588 204 588 195 556 c 128,-1,43
 186 524 186 524 186 491 c 0,44,45
 186 444 186 444 210 444 c 0,32,33
EndSplineSet
EndChar

StartChar: guillemotleft
Encoding: 171 171 109
Width: 477
Flags: W
LayerCount: 2
Fore
SplineSet
44 286 m 1,0,-1
 232 460 l 1,1,-1
 303 460 l 1,2,-1
 160 270 l 1,3,-1
 208 80 l 1,4,-1
 137 80 l 1,5,-1
 35 254 l 1,6,-1
 44 286 l 1,0,-1
224 284 m 1,7,-1
 375 431 l 1,8,-1
 441 431 l 1,9,-1
 337 270 l 1,10,-1
 355 99 l 1,11,-1
 288 99 l 1,12,-1
 218 256 l 1,13,-1
 224 284 l 1,7,-1
EndSplineSet
EndChar

StartChar: logicalnot
Encoding: 172 172 110
Width: 597
Flags: W
LayerCount: 2
Fore
SplineSet
505 397 m 1,0,-1
 505 123 l 1,1,-1
 425 123 l 1,2,-1
 425 318 l 1,3,-1
 69 318 l 1,4,-1
 69 397 l 1,5,-1
 505 397 l 1,0,-1
EndSplineSet
EndChar

StartChar: uni00AD
Encoding: 173 173 111
Width: 403
Flags: W
LayerCount: 2
Fore
SplineSet
63 212 m 1,0,-1
 63 307 l 1,1,-1
 323 307 l 1,2,-1
 323 212 l 1,3,-1
 63 212 l 1,0,-1
EndSplineSet
EndChar

StartChar: registered
Encoding: 174 174 112
Width: 871
Flags: W
LayerCount: 2
Fore
SplineSet
77 357 m 256,0,1
 77 435 77 435 106.5 503 c 128,-1,2
 136 571 136 571 186.5 622 c 128,-1,3
 237 673 237 673 305 702.5 c 128,-1,4
 373 732 373 732 451 732 c 256,5,6
 529 732 529 732 597 702.5 c 128,-1,7
 665 673 665 673 716 622 c 128,-1,8
 767 571 767 571 796.5 503 c 128,-1,9
 826 435 826 435 826 357 c 256,10,11
 826 279 826 279 796.5 211 c 128,-1,12
 767 143 767 143 716 92.5 c 128,-1,13
 665 42 665 42 597 12.5 c 128,-1,14
 529 -17 529 -17 451 -17 c 256,15,16
 373 -17 373 -17 305 12.5 c 128,-1,17
 237 42 237 42 186.5 92.5 c 128,-1,18
 136 143 136 143 106.5 211 c 128,-1,19
 77 279 77 279 77 357 c 256,0,1
153 357 m 256,20,21
 153 295 153 295 176 240.5 c 128,-1,22
 199 186 199 186 239.5 145.5 c 128,-1,23
 280 105 280 105 334.5 82 c 128,-1,24
 389 59 389 59 451 59 c 256,25,26
 513 59 513 59 567.5 82 c 128,-1,27
 622 105 622 105 662.5 145.5 c 128,-1,28
 703 186 703 186 726 240.5 c 128,-1,29
 749 295 749 295 749 357 c 256,30,31
 749 419 749 419 726 473.5 c 128,-1,32
 703 528 703 528 662.5 568.5 c 128,-1,33
 622 609 622 609 567.5 632.5 c 128,-1,34
 513 656 513 656 451 656 c 256,35,36
 389 656 389 656 334.5 632.5 c 128,-1,37
 280 609 280 609 239.5 568.5 c 128,-1,38
 199 528 199 528 176 473.5 c 128,-1,39
 153 419 153 419 153 357 c 256,20,21
648 149 m 1,40,-1
 532 149 l 1,41,-1
 427 328 l 1,42,-1
 399 328 l 1,43,-1
 399 203 l 1,44,-1
 455 190 l 1,45,-1
 455 149 l 1,46,-1
 263 149 l 1,47,-1
 263 190 l 1,48,-1
 312 203 l 1,49,-1
 312 516 l 1,50,-1
 263 529 l 1,51,-1
 263 570 l 1,52,-1
 433 570 l 2,53,54
 518 570 518 570 562.5 542 c 128,-1,55
 607 514 607 514 607 451 c 0,56,57
 607 403 607 403 582 375.5 c 128,-1,58
 557 348 557 348 515 337 c 1,59,60
 537 301 537 301 557.5 270 c 128,-1,61
 578 239 578 239 600 203 c 1,62,-1
 648 189 l 1,63,-1
 648 149 l 1,40,-1
517 451 m 0,64,65
 517 486 517 486 492 501.5 c 128,-1,66
 467 517 467 517 427 517 c 2,67,-1
 399 517 l 1,68,-1
 399 379 l 1,69,-1
 427 379 l 2,70,71
 467 379 467 379 492 396 c 128,-1,72
 517 413 517 413 517 451 c 0,64,65
EndSplineSet
EndChar

StartChar: degree
Encoding: 176 176 114
Width: 382
Flags: W
LayerCount: 2
Fore
SplineSet
108 609 m 256,0,1
 108 641 108 641 120 669 c 128,-1,2
 132 697 132 697 153 718 c 128,-1,3
 174 739 174 739 202 751 c 128,-1,4
 230 763 230 763 262 763 c 256,5,6
 294 763 294 763 322.5 751 c 128,-1,7
 351 739 351 739 372 718 c 128,-1,8
 393 697 393 697 405 669 c 128,-1,9
 417 641 417 641 417 609 c 256,10,11
 417 577 417 577 405 549 c 128,-1,12
 393 521 393 521 372 500 c 128,-1,13
 351 479 351 479 322.5 467 c 128,-1,14
 294 455 294 455 262 455 c 256,15,16
 230 455 230 455 202 467 c 128,-1,17
 174 479 174 479 153 500 c 128,-1,18
 132 521 132 521 120 549 c 128,-1,19
 108 577 108 577 108 609 c 256,0,1
193 609 m 0,20,21
 193 580 193 580 213.5 560 c 128,-1,22
 234 540 234 540 262 540 c 0,23,24
 291 540 291 540 311.5 560 c 128,-1,25
 332 580 332 580 332 609 c 0,26,27
 332 637 332 637 311.5 657.5 c 128,-1,28
 291 678 291 678 262 678 c 0,29,30
 234 678 234 678 213.5 657.5 c 128,-1,31
 193 637 193 637 193 609 c 0,20,21
EndSplineSet
EndChar

StartChar: plusminus
Encoding: 177 177 115
Width: 626
Flags: W
LayerCount: 2
Fore
SplineSet
72 82 m 1,0,-1
 521 82 l 1,1,-1
 521 0 l 1,2,-1
 72 0 l 1,3,-1
 72 82 l 1,0,-1
331 586 m 1,4,-1
 331 398 l 1,5,-1
 521 398 l 1,6,-1
 521 316 l 1,7,-1
 331 316 l 1,8,-1
 331 127 l 1,9,-1
 250 127 l 1,10,-1
 250 316 l 1,11,-1
 72 316 l 1,12,-1
 72 398 l 1,13,-1
 250 398 l 1,14,-1
 250 586 l 1,15,-1
 331 586 l 1,4,-1
EndSplineSet
EndChar

StartChar: twosuperior
Encoding: 178 178 116
Width: 382
Flags: W
LayerCount: 2
Fore
SplineSet
382 616 m 0,0,1
 382 587 382 587 368.5 564 c 128,-1,2
 355 541 355 541 328 514 c 128,-1,3
 301 487 301 487 260.5 452 c 128,-1,4
 220 417 220 417 166 364 c 1,5,-1
 302 364 l 1,6,-1
 337 416 l 1,7,-1
 372 416 l 1,8,-1
 323 283 l 1,9,-1
 57 283 l 1,10,-1
 65 318 l 1,11,12
 125 385 125 385 167.5 431.5 c 128,-1,13
 210 478 210 478 236.5 512 c 128,-1,14
 263 546 263 546 275 571 c 128,-1,15
 287 596 287 596 287 621 c 0,16,17
 287 673 287 673 249 673 c 0,18,19
 229 673 229 673 219 657.5 c 128,-1,20
 209 642 209 642 209 613 c 0,21,22
 209 606 209 606 209.5 593.5 c 128,-1,23
 210 581 210 581 212 570 c 1,24,25
 195 570 195 570 178.5 573.5 c 128,-1,26
 162 577 162 577 149.5 584.5 c 128,-1,27
 137 592 137 592 129.5 603 c 128,-1,28
 122 614 122 614 122 629 c 0,29,30
 122 666 122 666 160.5 687 c 128,-1,31
 199 708 199 708 256 708 c 256,32,33
 313 708 313 708 347.5 684.5 c 128,-1,34
 382 661 382 661 382 616 c 0,0,1
EndSplineSet
EndChar

StartChar: threesuperior
Encoding: 179 179 117
Width: 369
Flags: W
LayerCount: 2
Fore
SplineSet
245 675 m 0,0,1
 222 675 222 675 210.5 657 c 128,-1,2
 199 639 199 639 199 611 c 0,3,4
 199 603 199 603 199.5 590.5 c 128,-1,5
 200 578 200 578 202 570 c 1,6,7
 188 570 188 570 173.5 573 c 128,-1,8
 159 576 159 576 147 582.5 c 128,-1,9
 135 589 135 589 127.5 601 c 128,-1,10
 120 613 120 613 120 631 c 0,11,12
 120 667 120 667 159 687.5 c 128,-1,13
 198 708 198 708 256 708 c 0,14,15
 307 708 307 708 340 687 c 128,-1,16
 373 666 373 666 373 618 c 0,17,18
 373 596 373 596 363 577 c 128,-1,19
 353 558 353 558 336.5 543 c 128,-1,20
 320 528 320 528 299 518 c 128,-1,21
 278 508 278 508 255 504 c 1,22,-1
 255 503 l 1,23,24
 302 499 302 499 329.5 471.5 c 128,-1,25
 357 444 357 444 357 406 c 0,26,27
 357 373 357 373 343.5 348 c 128,-1,28
 330 323 330 323 307 307 c 128,-1,29
 284 291 284 291 254.5 283 c 128,-1,30
 225 275 225 275 194 275 c 0,31,32
 156 275 156 275 124 283.5 c 128,-1,33
 92 292 92 292 60 310 c 1,34,-1
 75 346 l 1,35,36
 99 331 99 331 122 324.5 c 128,-1,37
 145 318 145 318 168 318 c 0,38,39
 211 318 211 318 236.5 341 c 128,-1,40
 262 364 262 364 262 402 c 0,41,42
 262 433 262 433 242.5 457 c 128,-1,43
 223 481 223 481 180 484 c 1,44,-1
 187 524 l 1,45,46
 210 524 210 524 227.5 533 c 128,-1,47
 245 542 245 542 257 556.5 c 128,-1,48
 269 571 269 571 275 589 c 128,-1,49
 281 607 281 607 281 627 c 0,50,51
 281 651 281 651 271.5 663 c 128,-1,52
 262 675 262 675 245 675 c 0,0,1
EndSplineSet
EndChar

StartChar: acute
Encoding: 180 180 118
Width: 254
Flags: W
LayerCount: 2
Fore
SplineSet
121 794 m 1,0,1
 146 791 146 791 176 780 c 128,-1,2
 206 769 206 769 235 744 c 1,3,-1
 94 567 l 1,4,-1
 37 595 l 1,5,-1
 121 794 l 1,0,1
EndSplineSet
EndChar

StartChar: mu
Encoding: 181 181 119
AltUni2: 0003bc.ffffffff.0
Width: 641
Flags: W
LayerCount: 2
Fore
SplineSet
273 500 m 1,0,-1
 189 162 l 2,1,2
 187 151 187 151 185 138.5 c 128,-1,3
 183 126 183 126 183 118 c 0,4,5
 183 94 183 94 196 80.5 c 128,-1,6
 209 67 209 67 238 67 c 0,7,8
 269 67 269 67 299 78.5 c 128,-1,9
 329 90 329 90 358 108 c 1,10,-1
 455 500 l 1,11,-1
 584 500 l 1,12,-1
 496 146 l 2,13,14
 491 126 491 126 491 114 c 0,15,16
 491 92 491 92 503.5 84 c 128,-1,17
 516 76 516 76 540 76 c 2,18,-1
 551 76 l 1,19,-1
 542 40 l 1,20,21
 521 27 521 27 498 16 c 0,22,23
 478 7 478 7 454 0 c 128,-1,24
 430 -7 430 -7 406 -7 c 0,25,26
 372 -7 372 -7 358 6 c 128,-1,27
 344 19 344 19 344 45 c 2,28,-1
 344 49 l 1,29,30
 306 22 306 22 267 7.5 c 128,-1,31
 228 -7 228 -7 190 -7 c 0,32,33
 159 -7 159 -7 139 1.5 c 128,-1,34
 119 10 119 10 107 26 c 1,35,36
 101 8 101 8 97 -12.5 c 128,-1,37
 93 -33 93 -33 90 -52 c 128,-1,38
 87 -71 87 -71 85.5 -87.5 c 128,-1,39
 84 -104 84 -104 84 -114 c 0,40,41
 84 -138 84 -138 90.5 -152.5 c 128,-1,42
 97 -167 97 -167 120 -187 c 1,43,44
 120 -187 120 -187 114 -197 c 0,45,46
 107 -207 107 -207 95 -218 c 128,-1,47
 83 -229 83 -229 65 -238.5 c 128,-1,48
 47 -248 47 -248 25 -248 c 0,49,50
 8 -248 8 -248 -2 -243.5 c 128,-1,51
 -12 -239 -12 -239 -17.5 -231.5 c 128,-1,52
 -23 -224 -23 -224 -25 -215 c 128,-1,53
 -27 -206 -27 -206 -27 -197 c 0,54,55
 -27 -192 -27 -192 -26 -184 c 128,-1,56
 -25 -176 -25 -176 -23 -170 c 2,57,-1
 145 500 l 1,58,-1
 273 500 l 1,0,-1
EndSplineSet
EndChar

StartChar: paragraph
Encoding: 182 182 120
Width: 614
Flags: W
LayerCount: 2
Fore
SplineSet
382 -112 m 1,0,-1
 304 -112 l 1,1,-1
 503 687 l 1,2,-1
 433 687 l 1,3,-1
 235 -112 l 1,4,-1
 157 -112 l 1,5,-1
 279 376 l 1,6,-1
 270 376 l 2,7,8
 182 376 182 376 140 414 c 128,-1,9
 98 452 98 452 98 517 c 0,10,11
 98 563 98 563 116.5 606.5 c 128,-1,12
 135 650 135 650 170 684 c 128,-1,13
 205 718 205 718 256 739 c 128,-1,14
 307 760 307 760 372 760 c 2,15,-1
 679 760 l 1,16,-1
 667 712 l 1,17,-1
 582 692 l 1,18,-1
 382 -112 l 1,0,-1
EndSplineSet
EndChar

StartChar: periodcentered
Encoding: 183 183 121
Width: 313
Flags: W
LayerCount: 2
Fore
SplineSet
45 299 m 256,0,1
 45 322 45 322 54 342.5 c 128,-1,2
 63 363 63 363 78 378 c 128,-1,3
 93 393 93 393 113.5 402 c 128,-1,4
 134 411 134 411 157 411 c 256,5,6
 180 411 180 411 200.5 402 c 128,-1,7
 221 393 221 393 236 378 c 128,-1,8
 251 363 251 363 260 342.5 c 128,-1,9
 269 322 269 322 269 299 c 256,10,11
 269 276 269 276 260 255.5 c 128,-1,12
 251 235 251 235 236 220 c 128,-1,13
 221 205 221 205 200.5 196 c 128,-1,14
 180 187 180 187 157 187 c 256,15,16
 134 187 134 187 113.5 196 c 128,-1,17
 93 205 93 205 78 220 c 128,-1,18
 63 235 63 235 54 255.5 c 128,-1,19
 45 276 45 276 45 299 c 256,0,1
EndSplineSet
EndChar

StartChar: cedilla
Encoding: 184 184 122
Width: 333
Flags: W
LayerCount: 2
Fore
SplineSet
237 -110 m 0,0,1
 237 -143 237 -143 221.5 -167.5 c 128,-1,2
 206 -192 206 -192 181.5 -208 c 128,-1,3
 157 -224 157 -224 127 -231.5 c 128,-1,4
 97 -239 97 -239 68 -239 c 0,5,6
 32 -239 32 -239 -1 -229 c 1,7,-1
 14 -181 l 1,8,9
 29 -184 29 -184 51 -184 c 0,10,11
 64 -184 64 -184 78.5 -181.5 c 128,-1,12
 93 -179 93 -179 105.5 -172 c 128,-1,13
 118 -165 118 -165 126 -153.5 c 128,-1,14
 134 -142 134 -142 134 -125 c 0,15,16
 134 -98 134 -98 117 -87 c 128,-1,17
 100 -76 100 -76 75 -76 c 1,18,-1
 119 9 l 1,19,-1
 183 9 l 1,20,-1
 159 -41 l 1,21,22
 192 -43 192 -43 214.5 -59.5 c 128,-1,23
 237 -76 237 -76 237 -110 c 0,0,1
EndSplineSet
EndChar

StartChar: onesuperior
Encoding: 185 185 123
Width: 253
Flags: W
LayerCount: 2
Fore
SplineSet
94 283 m 1,0,-1
 181 626 l 1,1,-1
 109 596 l 1,2,-1
 99 636 l 1,3,-1
 243 707 l 1,4,-1
 290 707 l 1,5,-1
 184 283 l 1,6,-1
 94 283 l 1,0,-1
EndSplineSet
EndChar

StartChar: ordmasculine
Encoding: 186 186 124
Width: 396
Flags: W
LayerCount: 2
Fore
SplineSet
220 387 m 0,0,1
 155 387 155 387 123.5 418.5 c 128,-1,2
 92 450 92 450 92 500 c 0,3,4
 92 542 92 542 108.5 580 c 128,-1,5
 125 618 125 618 153.5 646.5 c 128,-1,6
 182 675 182 675 219.5 691.5 c 128,-1,7
 257 708 257 708 299 708 c 0,8,9
 363 708 363 708 395 676 c 128,-1,10
 427 644 427 644 427 595 c 0,11,12
 427 554 427 554 411 516 c 128,-1,13
 395 478 395 478 367.5 449.5 c 128,-1,14
 340 421 340 421 302 404 c 128,-1,15
 264 387 264 387 220 387 c 0,0,1
228 426 m 0,16,17
 248 426 248 426 266 444 c 128,-1,18
 284 462 284 462 297.5 489 c 128,-1,19
 311 516 311 516 319 548 c 128,-1,20
 327 580 327 580 327 609 c 256,21,22
 327 638 327 638 319.5 653.5 c 128,-1,23
 312 669 312 669 291 669 c 256,24,25
 270 669 270 669 252.5 651.5 c 128,-1,26
 235 634 235 634 221.5 607 c 128,-1,27
 208 580 208 580 200.5 547.5 c 128,-1,28
 193 515 193 515 193 486 c 0,29,30
 193 454 193 454 202 440 c 128,-1,31
 211 426 211 426 228 426 c 0,16,17
EndSplineSet
EndChar

StartChar: guillemotright
Encoding: 187 187 125
Width: 479
Flags: W
LayerCount: 2
Fore
SplineSet
424 254 m 1,0,-1
 236 80 l 1,1,-1
 164 80 l 1,2,-1
 307 270 l 1,3,-1
 259 460 l 1,4,-1
 330 460 l 1,5,-1
 431 286 l 1,6,-1
 424 254 l 1,0,-1
242 256 m 1,7,-1
 93 109 l 1,8,-1
 26 109 l 1,9,-1
 130 270 l 1,10,-1
 112 441 l 1,11,-1
 178 441 l 1,12,-1
 249 284 l 1,13,-1
 242 256 l 1,7,-1
EndSplineSet
EndChar

StartChar: onequarter
Encoding: 188 188 126
Width: 738
Flags: W
LayerCount: 2
Fore
SplineSet
162 0 m 1,0,-1
 67 0 l 1,1,-1
 534 700 l 1,2,-1
 629 700 l 1,3,-1
 162 0 l 1,0,-1
115 283 m 1,4,-1
 202 626 l 1,5,-1
 130 596 l 1,6,-1
 120 636 l 1,7,-1
 264 707 l 1,8,-1
 311 707 l 1,9,-1
 205 283 l 1,10,-1
 115 283 l 1,4,-1
352 144 m 1,11,-1
 627 425 l 1,12,-1
 681 425 l 1,13,-1
 617 165 l 1,14,-1
 660 165 l 1,15,-1
 647 113 l 1,16,-1
 603 113 l 1,17,-1
 575 0 l 1,18,-1
 493 0 l 1,19,-1
 522 113 l 1,20,-1
 344 113 l 1,21,-1
 352 144 l 1,11,-1
535 165 m 1,22,-1
 568 296 l 1,23,-1
 436 165 l 1,24,-1
 535 165 l 1,22,-1
EndSplineSet
EndChar

StartChar: onehalf
Encoding: 189 189 127
Width: 811
Flags: W
LayerCount: 2
Fore
SplineSet
162 0 m 1,0,-1
 67 0 l 1,1,-1
 534 700 l 1,2,-1
 629 700 l 1,3,-1
 162 0 l 1,0,-1
115 283 m 1,4,-1
 202 626 l 1,5,-1
 130 596 l 1,6,-1
 120 636 l 1,7,-1
 264 707 l 1,8,-1
 311 707 l 1,9,-1
 205 283 l 1,10,-1
 115 283 l 1,4,-1
739 333 m 0,11,12
 739 304 739 304 725.5 281 c 128,-1,13
 712 258 712 258 685 231 c 128,-1,14
 658 204 658 204 617.5 169 c 128,-1,15
 577 134 577 134 523 81 c 1,16,-1
 659 81 l 1,17,-1
 694 133 l 1,18,-1
 729 133 l 1,19,-1
 680 0 l 1,20,-1
 414 0 l 1,21,-1
 422 35 l 1,22,23
 482 102 482 102 524.5 148.5 c 128,-1,24
 567 195 567 195 593.5 229 c 128,-1,25
 620 263 620 263 632 288 c 128,-1,26
 644 313 644 313 644 338 c 0,27,28
 644 390 644 390 606 390 c 0,29,30
 586 390 586 390 576 374.5 c 128,-1,31
 566 359 566 359 566 330 c 0,32,33
 566 323 566 323 566.5 310.5 c 128,-1,34
 567 298 567 298 569 287 c 1,35,36
 552 287 552 287 535.5 290.5 c 128,-1,37
 519 294 519 294 506.5 301.5 c 128,-1,38
 494 309 494 309 486.5 320 c 128,-1,39
 479 331 479 331 479 346 c 0,40,41
 479 383 479 383 517.5 404 c 128,-1,42
 556 425 556 425 613 425 c 256,43,44
 670 425 670 425 704.5 401.5 c 128,-1,45
 739 378 739 378 739 333 c 0,11,12
EndSplineSet
EndChar

StartChar: threequarters
Encoding: 190 190 128
Width: 878
Flags: W
LayerCount: 2
Fore
SplineSet
307 0 m 1,0,-1
 212 0 l 1,1,-1
 679 700 l 1,2,-1
 774 700 l 1,3,-1
 307 0 l 1,0,-1
496 144 m 1,4,-1
 771 425 l 1,5,-1
 825 425 l 1,6,-1
 761 165 l 1,7,-1
 804 165 l 1,8,-1
 791 113 l 1,9,-1
 747 113 l 1,10,-1
 719 0 l 1,11,-1
 637 0 l 1,12,-1
 666 113 l 1,13,-1
 488 113 l 1,14,-1
 496 144 l 1,4,-1
679 165 m 1,15,-1
 712 296 l 1,16,-1
 580 165 l 1,17,-1
 679 165 l 1,15,-1
251 675 m 0,18,19
 228 675 228 675 216.5 657 c 128,-1,20
 205 639 205 639 205 611 c 0,21,22
 205 603 205 603 205.5 590.5 c 128,-1,23
 206 578 206 578 208 570 c 1,24,25
 194 570 194 570 179.5 573 c 128,-1,26
 165 576 165 576 153 582.5 c 128,-1,27
 141 589 141 589 133.5 601 c 128,-1,28
 126 613 126 613 126 631 c 0,29,30
 126 667 126 667 165 687.5 c 128,-1,31
 204 708 204 708 262 708 c 0,32,33
 313 708 313 708 346 687 c 128,-1,34
 379 666 379 666 379 618 c 0,35,36
 379 596 379 596 369 577 c 128,-1,37
 359 558 359 558 342.5 543 c 128,-1,38
 326 528 326 528 305 518 c 128,-1,39
 284 508 284 508 261 504 c 1,40,-1
 261 503 l 1,41,42
 308 499 308 499 335.5 471.5 c 128,-1,43
 363 444 363 444 363 406 c 0,44,45
 363 373 363 373 349.5 348 c 128,-1,46
 336 323 336 323 313 307 c 128,-1,47
 290 291 290 291 260.5 283 c 128,-1,48
 231 275 231 275 200 275 c 0,49,50
 162 275 162 275 130 283.5 c 128,-1,51
 98 292 98 292 66 310 c 1,52,-1
 81 346 l 1,53,54
 105 331 105 331 128 324.5 c 128,-1,55
 151 318 151 318 174 318 c 0,56,57
 217 318 217 318 242.5 341 c 128,-1,58
 268 364 268 364 268 402 c 0,59,60
 268 433 268 433 248.5 457 c 128,-1,61
 229 481 229 481 186 484 c 1,62,-1
 193 524 l 1,63,64
 216 524 216 524 233.5 533 c 128,-1,65
 251 542 251 542 263 556.5 c 128,-1,66
 275 571 275 571 281 589 c 128,-1,67
 287 607 287 607 287 627 c 0,68,69
 287 651 287 651 277.5 663 c 128,-1,70
 268 675 268 675 251 675 c 0,18,19
EndSplineSet
EndChar

StartChar: questiondown
Encoding: 191 191 129
Width: 478
Flags: W
LayerCount: 2
Fore
SplineSet
329 214 m 0,0,1
 329 174 329 174 311 145.5 c 128,-1,2
 293 117 293 117 266 95 c 128,-1,3
 239 73 239 73 207 54.5 c 128,-1,4
 175 36 175 36 148 15.5 c 128,-1,5
 121 -5 121 -5 103 -30.5 c 128,-1,6
 85 -56 85 -56 85 -92 c 0,7,8
 85 -123 85 -123 102 -139.5 c 128,-1,9
 119 -156 119 -156 148 -156 c 0,10,11
 180 -156 180 -156 200 -131.5 c 128,-1,12
 220 -107 220 -107 220 -60 c 0,13,14
 220 -48 220 -48 218 -33 c 128,-1,15
 216 -18 216 -18 213 -4 c 1,16,17
 284 -4 284 -4 315 -27.5 c 128,-1,18
 346 -51 346 -51 346 -94 c 0,19,20
 346 -147 346 -147 291 -177.5 c 128,-1,21
 236 -208 236 -208 136 -208 c 0,22,23
 96 -208 96 -208 62 -199.5 c 128,-1,24
 28 -191 28 -191 3 -174 c 128,-1,25
 -22 -157 -22 -157 -36 -132 c 128,-1,26
 -50 -107 -50 -107 -50 -75 c 0,27,28
 -50 -32 -50 -32 -28 -1.5 c 128,-1,29
 -6 29 -6 29 27 52 c 128,-1,30
 60 75 60 75 99 93 c 128,-1,31
 138 111 138 111 171 129 c 128,-1,32
 204 147 204 147 226 167.5 c 128,-1,33
 248 188 248 188 248 216 c 0,34,35
 248 233 248 233 238 243.5 c 128,-1,36
 228 254 228 254 212 254 c 0,37,38
 201 254 201 254 189.5 250.5 c 128,-1,39
 178 247 178 247 162 235 c 1,40,-1
 132 273 l 1,41,42
 150 291 150 291 170.5 301 c 128,-1,43
 191 311 191 311 223 311 c 0,44,45
 269 311 269 311 299 284.5 c 128,-1,46
 329 258 329 258 329 214 c 0,0,1
354 421 m 0,47,48
 354 403 354 403 347 387.5 c 128,-1,49
 340 372 340 372 328.5 360.5 c 128,-1,50
 317 349 317 349 301.5 342.5 c 128,-1,51
 286 336 286 336 268 336 c 0,52,53
 233 336 233 336 208 361 c 128,-1,54
 183 386 183 386 183 421 c 0,55,56
 183 438 183 438 189.5 453.5 c 128,-1,57
 196 469 196 469 207.5 481 c 128,-1,58
 219 493 219 493 234.5 500 c 128,-1,59
 250 507 250 507 268 507 c 256,60,61
 286 507 286 507 301.5 500 c 128,-1,62
 317 493 317 493 328.5 481 c 128,-1,63
 340 469 340 469 347 453.5 c 128,-1,64
 354 438 354 438 354 421 c 0,47,48
EndSplineSet
EndChar

StartChar: Agrave
Encoding: 192 192 130
Width: 663
Flags: W
LayerCount: 2
Fore
SplineSet
-71 41 m 1,0,-1
 20 63 l 1,1,-1
 400 700 l 1,2,-1
 483 700 l 1,3,-1
 529 62 l 1,4,-1
 608 41 l 1,5,-1
 598 0 l 1,6,-1
 316 0 l 1,7,-1
 327 41 l 1,8,-1
 403 59 l 1,9,-1
 393 196 l 1,10,-1
 196 196 l 1,11,-1
 116 62 l 1,12,-1
 195 41 l 1,13,-1
 184 0 l 1,14,-1
 -82 0 l 1,15,-1
 -71 41 l 1,0,-1
526 778 m 1,16,-1
 502 740 l 1,17,-1
 282 828 l 1,18,19
 288 843 288 843 297.5 858 c 128,-1,20
 307 873 307 873 318 886.5 c 128,-1,21
 329 900 329 900 342 910 c 128,-1,22
 355 920 355 920 368 924 c 1,23,-1
 526 778 l 1,16,-1
371 488 m 1,24,-1
 234 260 l 1,25,-1
 388 260 l 1,26,-1
 371 488 l 1,24,-1
EndSplineSet
EndChar

StartChar: Aacute
Encoding: 193 193 131
Width: 663
Flags: W
LayerCount: 2
Fore
SplineSet
-71 41 m 1,0,-1
 20 63 l 1,1,-1
 400 700 l 1,2,-1
 483 700 l 1,3,-1
 529 62 l 1,4,-1
 608 41 l 1,5,-1
 598 0 l 1,6,-1
 316 0 l 1,7,-1
 327 41 l 1,8,-1
 403 59 l 1,9,-1
 393 196 l 1,10,-1
 196 196 l 1,11,-1
 116 62 l 1,12,-1
 195 41 l 1,13,-1
 184 0 l 1,14,-1
 -82 0 l 1,15,-1
 -71 41 l 1,0,-1
512 916 m 1,16,17
 525 911 525 911 537.5 901 c 128,-1,18
 550 891 550 891 561.5 878 c 128,-1,19
 573 865 573 865 582.5 850 c 128,-1,20
 592 835 592 835 598 820 c 1,21,-1
 373 730 l 1,22,-1
 350 768 l 1,23,-1
 512 916 l 1,16,17
371 488 m 1,24,-1
 234 260 l 1,25,-1
 388 260 l 1,26,-1
 371 488 l 1,24,-1
EndSplineSet
EndChar

StartChar: Acircumflex
Encoding: 194 194 132
Width: 663
Flags: W
LayerCount: 2
Fore
SplineSet
-71 41 m 1,0,-1
 20 63 l 1,1,-1
 400 700 l 1,2,-1
 483 700 l 1,3,-1
 529 62 l 1,4,-1
 608 41 l 1,5,-1
 598 0 l 1,6,-1
 316 0 l 1,7,-1
 327 41 l 1,8,-1
 403 59 l 1,9,-1
 393 196 l 1,10,-1
 196 196 l 1,11,-1
 116 62 l 1,12,-1
 195 41 l 1,13,-1
 184 0 l 1,14,-1
 -82 0 l 1,15,-1
 -71 41 l 1,0,-1
604 796 m 1,16,-1
 536 772 l 1,17,-1
 440 837 l 1,18,-1
 312 772 l 1,19,-1
 244 796 l 1,20,-1
 398 918 l 1,21,-1
 507 918 l 1,22,-1
 604 796 l 1,16,-1
371 488 m 1,23,-1
 234 260 l 1,24,-1
 388 260 l 1,25,-1
 371 488 l 1,23,-1
EndSplineSet
EndChar

StartChar: Atilde
Encoding: 195 195 133
Width: 663
Flags: W
LayerCount: 2
Fore
SplineSet
-71 41 m 1,0,-1
 20 63 l 1,1,-1
 400 700 l 1,2,-1
 483 700 l 1,3,-1
 529 62 l 1,4,-1
 608 41 l 1,5,-1
 598 0 l 1,6,-1
 316 0 l 1,7,-1
 327 41 l 1,8,-1
 403 59 l 1,9,-1
 393 196 l 1,10,-1
 196 196 l 1,11,-1
 116 62 l 1,12,-1
 195 41 l 1,13,-1
 184 0 l 1,14,-1
 -82 0 l 1,15,-1
 -71 41 l 1,0,-1
546 862 m 0,16,17
 570 862 570 862 594.5 873.5 c 128,-1,18
 619 885 619 885 649 905 c 1,19,-1
 678 862 l 1,20,21
 656 837 656 837 631 819 c 0,22,23
 609 802 609 802 581.5 789 c 128,-1,24
 554 776 554 776 525 776 c 0,25,26
 500 776 500 776 481.5 784.5 c 128,-1,27
 463 793 463 793 447 802.5 c 128,-1,28
 431 812 431 812 416 820.5 c 128,-1,29
 401 829 401 829 383 829 c 0,30,31
 340 829 340 829 281 786 c 1,32,-1
 250 828 l 1,33,34
 273 852 273 852 299 871 c 0,35,36
 321 888 321 888 348.5 901.5 c 128,-1,37
 376 915 376 915 405 915 c 0,38,39
 432 915 432 915 449 906.5 c 128,-1,40
 466 898 466 898 480.5 888.5 c 128,-1,41
 495 879 495 879 509.5 870.5 c 128,-1,42
 524 862 524 862 546 862 c 0,16,17
371 488 m 1,43,-1
 234 260 l 1,44,-1
 388 260 l 1,45,-1
 371 488 l 1,43,-1
EndSplineSet
EndChar

StartChar: Adieresis
Encoding: 196 196 134
Width: 663
Flags: W
LayerCount: 2
Fore
SplineSet
-71 41 m 1,0,-1
 20 63 l 1,1,-1
 400 700 l 1,2,-1
 483 700 l 1,3,-1
 529 62 l 1,4,-1
 608 41 l 1,5,-1
 598 0 l 1,6,-1
 316 0 l 1,7,-1
 327 41 l 1,8,-1
 403 59 l 1,9,-1
 393 196 l 1,10,-1
 196 196 l 1,11,-1
 116 62 l 1,12,-1
 195 41 l 1,13,-1
 184 0 l 1,14,-1
 -82 0 l 1,15,-1
 -71 41 l 1,0,-1
479 847 m 256,16,17
 479 881 479 881 502.5 903.5 c 128,-1,18
 526 926 526 926 559 926 c 0,19,20
 593 926 593 926 615.5 903.5 c 128,-1,21
 638 881 638 881 638 847 c 256,22,23
 638 813 638 813 615.5 790.5 c 128,-1,24
 593 768 593 768 559 768 c 0,25,26
 526 768 526 768 502.5 790.5 c 128,-1,27
 479 813 479 813 479 847 c 256,16,17
270 847 m 256,28,29
 270 881 270 881 293 903.5 c 128,-1,30
 316 926 316 926 350 926 c 0,31,32
 383 926 383 926 405.5 903.5 c 128,-1,33
 428 881 428 881 428 847 c 256,34,35
 428 813 428 813 405.5 790.5 c 128,-1,36
 383 768 383 768 350 768 c 0,37,38
 316 768 316 768 293 790.5 c 128,-1,39
 270 813 270 813 270 847 c 256,28,29
371 488 m 1,40,-1
 234 260 l 1,41,-1
 388 260 l 1,42,-1
 371 488 l 1,40,-1
EndSplineSet
EndChar

StartChar: Aring
Encoding: 197 197 135
Width: 665
Flags: W
LayerCount: 2
Fore
SplineSet
334 753 m 0,0,1
 334 778 334 778 343.5 799.5 c 128,-1,2
 353 821 353 821 369.5 837.5 c 128,-1,3
 386 854 386 854 407.5 863.5 c 128,-1,4
 429 873 429 873 454 873 c 256,5,6
 479 873 479 873 500.5 863.5 c 128,-1,7
 522 854 522 854 538.5 837.5 c 128,-1,8
 555 821 555 821 564.5 799.5 c 128,-1,9
 574 778 574 778 574 753 c 0,10,11
 574 711 574 711 549.5 679.5 c 128,-1,12
 525 648 525 648 487 637 c 1,13,-1
 529 62 l 1,14,-1
 608 41 l 1,15,-1
 598 0 l 1,16,-1
 316 0 l 1,17,-1
 327 41 l 1,18,-1
 403 59 l 1,19,-1
 393 196 l 1,20,-1
 196 196 l 1,21,-1
 116 62 l 1,22,-1
 195 41 l 1,23,-1
 184 0 l 1,24,-1
 -82 0 l 1,25,-1
 -71 41 l 1,26,-1
 20 63 l 1,27,-1
 377 661 l 1,28,29
 357 678 357 678 345.5 701.5 c 128,-1,30
 334 725 334 725 334 753 c 0,0,1
371 488 m 1,31,-1
 234 260 l 1,32,-1
 388 260 l 1,33,-1
 371 488 l 1,31,-1
402 753 m 256,34,35
 402 731 402 731 416.5 716.5 c 128,-1,36
 431 702 431 702 454 702 c 0,37,38
 476 702 476 702 490.5 716.5 c 128,-1,39
 505 731 505 731 505 753 c 256,40,41
 505 775 505 775 490.5 789 c 128,-1,42
 476 803 476 803 454 803 c 0,43,44
 431 803 431 803 416.5 789 c 128,-1,45
 402 775 402 775 402 753 c 256,34,35
EndSplineSet
EndChar

StartChar: AE
Encoding: 198 198 136
Width: 1031
Flags: W
LayerCount: 2
Fore
SplineSet
1014 495 m 1,0,-1
 966 495 l 1,1,-1
 960 638 l 1,2,-1
 780 638 l 1,3,-1
 717 387 l 1,4,-1
 903 406 l 1,5,-1
 880 312 l 1,6,-1
 703 329 l 1,7,-1
 639 72 l 1,8,-1
 821 72 l 1,9,-1
 924 216 l 1,10,-1
 972 216 l 1,11,-1
 891 0 l 1,12,-1
 404 0 l 1,13,-1
 417 51 l 1,14,-1
 508 73 l 1,15,-1
 538 196 l 1,16,-1
 262 196 l 1,17,-1
 131 66 l 1,18,-1
 191 51 l 1,19,-1
 178 0 l 1,20,-1
 -88 0 l 1,21,-1
 -75 51 l 1,22,-1
 51 80 l 1,23,-1
 675 700 l 1,24,-1
 1065 700 l 1,25,-1
 1014 495 l 1,0,-1
555 260 m 1,26,-1
 629 556 l 1,27,-1
 327 260 l 1,28,-1
 555 260 l 1,26,-1
EndSplineSet
EndChar

StartChar: Ccedilla
Encoding: 199 199 137
Width: 620
Flags: W
LayerCount: 2
Fore
SplineSet
434 -110 m 0,0,1
 434 -143 434 -143 418.5 -167.5 c 128,-1,2
 403 -192 403 -192 378.5 -208 c 128,-1,3
 354 -224 354 -224 324 -231.5 c 128,-1,4
 294 -239 294 -239 265 -239 c 0,5,6
 229 -239 229 -239 196 -229 c 1,7,-1
 211 -181 l 1,8,9
 226 -184 226 -184 248 -184 c 0,10,11
 261 -184 261 -184 275.5 -181.5 c 128,-1,12
 290 -179 290 -179 302.5 -172 c 128,-1,13
 315 -165 315 -165 323 -153.5 c 128,-1,14
 331 -142 331 -142 331 -125 c 0,15,16
 331 -98 331 -98 314 -87 c 128,-1,17
 297 -76 297 -76 272 -76 c 1,18,-1
 308 -6 l 1,19,20
 302 -7 302 -7 296 -7 c 128,-1,21
 290 -7 290 -7 284 -7 c 0,22,23
 220 -7 220 -7 175 12.5 c 128,-1,24
 130 32 130 32 101.5 65.5 c 128,-1,25
 73 99 73 99 59.5 144 c 128,-1,26
 46 189 46 189 46 239 c 0,27,28
 46 325 46 325 75 409 c 128,-1,29
 104 493 104 493 158.5 559.5 c 128,-1,30
 213 626 213 626 290.5 667 c 128,-1,31
 368 708 368 708 465 708 c 0,32,33
 510 708 510 708 546 702 c 128,-1,34
 582 696 582 696 608 688 c 0,35,36
 638 679 638 679 660 668 c 1,37,-1
 614 483 l 1,38,-1
 555 483 l 1,39,-1
 549 632 l 1,40,41
 538 635 538 635 522.5 637.5 c 128,-1,42
 507 640 507 640 489 640 c 0,43,44
 423 640 423 640 366 608.5 c 128,-1,45
 309 577 309 577 267.5 523 c 128,-1,46
 226 469 226 469 202.5 397 c 128,-1,47
 179 325 179 325 179 245 c 0,48,49
 179 154 179 154 216 109.5 c 128,-1,50
 253 65 253 65 310 65 c 0,51,52
 327 65 327 65 344.5 66.5 c 128,-1,53
 362 68 362 68 383 74 c 1,54,-1
 498 226 l 1,55,-1
 556 226 l 1,56,-1
 485 42 l 1,57,58
 438 14 438 14 376 2 c 1,59,-1
 356 -41 l 1,60,61
 389 -43 389 -43 411.5 -59.5 c 128,-1,62
 434 -76 434 -76 434 -110 c 0,0,1
EndSplineSet
EndChar

StartChar: Egrave
Encoding: 200 200 138
Width: 591
Flags: W
LayerCount: 2
Fore
SplineSet
280 391 m 1,0,-1
 463 411 l 1,1,-1
 439 307 l 1,2,-1
 263 325 l 1,3,-1
 200 72 l 1,4,-1
 365 72 l 1,5,-1
 474 216 l 1,6,-1
 532 216 l 1,7,-1
 451 0 l 1,8,-1
 -35 0 l 1,9,-1
 -24 49 l 1,10,-1
 70 73 l 1,11,-1
 208 627 l 1,12,-1
 128 650 l 1,13,-1
 140 700 l 1,14,-1
 625 700 l 1,15,-1
 574 495 l 1,16,-1
 517 495 l 1,17,-1
 510 628 l 1,18,-1
 338 628 l 1,19,-1
 280 391 l 1,0,-1
519 778 m 1,20,-1
 495 740 l 1,21,-1
 275 828 l 1,22,23
 281 843 281 843 290.5 858 c 128,-1,24
 300 873 300 873 311 886.5 c 128,-1,25
 322 900 322 900 335 910 c 128,-1,26
 348 920 348 920 361 924 c 1,27,-1
 519 778 l 1,20,-1
EndSplineSet
EndChar

StartChar: Eacute
Encoding: 201 201 139
Width: 591
Flags: W
LayerCount: 2
Fore
SplineSet
280 391 m 1,0,-1
 463 411 l 1,1,-1
 439 307 l 1,2,-1
 263 325 l 1,3,-1
 200 72 l 1,4,-1
 365 72 l 1,5,-1
 474 216 l 1,6,-1
 532 216 l 1,7,-1
 451 0 l 1,8,-1
 -35 0 l 1,9,-1
 -24 49 l 1,10,-1
 70 73 l 1,11,-1
 208 627 l 1,12,-1
 128 650 l 1,13,-1
 140 700 l 1,14,-1
 625 700 l 1,15,-1
 574 495 l 1,16,-1
 517 495 l 1,17,-1
 510 628 l 1,18,-1
 338 628 l 1,19,-1
 280 391 l 1,0,-1
515 916 m 1,20,21
 528 911 528 911 540.5 901 c 128,-1,22
 553 891 553 891 564.5 878 c 128,-1,23
 576 865 576 865 585.5 850 c 128,-1,24
 595 835 595 835 601 820 c 1,25,-1
 376 730 l 1,26,-1
 353 768 l 1,27,-1
 515 916 l 1,20,21
EndSplineSet
EndChar

StartChar: Ecircumflex
Encoding: 202 202 140
Width: 591
Flags: W
LayerCount: 2
Fore
SplineSet
280 391 m 1,0,-1
 463 411 l 1,1,-1
 439 307 l 1,2,-1
 263 325 l 1,3,-1
 200 72 l 1,4,-1
 365 72 l 1,5,-1
 474 216 l 1,6,-1
 532 216 l 1,7,-1
 451 0 l 1,8,-1
 -35 0 l 1,9,-1
 -24 49 l 1,10,-1
 70 73 l 1,11,-1
 208 627 l 1,12,-1
 128 650 l 1,13,-1
 140 700 l 1,14,-1
 625 700 l 1,15,-1
 574 495 l 1,16,-1
 517 495 l 1,17,-1
 510 628 l 1,18,-1
 338 628 l 1,19,-1
 280 391 l 1,0,-1
607 776 m 1,20,-1
 539 752 l 1,21,-1
 443 817 l 1,22,-1
 315 752 l 1,23,-1
 247 776 l 1,24,-1
 401 898 l 1,25,-1
 510 898 l 1,26,-1
 607 776 l 1,20,-1
EndSplineSet
EndChar

StartChar: Edieresis
Encoding: 203 203 141
Width: 591
Flags: W
LayerCount: 2
Fore
SplineSet
280 391 m 1,0,-1
 463 411 l 1,1,-1
 439 307 l 1,2,-1
 263 325 l 1,3,-1
 200 72 l 1,4,-1
 365 72 l 1,5,-1
 474 216 l 1,6,-1
 532 216 l 1,7,-1
 451 0 l 1,8,-1
 -35 0 l 1,9,-1
 -24 49 l 1,10,-1
 70 73 l 1,11,-1
 208 627 l 1,12,-1
 128 650 l 1,13,-1
 140 700 l 1,14,-1
 625 700 l 1,15,-1
 574 495 l 1,16,-1
 517 495 l 1,17,-1
 510 628 l 1,18,-1
 338 628 l 1,19,-1
 280 391 l 1,0,-1
283 847 m 256,20,21
 283 881 283 881 306 903.5 c 128,-1,22
 329 926 329 926 363 926 c 0,23,24
 396 926 396 926 418.5 903.5 c 128,-1,25
 441 881 441 881 441 847 c 256,26,27
 441 813 441 813 418.5 790.5 c 128,-1,28
 396 768 396 768 363 768 c 0,29,30
 329 768 329 768 306 790.5 c 128,-1,31
 283 813 283 813 283 847 c 256,20,21
492 847 m 256,32,33
 492 881 492 881 515.5 903.5 c 128,-1,34
 539 926 539 926 572 926 c 0,35,36
 606 926 606 926 628.5 903.5 c 128,-1,37
 651 881 651 881 651 847 c 256,38,39
 651 813 651 813 628.5 790.5 c 128,-1,40
 606 768 606 768 572 768 c 0,41,42
 539 768 539 768 515.5 790.5 c 128,-1,43
 492 813 492 813 492 847 c 256,32,33
EndSplineSet
EndChar

StartChar: Igrave
Encoding: 204 204 142
Width: 379
Flags: W
LayerCount: 2
Fore
SplineSet
269 0 m 1,0,-1
 -35 0 l 1,1,-1
 -22 51 l 1,2,-1
 70 73 l 1,3,-1
 207 627 l 1,4,-1
 126 649 l 1,5,-1
 139 700 l 1,6,-1
 443 700 l 1,7,-1
 430 649 l 1,8,-1
 337 627 l 1,9,-1
 200 73 l 1,10,-1
 282 51 l 1,11,-1
 269 0 l 1,0,-1
376 778 m 1,12,-1
 352 740 l 1,13,-1
 132 828 l 1,14,15
 138 843 138 843 147.5 858 c 128,-1,16
 157 873 157 873 168 886.5 c 128,-1,17
 179 900 179 900 192 910 c 128,-1,18
 205 920 205 920 218 924 c 1,19,-1
 376 778 l 1,12,-1
EndSplineSet
EndChar

StartChar: Iacute
Encoding: 205 205 143
Width: 379
Flags: W
LayerCount: 2
Fore
SplineSet
269 0 m 1,0,-1
 -35 0 l 1,1,-1
 -22 51 l 1,2,-1
 70 73 l 1,3,-1
 207 627 l 1,4,-1
 126 649 l 1,5,-1
 139 700 l 1,6,-1
 443 700 l 1,7,-1
 430 649 l 1,8,-1
 337 627 l 1,9,-1
 200 73 l 1,10,-1
 282 51 l 1,11,-1
 269 0 l 1,0,-1
372 916 m 1,12,13
 385 911 385 911 397.5 901 c 128,-1,14
 410 891 410 891 421.5 878 c 128,-1,15
 433 865 433 865 442.5 850 c 128,-1,16
 452 835 452 835 458 820 c 1,17,-1
 233 730 l 1,18,-1
 210 768 l 1,19,-1
 372 916 l 1,12,13
EndSplineSet
EndChar

StartChar: Icircumflex
Encoding: 206 206 144
Width: 379
Flags: W
LayerCount: 2
Fore
SplineSet
269 0 m 1,0,-1
 -35 0 l 1,1,-1
 -22 51 l 1,2,-1
 70 73 l 1,3,-1
 207 627 l 1,4,-1
 126 649 l 1,5,-1
 139 700 l 1,6,-1
 443 700 l 1,7,-1
 430 649 l 1,8,-1
 337 627 l 1,9,-1
 200 73 l 1,10,-1
 282 51 l 1,11,-1
 269 0 l 1,0,-1
484 796 m 1,12,-1
 416 772 l 1,13,-1
 320 837 l 1,14,-1
 192 772 l 1,15,-1
 124 796 l 1,16,-1
 278 918 l 1,17,-1
 387 918 l 1,18,-1
 484 796 l 1,12,-1
EndSplineSet
EndChar

StartChar: Idieresis
Encoding: 207 207 145
Width: 379
Flags: W
LayerCount: 2
Fore
SplineSet
269 0 m 1,0,-1
 -35 0 l 1,1,-1
 -22 51 l 1,2,-1
 70 73 l 1,3,-1
 207 627 l 1,4,-1
 126 649 l 1,5,-1
 139 700 l 1,6,-1
 443 700 l 1,7,-1
 430 649 l 1,8,-1
 337 627 l 1,9,-1
 200 73 l 1,10,-1
 282 51 l 1,11,-1
 269 0 l 1,0,-1
140 847 m 256,12,13
 140 881 140 881 163 903.5 c 128,-1,14
 186 926 186 926 220 926 c 0,15,16
 253 926 253 926 275.5 903.5 c 128,-1,17
 298 881 298 881 298 847 c 256,18,19
 298 813 298 813 275.5 790.5 c 128,-1,20
 253 768 253 768 220 768 c 0,21,22
 186 768 186 768 163 790.5 c 128,-1,23
 140 813 140 813 140 847 c 256,12,13
349 847 m 256,24,25
 349 881 349 881 372.5 903.5 c 128,-1,26
 396 926 396 926 429 926 c 0,27,28
 463 926 463 926 485.5 903.5 c 128,-1,29
 508 881 508 881 508 847 c 256,30,31
 508 813 508 813 485.5 790.5 c 128,-1,32
 463 768 463 768 429 768 c 0,33,34
 396 768 396 768 372.5 790.5 c 128,-1,35
 349 813 349 813 349 847 c 256,24,25
EndSplineSet
EndChar

StartChar: Eth
Encoding: 208 208 146
Width: 706
Flags: W
LayerCount: 2
Fore
SplineSet
52 387 m 1,0,-1
 150 387 l 1,1,-1
 211 627 l 1,2,-1
 130 649 l 1,3,-1
 143 700 l 1,4,-1
 389 700 l 2,5,6
 542 700 542 700 613.5 634 c 128,-1,7
 685 568 685 568 685 453 c 0,8,9
 685 343 685 343 648 258.5 c 128,-1,10
 611 174 611 174 547 116.5 c 128,-1,11
 483 59 483 59 397.5 29.5 c 128,-1,12
 312 0 312 0 215 0 c 2,13,-1
 -31 0 l 1,14,-1
 -20 51 l 1,15,-1
 71 73 l 1,16,-1
 132 316 l 1,17,-1
 52 316 l 1,18,-1
 52 387 l 1,0,-1
228 72 m 2,19,20
 291 72 291 72 349.5 99.5 c 128,-1,21
 408 127 408 127 453 177.5 c 128,-1,22
 498 228 498 228 525 299 c 128,-1,23
 552 370 552 370 552 457 c 256,24,25
 552 544 552 544 503 586 c 128,-1,26
 454 628 454 628 372 628 c 2,27,-1
 341 628 l 1,28,-1
 280 387 l 1,29,-1
 420 387 l 1,30,-1
 420 316 l 1,31,-1
 263 316 l 1,32,-1
 202 72 l 1,33,-1
 228 72 l 2,19,20
EndSplineSet
EndChar

StartChar: Ntilde
Encoding: 209 209 147
Width: 720
Flags: W
LayerCount: 2
Fore
SplineSet
783 649 m 1,0,-1
 689 627 l 1,1,-1
 534 0 l 1,2,-1
 487 0 l 1,3,-1
 250 503 l 1,4,-1
 143 72 l 1,5,-1
 224 51 l 1,6,-1
 212 0 l 1,7,-1
 -35 0 l 1,8,-1
 -23 51 l 1,9,-1
 69 73 l 1,10,-1
 207 626 l 1,11,-1
 127 649 l 1,12,-1
 139 700 l 1,13,-1
 296 700 l 1,14,-1
 517 231 l 1,15,-1
 615 627 l 1,16,-1
 535 649 l 1,17,-1
 548 700 l 1,18,-1
 795 700 l 1,19,-1
 783 649 l 1,0,-1
561 862 m 0,20,21
 585 862 585 862 609.5 873.5 c 128,-1,22
 634 885 634 885 664 905 c 1,23,-1
 693 862 l 1,24,25
 671 837 671 837 646 819 c 0,26,27
 624 802 624 802 596.5 789 c 128,-1,28
 569 776 569 776 540 776 c 0,29,30
 515 776 515 776 496.5 784.5 c 128,-1,31
 478 793 478 793 462 802.5 c 128,-1,32
 446 812 446 812 431 820.5 c 128,-1,33
 416 829 416 829 398 829 c 0,34,35
 355 829 355 829 296 786 c 1,36,-1
 265 828 l 1,37,38
 288 852 288 852 314 871 c 0,39,40
 336 888 336 888 363.5 901.5 c 128,-1,41
 391 915 391 915 420 915 c 0,42,43
 447 915 447 915 464 906.5 c 128,-1,44
 481 898 481 898 495.5 888.5 c 128,-1,45
 510 879 510 879 524.5 870.5 c 128,-1,46
 539 862 539 862 561 862 c 0,20,21
EndSplineSet
EndChar

StartChar: Ograve
Encoding: 210 210 148
Width: 731
Flags: W
LayerCount: 2
Fore
SplineSet
299 -7 m 0,0,1
 236 -7 236 -7 188 10.5 c 128,-1,2
 140 28 140 28 108.5 59.5 c 128,-1,3
 77 91 77 91 61 135 c 128,-1,4
 45 179 45 179 45 233 c 0,5,6
 45 324 45 324 74.5 409.5 c 128,-1,7
 104 495 104 495 158.5 561.5 c 128,-1,8
 213 628 213 628 290 668 c 128,-1,9
 367 708 367 708 461 708 c 0,10,11
 524 708 524 708 571.5 690.5 c 128,-1,12
 619 673 619 673 650.5 641 c 128,-1,13
 682 609 682 609 698 565 c 128,-1,14
 714 521 714 521 714 467 c 0,15,16
 714 376 714 376 684.5 290.5 c 128,-1,17
 655 205 655 205 601 139 c 128,-1,18
 547 73 547 73 470.5 33 c 128,-1,19
 394 -7 394 -7 299 -7 c 0,0,1
307 57 m 0,20,21
 353 57 353 57 391 75.5 c 128,-1,22
 429 94 429 94 459 126 c 128,-1,23
 489 158 489 158 511.5 200 c 128,-1,24
 534 242 534 242 548.5 289 c 128,-1,25
 563 336 563 336 570.5 384 c 128,-1,26
 578 432 578 432 578 477 c 0,27,28
 578 513 578 513 570.5 543.5 c 128,-1,29
 563 574 563 574 547.5 596.5 c 128,-1,30
 532 619 532 619 508 631.5 c 128,-1,31
 484 644 484 644 451 644 c 0,32,33
 383 644 383 644 332.5 603 c 128,-1,34
 282 562 282 562 248.5 499.5 c 128,-1,35
 215 437 215 437 198.5 363 c 128,-1,36
 182 289 182 289 182 223 c 0,37,38
 182 187 182 187 189 156.5 c 128,-1,39
 196 126 196 126 211 104 c 128,-1,40
 226 82 226 82 250 69.5 c 128,-1,41
 274 57 274 57 307 57 c 0,20,21
551 778 m 1,42,-1
 527 740 l 1,43,-1
 307 828 l 1,44,45
 313 843 313 843 322.5 858 c 128,-1,46
 332 873 332 873 343 886.5 c 128,-1,47
 354 900 354 900 367 910 c 128,-1,48
 380 920 380 920 393 924 c 1,49,-1
 551 778 l 1,42,-1
EndSplineSet
EndChar

StartChar: Oacute
Encoding: 211 211 149
Width: 731
Flags: W
LayerCount: 2
Fore
SplineSet
299 -7 m 0,0,1
 236 -7 236 -7 188 10.5 c 128,-1,2
 140 28 140 28 108.5 59.5 c 128,-1,3
 77 91 77 91 61 135 c 128,-1,4
 45 179 45 179 45 233 c 0,5,6
 45 324 45 324 74.5 409.5 c 128,-1,7
 104 495 104 495 158.5 561.5 c 128,-1,8
 213 628 213 628 290 668 c 128,-1,9
 367 708 367 708 461 708 c 0,10,11
 524 708 524 708 571.5 690.5 c 128,-1,12
 619 673 619 673 650.5 641 c 128,-1,13
 682 609 682 609 698 565 c 128,-1,14
 714 521 714 521 714 467 c 0,15,16
 714 376 714 376 684.5 290.5 c 128,-1,17
 655 205 655 205 601 139 c 128,-1,18
 547 73 547 73 470.5 33 c 128,-1,19
 394 -7 394 -7 299 -7 c 0,0,1
307 57 m 0,20,21
 353 57 353 57 391 75.5 c 128,-1,22
 429 94 429 94 459 126 c 128,-1,23
 489 158 489 158 511.5 200 c 128,-1,24
 534 242 534 242 548.5 289 c 128,-1,25
 563 336 563 336 570.5 384 c 128,-1,26
 578 432 578 432 578 477 c 0,27,28
 578 513 578 513 570.5 543.5 c 128,-1,29
 563 574 563 574 547.5 596.5 c 128,-1,30
 532 619 532 619 508 631.5 c 128,-1,31
 484 644 484 644 451 644 c 0,32,33
 383 644 383 644 332.5 603 c 128,-1,34
 282 562 282 562 248.5 499.5 c 128,-1,35
 215 437 215 437 198.5 363 c 128,-1,36
 182 289 182 289 182 223 c 0,37,38
 182 187 182 187 189 156.5 c 128,-1,39
 196 126 196 126 211 104 c 128,-1,40
 226 82 226 82 250 69.5 c 128,-1,41
 274 57 274 57 307 57 c 0,20,21
537 916 m 1,42,43
 550 911 550 911 562.5 901 c 128,-1,44
 575 891 575 891 586.5 878 c 128,-1,45
 598 865 598 865 607.5 850 c 128,-1,46
 617 835 617 835 623 820 c 1,47,-1
 398 730 l 1,48,-1
 375 768 l 1,49,-1
 537 916 l 1,42,43
EndSplineSet
EndChar

StartChar: Ocircumflex
Encoding: 212 212 150
Width: 731
Flags: W
LayerCount: 2
Fore
SplineSet
299 -7 m 0,0,1
 236 -7 236 -7 188 10.5 c 128,-1,2
 140 28 140 28 108.5 59.5 c 128,-1,3
 77 91 77 91 61 135 c 128,-1,4
 45 179 45 179 45 233 c 0,5,6
 45 324 45 324 74.5 409.5 c 128,-1,7
 104 495 104 495 158.5 561.5 c 128,-1,8
 213 628 213 628 290 668 c 128,-1,9
 367 708 367 708 461 708 c 0,10,11
 524 708 524 708 571.5 690.5 c 128,-1,12
 619 673 619 673 650.5 641 c 128,-1,13
 682 609 682 609 698 565 c 128,-1,14
 714 521 714 521 714 467 c 0,15,16
 714 376 714 376 684.5 290.5 c 128,-1,17
 655 205 655 205 601 139 c 128,-1,18
 547 73 547 73 470.5 33 c 128,-1,19
 394 -7 394 -7 299 -7 c 0,0,1
307 57 m 0,20,21
 353 57 353 57 391 75.5 c 128,-1,22
 429 94 429 94 459 126 c 128,-1,23
 489 158 489 158 511.5 200 c 128,-1,24
 534 242 534 242 548.5 289 c 128,-1,25
 563 336 563 336 570.5 384 c 128,-1,26
 578 432 578 432 578 477 c 0,27,28
 578 513 578 513 570.5 543.5 c 128,-1,29
 563 574 563 574 547.5 596.5 c 128,-1,30
 532 619 532 619 508 631.5 c 128,-1,31
 484 644 484 644 451 644 c 0,32,33
 383 644 383 644 332.5 603 c 128,-1,34
 282 562 282 562 248.5 499.5 c 128,-1,35
 215 437 215 437 198.5 363 c 128,-1,36
 182 289 182 289 182 223 c 0,37,38
 182 187 182 187 189 156.5 c 128,-1,39
 196 126 196 126 211 104 c 128,-1,40
 226 82 226 82 250 69.5 c 128,-1,41
 274 57 274 57 307 57 c 0,20,21
669 796 m 1,42,-1
 601 772 l 1,43,-1
 505 837 l 1,44,-1
 377 772 l 1,45,-1
 309 796 l 1,46,-1
 463 918 l 1,47,-1
 572 918 l 1,48,-1
 669 796 l 1,42,-1
EndSplineSet
EndChar

StartChar: Otilde
Encoding: 213 213 151
Width: 731
Flags: W
LayerCount: 2
Fore
SplineSet
299 -7 m 0,0,1
 236 -7 236 -7 188 10.5 c 128,-1,2
 140 28 140 28 108.5 59.5 c 128,-1,3
 77 91 77 91 61 135 c 128,-1,4
 45 179 45 179 45 233 c 0,5,6
 45 324 45 324 74.5 409.5 c 128,-1,7
 104 495 104 495 158.5 561.5 c 128,-1,8
 213 628 213 628 290 668 c 128,-1,9
 367 708 367 708 461 708 c 0,10,11
 524 708 524 708 571.5 690.5 c 128,-1,12
 619 673 619 673 650.5 641 c 128,-1,13
 682 609 682 609 698 565 c 128,-1,14
 714 521 714 521 714 467 c 0,15,16
 714 376 714 376 684.5 290.5 c 128,-1,17
 655 205 655 205 601 139 c 128,-1,18
 547 73 547 73 470.5 33 c 128,-1,19
 394 -7 394 -7 299 -7 c 0,0,1
307 57 m 0,20,21
 353 57 353 57 391 75.5 c 128,-1,22
 429 94 429 94 459 126 c 128,-1,23
 489 158 489 158 511.5 200 c 128,-1,24
 534 242 534 242 548.5 289 c 128,-1,25
 563 336 563 336 570.5 384 c 128,-1,26
 578 432 578 432 578 477 c 0,27,28
 578 513 578 513 570.5 543.5 c 128,-1,29
 563 574 563 574 547.5 596.5 c 128,-1,30
 532 619 532 619 508 631.5 c 128,-1,31
 484 644 484 644 451 644 c 0,32,33
 383 644 383 644 332.5 603 c 128,-1,34
 282 562 282 562 248.5 499.5 c 128,-1,35
 215 437 215 437 198.5 363 c 128,-1,36
 182 289 182 289 182 223 c 0,37,38
 182 187 182 187 189 156.5 c 128,-1,39
 196 126 196 126 211 104 c 128,-1,40
 226 82 226 82 250 69.5 c 128,-1,41
 274 57 274 57 307 57 c 0,20,21
581 872 m 0,42,43
 605 872 605 872 629.5 883.5 c 128,-1,44
 654 895 654 895 684 915 c 1,45,-1
 713 872 l 1,46,47
 691 847 691 847 666 829 c 0,48,49
 644 812 644 812 616.5 799 c 128,-1,50
 589 786 589 786 560 786 c 0,51,52
 535 786 535 786 516.5 794.5 c 128,-1,53
 498 803 498 803 482 812.5 c 128,-1,54
 466 822 466 822 451 830.5 c 128,-1,55
 436 839 436 839 418 839 c 0,56,57
 375 839 375 839 316 796 c 1,58,-1
 285 838 l 1,59,60
 308 862 308 862 334 881 c 0,61,62
 356 898 356 898 383.5 911.5 c 128,-1,63
 411 925 411 925 440 925 c 0,64,65
 467 925 467 925 484 916.5 c 128,-1,66
 501 908 501 908 515.5 898.5 c 128,-1,67
 530 889 530 889 544.5 880.5 c 128,-1,68
 559 872 559 872 581 872 c 0,42,43
EndSplineSet
EndChar

StartChar: Odieresis
Encoding: 214 214 152
Width: 731
Flags: W
LayerCount: 2
Fore
SplineSet
299 -7 m 0,0,1
 236 -7 236 -7 188 10.5 c 128,-1,2
 140 28 140 28 108.5 59.5 c 128,-1,3
 77 91 77 91 61 135 c 128,-1,4
 45 179 45 179 45 233 c 0,5,6
 45 324 45 324 74.5 409.5 c 128,-1,7
 104 495 104 495 158.5 561.5 c 128,-1,8
 213 628 213 628 290 668 c 128,-1,9
 367 708 367 708 461 708 c 0,10,11
 524 708 524 708 571.5 690.5 c 128,-1,12
 619 673 619 673 650.5 641 c 128,-1,13
 682 609 682 609 698 565 c 128,-1,14
 714 521 714 521 714 467 c 0,15,16
 714 376 714 376 684.5 290.5 c 128,-1,17
 655 205 655 205 601 139 c 128,-1,18
 547 73 547 73 470.5 33 c 128,-1,19
 394 -7 394 -7 299 -7 c 0,0,1
307 57 m 0,20,21
 353 57 353 57 391 75.5 c 128,-1,22
 429 94 429 94 459 126 c 128,-1,23
 489 158 489 158 511.5 200 c 128,-1,24
 534 242 534 242 548.5 289 c 128,-1,25
 563 336 563 336 570.5 384 c 128,-1,26
 578 432 578 432 578 477 c 0,27,28
 578 513 578 513 570.5 543.5 c 128,-1,29
 563 574 563 574 547.5 596.5 c 128,-1,30
 532 619 532 619 508 631.5 c 128,-1,31
 484 644 484 644 451 644 c 0,32,33
 383 644 383 644 332.5 603 c 128,-1,34
 282 562 282 562 248.5 499.5 c 128,-1,35
 215 437 215 437 198.5 363 c 128,-1,36
 182 289 182 289 182 223 c 0,37,38
 182 187 182 187 189 156.5 c 128,-1,39
 196 126 196 126 211 104 c 128,-1,40
 226 82 226 82 250 69.5 c 128,-1,41
 274 57 274 57 307 57 c 0,20,21
315 847 m 256,42,43
 315 881 315 881 338 903.5 c 128,-1,44
 361 926 361 926 395 926 c 0,45,46
 428 926 428 926 450.5 903.5 c 128,-1,47
 473 881 473 881 473 847 c 256,48,49
 473 813 473 813 450.5 790.5 c 128,-1,50
 428 768 428 768 395 768 c 0,51,52
 361 768 361 768 338 790.5 c 128,-1,53
 315 813 315 813 315 847 c 256,42,43
524 847 m 256,54,55
 524 881 524 881 547.5 903.5 c 128,-1,56
 571 926 571 926 604 926 c 0,57,58
 638 926 638 926 660.5 903.5 c 128,-1,59
 683 881 683 881 683 847 c 256,60,61
 683 813 683 813 660.5 790.5 c 128,-1,62
 638 768 638 768 604 768 c 0,63,64
 571 768 571 768 547.5 790.5 c 128,-1,65
 524 813 524 813 524 847 c 256,54,55
EndSplineSet
EndChar

StartChar: multiply
Encoding: 215 215 153
Width: 602
Flags: W
LayerCount: 2
Fore
SplineSet
154 577 m 1,0,-1
 317 415 l 1,1,-1
 480 578 l 1,2,-1
 537 521 l 1,3,-1
 374 357 l 1,4,-1
 537 194 l 1,5,-1
 480 137 l 1,6,-1
 317 300 l 1,7,-1
 155 138 l 1,8,-1
 97 195 l 1,9,-1
 260 357 l 1,10,-1
 97 520 l 1,11,-1
 154 577 l 1,0,-1
EndSplineSet
EndChar

StartChar: Oslash
Encoding: 216 216 154
Width: 731
Flags: W
LayerCount: 2
Fore
SplineSet
299 -7 m 0,0,1
 272 -7 272 -7 250 -4 c 1,2,-1
 231 -40 l 1,3,-1
 147 -40 l 1,4,-1
 176 15 l 1,5,6
 110 42 110 42 77.5 98.5 c 128,-1,7
 45 155 45 155 45 233 c 0,8,9
 45 324 45 324 74.5 409.5 c 128,-1,10
 104 495 104 495 158.5 561.5 c 128,-1,11
 213 628 213 628 290 668 c 128,-1,12
 367 708 367 708 461 708 c 0,13,14
 499 708 499 708 536 700 c 1,15,-1
 556 739 l 1,16,-1
 640 739 l 1,17,-1
 606 675 l 1,18,19
 660 644 660 644 687 590.5 c 128,-1,20
 714 537 714 537 714 467 c 0,21,22
 714 376 714 376 684.5 290.5 c 128,-1,23
 655 205 655 205 601 139 c 128,-1,24
 547 73 547 73 470.5 33 c 128,-1,25
 394 -7 394 -7 299 -7 c 0,0,1
182 223 m 0,26,27
 182 183 182 183 190.5 150 c 128,-1,28
 199 117 199 117 218 95 c 1,29,-1
 501 634 l 1,30,31
 478 644 478 644 451 644 c 0,32,33
 383 644 383 644 332.5 603 c 128,-1,34
 282 562 282 562 248.5 499.5 c 128,-1,35
 215 437 215 437 198.5 363 c 128,-1,36
 182 289 182 289 182 223 c 0,26,27
307 57 m 0,37,38
 353 57 353 57 391 75.5 c 128,-1,39
 429 94 429 94 459 126 c 128,-1,40
 489 158 489 158 511.5 200 c 128,-1,41
 534 242 534 242 548.5 289 c 128,-1,42
 563 336 563 336 570.5 384 c 128,-1,43
 578 432 578 432 578 477 c 0,44,45
 578 539 578 539 557 581 c 1,46,-1
 283 59 l 1,47,48
 288 58 288 58 294 57.5 c 128,-1,49
 300 57 300 57 307 57 c 0,37,38
EndSplineSet
EndChar

StartChar: Ugrave
Encoding: 217 217 155
Width: 731
Flags: W
LayerCount: 2
Fore
SplineSet
802 649 m 1,0,-1
 709 628 l 1,1,-1
 620 269 l 2,2,3
 585 129 585 129 505 61 c 128,-1,4
 425 -7 425 -7 304 -7 c 0,5,6
 200 -7 200 -7 142.5 36 c 128,-1,7
 85 79 85 79 85 169 c 0,8,9
 85 210 85 210 100 269 c 2,10,-1
 188 627 l 1,11,-1
 108 649 l 1,12,-1
 121 700 l 1,13,-1
 425 700 l 1,14,-1
 412 649 l 1,15,-1
 319 627 l 1,16,-1
 229 269 l 2,17,18
 223 244 223 244 219.5 223 c 128,-1,19
 216 202 216 202 216 184 c 0,20,21
 216 162 216 162 223.5 142 c 128,-1,22
 231 122 231 122 246.5 107 c 128,-1,23
 262 92 262 92 285.5 83.5 c 128,-1,24
 309 75 309 75 341 75 c 0,25,26
 417 75 417 75 470.5 128 c 128,-1,27
 524 181 524 181 546 269 c 2,28,-1
 635 627 l 1,29,-1
 556 649 l 1,30,-1
 568 700 l 1,31,-1
 815 700 l 1,32,-1
 802 649 l 1,0,-1
547 778 m 1,33,-1
 523 740 l 1,34,-1
 303 828 l 1,35,36
 309 843 309 843 318.5 858 c 128,-1,37
 328 873 328 873 339 886.5 c 128,-1,38
 350 900 350 900 363 910 c 128,-1,39
 376 920 376 920 389 924 c 1,40,-1
 547 778 l 1,33,-1
EndSplineSet
EndChar

StartChar: Uacute
Encoding: 218 218 156
Width: 731
Flags: W
LayerCount: 2
Fore
SplineSet
802 649 m 1,0,-1
 709 628 l 1,1,-1
 620 269 l 2,2,3
 585 129 585 129 505 61 c 128,-1,4
 425 -7 425 -7 304 -7 c 0,5,6
 200 -7 200 -7 142.5 36 c 128,-1,7
 85 79 85 79 85 169 c 0,8,9
 85 210 85 210 100 269 c 2,10,-1
 188 627 l 1,11,-1
 108 649 l 1,12,-1
 121 700 l 1,13,-1
 425 700 l 1,14,-1
 412 649 l 1,15,-1
 319 627 l 1,16,-1
 229 269 l 2,17,18
 223 244 223 244 219.5 223 c 128,-1,19
 216 202 216 202 216 184 c 0,20,21
 216 162 216 162 223.5 142 c 128,-1,22
 231 122 231 122 246.5 107 c 128,-1,23
 262 92 262 92 285.5 83.5 c 128,-1,24
 309 75 309 75 341 75 c 0,25,26
 417 75 417 75 470.5 128 c 128,-1,27
 524 181 524 181 546 269 c 2,28,-1
 635 627 l 1,29,-1
 556 649 l 1,30,-1
 568 700 l 1,31,-1
 815 700 l 1,32,-1
 802 649 l 1,0,-1
593 916 m 1,33,34
 606 911 606 911 618.5 901 c 128,-1,35
 631 891 631 891 642.5 878 c 128,-1,36
 654 865 654 865 663.5 850 c 128,-1,37
 673 835 673 835 679 820 c 1,38,-1
 454 730 l 1,39,-1
 431 768 l 1,40,-1
 593 916 l 1,33,34
EndSplineSet
EndChar

StartChar: Ucircumflex
Encoding: 219 219 157
Width: 731
Flags: W
LayerCount: 2
Fore
SplineSet
802 649 m 1,0,-1
 709 628 l 1,1,-1
 620 269 l 2,2,3
 585 129 585 129 505 61 c 128,-1,4
 425 -7 425 -7 304 -7 c 0,5,6
 200 -7 200 -7 142.5 36 c 128,-1,7
 85 79 85 79 85 169 c 0,8,9
 85 210 85 210 100 269 c 2,10,-1
 188 627 l 1,11,-1
 108 649 l 1,12,-1
 121 700 l 1,13,-1
 425 700 l 1,14,-1
 412 649 l 1,15,-1
 319 627 l 1,16,-1
 229 269 l 2,17,18
 223 244 223 244 219.5 223 c 128,-1,19
 216 202 216 202 216 184 c 0,20,21
 216 162 216 162 223.5 142 c 128,-1,22
 231 122 231 122 246.5 107 c 128,-1,23
 262 92 262 92 285.5 83.5 c 128,-1,24
 309 75 309 75 341 75 c 0,25,26
 417 75 417 75 470.5 128 c 128,-1,27
 524 181 524 181 546 269 c 2,28,-1
 635 627 l 1,29,-1
 556 649 l 1,30,-1
 568 700 l 1,31,-1
 815 700 l 1,32,-1
 802 649 l 1,0,-1
665 796 m 1,33,-1
 597 772 l 1,34,-1
 501 837 l 1,35,-1
 373 772 l 1,36,-1
 305 796 l 1,37,-1
 459 918 l 1,38,-1
 568 918 l 1,39,-1
 665 796 l 1,33,-1
EndSplineSet
EndChar

StartChar: Udieresis
Encoding: 220 220 158
Width: 731
Flags: W
LayerCount: 2
Fore
SplineSet
802 649 m 1,0,-1
 709 628 l 1,1,-1
 620 269 l 2,2,3
 585 129 585 129 505 61 c 128,-1,4
 425 -7 425 -7 304 -7 c 0,5,6
 200 -7 200 -7 142.5 36 c 128,-1,7
 85 79 85 79 85 169 c 0,8,9
 85 210 85 210 100 269 c 2,10,-1
 188 627 l 1,11,-1
 108 649 l 1,12,-1
 121 700 l 1,13,-1
 425 700 l 1,14,-1
 412 649 l 1,15,-1
 319 627 l 1,16,-1
 229 269 l 2,17,18
 223 244 223 244 219.5 223 c 128,-1,19
 216 202 216 202 216 184 c 0,20,21
 216 162 216 162 223.5 142 c 128,-1,22
 231 122 231 122 246.5 107 c 128,-1,23
 262 92 262 92 285.5 83.5 c 128,-1,24
 309 75 309 75 341 75 c 0,25,26
 417 75 417 75 470.5 128 c 128,-1,27
 524 181 524 181 546 269 c 2,28,-1
 635 627 l 1,29,-1
 556 649 l 1,30,-1
 568 700 l 1,31,-1
 815 700 l 1,32,-1
 802 649 l 1,0,-1
520 847 m 256,33,34
 520 881 520 881 543.5 903.5 c 128,-1,35
 567 926 567 926 600 926 c 0,36,37
 634 926 634 926 656.5 903.5 c 128,-1,38
 679 881 679 881 679 847 c 256,39,40
 679 813 679 813 656.5 790.5 c 128,-1,41
 634 768 634 768 600 768 c 0,42,43
 567 768 567 768 543.5 790.5 c 128,-1,44
 520 813 520 813 520 847 c 256,33,34
311 847 m 256,45,46
 311 881 311 881 334 903.5 c 128,-1,47
 357 926 357 926 391 926 c 0,48,49
 424 926 424 926 446.5 903.5 c 128,-1,50
 469 881 469 881 469 847 c 256,51,52
 469 813 469 813 446.5 790.5 c 128,-1,53
 424 768 424 768 391 768 c 0,54,55
 357 768 357 768 334 790.5 c 128,-1,56
 311 813 311 813 311 847 c 256,45,46
EndSplineSet
EndChar

StartChar: Yacute
Encoding: 221 221 159
Width: 627
Flags: W
LayerCount: 2
Fore
SplineSet
481 700 m 1,0,-1
 727 700 l 1,1,-1
 713 649 l 1,2,-1
 630 624 l 1,3,-1
 392 326 l 1,4,-1
 329 73 l 1,5,-1
 417 51 l 1,6,-1
 405 0 l 1,7,-1
 102 0 l 1,8,-1
 114 51 l 1,9,-1
 199 73 l 1,10,-1
 261 326 l 1,11,-1
 155 627 l 1,12,-1
 74 649 l 1,13,-1
 87 700 l 1,14,-1
 358 700 l 1,15,-1
 346 649 l 1,16,-1
 285 637 l 1,17,-1
 364 408 l 1,18,-1
 539 630 l 1,19,-1
 468 649 l 1,20,-1
 481 700 l 1,0,-1
516 916 m 1,21,22
 529 911 529 911 541.5 901 c 128,-1,23
 554 891 554 891 565.5 878 c 128,-1,24
 577 865 577 865 586.5 850 c 128,-1,25
 596 835 596 835 602 820 c 1,26,-1
 377 730 l 1,27,-1
 354 768 l 1,28,-1
 516 916 l 1,21,22
EndSplineSet
EndChar

StartChar: Thorn
Encoding: 222 222 160
Width: 583
Flags: W
LayerCount: 2
Fore
SplineSet
269 0 m 1,0,-1
 -36 0 l 1,1,-1
 -24 46 l 1,2,-1
 68 68 l 1,3,-1
 208 632 l 1,4,-1
 127 654 l 1,5,-1
 138 700 l 1,6,-1
 442 700 l 1,7,-1
 431 654 l 1,8,-1
 338 632 l 1,9,-1
 319 553 l 1,10,-1
 360 553 l 2,11,12
 408 553 408 553 448 543.5 c 128,-1,13
 488 534 488 534 517 514.5 c 128,-1,14
 546 495 546 495 562 463.5 c 128,-1,15
 578 432 578 432 578 389 c 0,16,17
 578 327 578 327 552.5 281.5 c 128,-1,18
 527 236 527 236 484.5 206 c 128,-1,19
 442 176 442 176 386.5 161.5 c 128,-1,20
 331 147 331 147 271 147 c 2,21,-1
 217 147 l 1,22,-1
 198 68 l 1,23,-1
 280 46 l 1,24,-1
 269 0 l 1,0,-1
301 485 m 1,25,-1
 235 217 l 1,26,-1
 267 217 l 2,27,28
 304 217 304 217 336.5 227.5 c 128,-1,29
 369 238 369 238 393 260 c 128,-1,30
 417 282 417 282 431 314.5 c 128,-1,31
 445 347 445 347 445 391 c 0,32,33
 445 485 445 485 330 485 c 2,34,-1
 301 485 l 1,25,-1
EndSplineSet
EndChar

StartChar: germandbls
Encoding: 223 223 161
Width: 629
Flags: W
LayerCount: 2
Fore
SplineSet
443 807 m 0,0,1
 525 807 525 807 575 772 c 128,-1,2
 625 737 625 737 625 674 c 0,3,4
 625 631 625 631 607.5 603 c 128,-1,5
 590 575 590 575 564 556 c 128,-1,6
 538 537 538 537 507 523.5 c 128,-1,7
 476 510 476 510 450 495 c 128,-1,8
 424 480 424 480 406.5 460 c 128,-1,9
 389 440 389 440 389 408 c 0,10,11
 389 372 389 372 408 346 c 128,-1,12
 427 320 427 320 463 292 c 0,13,14
 488 273 488 273 509 256.5 c 128,-1,15
 530 240 530 240 545 222 c 128,-1,16
 560 204 560 204 568 183.5 c 128,-1,17
 576 163 576 163 576 136 c 0,18,19
 576 66 576 66 521.5 29.5 c 128,-1,20
 467 -7 467 -7 369 -7 c 0,21,22
 282 -7 282 -7 231 12.5 c 128,-1,23
 180 32 180 32 180 75 c 0,24,25
 180 108 180 108 203 131 c 128,-1,26
 226 154 226 154 262 179 c 1,27,28
 278 152 278 152 291.5 127.5 c 128,-1,29
 305 103 305 103 319.5 84.5 c 128,-1,30
 334 66 334 66 351.5 55 c 128,-1,31
 369 44 369 44 393 44 c 0,32,33
 425 44 425 44 443 61.5 c 128,-1,34
 461 79 461 79 461 106 c 0,35,36
 461 135 461 135 447 156.5 c 128,-1,37
 433 178 433 178 412 196 c 128,-1,38
 391 214 391 214 366 230.5 c 128,-1,39
 341 247 341 247 320 267.5 c 128,-1,40
 299 288 299 288 285 314.5 c 128,-1,41
 271 341 271 341 271 379 c 0,42,43
 271 420 271 420 288 445.5 c 128,-1,44
 305 471 305 471 330.5 489.5 c 128,-1,45
 356 508 356 508 385.5 522 c 128,-1,46
 415 536 415 536 440.5 554 c 128,-1,47
 466 572 466 572 483 596.5 c 128,-1,48
 500 621 500 621 500 661 c 256,49,50
 500 701 500 701 482 727 c 128,-1,51
 464 753 464 753 427 753 c 0,52,53
 408 753 408 753 387.5 745.5 c 128,-1,54
 367 738 367 738 346.5 716.5 c 128,-1,55
 326 695 326 695 306.5 654.5 c 128,-1,56
 287 614 287 614 270 548 c 2,57,-1
 128 0 l 1,58,-1
 0 -7 l 1,59,-1
 150 573 l 2,60,61
 167 639 167 639 195.5 684 c 128,-1,62
 224 729 224 729 261.5 756 c 128,-1,63
 299 783 299 783 344.5 795 c 128,-1,64
 390 807 390 807 443 807 c 0,0,1
EndSplineSet
EndChar

StartChar: agrave
Encoding: 224 224 162
Width: 584
Flags: W
LayerCount: 2
Fore
SplineSet
303 83 m 1,0,1
 266 41 266 41 222 17 c 128,-1,2
 178 -7 178 -7 133 -7 c 0,3,4
 81 -7 81 -7 49 29 c 128,-1,5
 17 65 17 65 17 137 c 0,6,7
 17 217 17 217 43 284.5 c 128,-1,8
 69 352 69 352 113.5 401.5 c 128,-1,9
 158 451 158 451 218.5 479 c 128,-1,10
 279 507 279 507 348 507 c 0,11,12
 402 507 402 507 447 494 c 128,-1,13
 492 481 492 481 528 461 c 1,14,-1
 429 79 l 1,15,-1
 527 79 l 1,16,-1
 527 37 l 1,17,18
 505 31 505 31 483 25 c 0,19,20
 464 20 464 20 443.5 14.5 c 128,-1,21
 423 9 423 9 406 5 c 0,22,23
 401 3 401 3 391 1 c 128,-1,24
 381 -1 381 -1 369.5 -2.5 c 128,-1,25
 358 -4 358 -4 347 -5.5 c 128,-1,26
 336 -7 336 -7 329 -7 c 0,27,28
 292 -7 292 -7 292 26 c 0,29,30
 292 30 292 30 292.5 38.5 c 128,-1,31
 293 47 293 47 298 64 c 2,32,-1
 303 83 l 1,0,1
192 72 m 0,33,34
 210 72 210 72 229 82 c 128,-1,35
 248 92 248 92 266.5 109 c 128,-1,36
 285 126 285 126 301.5 147 c 128,-1,37
 318 168 318 168 331 191 c 1,38,-1
 399 448 l 1,39,40
 384 453 384 453 355 453 c 0,41,42
 314 453 314 453 276.5 426 c 128,-1,43
 239 399 239 399 211 355.5 c 128,-1,44
 183 312 183 312 166.5 257.5 c 128,-1,45
 150 203 150 203 150 147 c 0,46,47
 150 106 150 106 161 89 c 128,-1,48
 172 72 172 72 192 72 c 0,33,34
392 602 m 1,49,-1
 335 574 l 1,50,-1
 199 746 l 1,51,52
 228 771 228 771 258.5 782 c 128,-1,53
 289 793 289 793 313 796 c 1,54,-1
 392 602 l 1,49,-1
EndSplineSet
EndChar

StartChar: aacute
Encoding: 225 225 163
Width: 584
Flags: W
LayerCount: 2
Fore
SplineSet
303 83 m 1,0,1
 266 41 266 41 222 17 c 128,-1,2
 178 -7 178 -7 133 -7 c 0,3,4
 81 -7 81 -7 49 29 c 128,-1,5
 17 65 17 65 17 137 c 0,6,7
 17 217 17 217 43 284.5 c 128,-1,8
 69 352 69 352 113.5 401.5 c 128,-1,9
 158 451 158 451 218.5 479 c 128,-1,10
 279 507 279 507 348 507 c 0,11,12
 402 507 402 507 447 494 c 128,-1,13
 492 481 492 481 528 461 c 1,14,-1
 429 79 l 1,15,-1
 527 79 l 1,16,-1
 527 37 l 1,17,18
 505 31 505 31 483 25 c 0,19,20
 464 20 464 20 443.5 14.5 c 128,-1,21
 423 9 423 9 406 5 c 0,22,23
 401 3 401 3 391 1 c 128,-1,24
 381 -1 381 -1 369.5 -2.5 c 128,-1,25
 358 -4 358 -4 347 -5.5 c 128,-1,26
 336 -7 336 -7 329 -7 c 0,27,28
 292 -7 292 -7 292 26 c 0,29,30
 292 30 292 30 292.5 38.5 c 128,-1,31
 293 47 293 47 298 64 c 2,32,-1
 303 83 l 1,0,1
192 72 m 0,33,34
 210 72 210 72 229 82 c 128,-1,35
 248 92 248 92 266.5 109 c 128,-1,36
 285 126 285 126 301.5 147 c 128,-1,37
 318 168 318 168 331 191 c 1,38,-1
 399 448 l 1,39,40
 384 453 384 453 355 453 c 0,41,42
 314 453 314 453 276.5 426 c 128,-1,43
 239 399 239 399 211 355.5 c 128,-1,44
 183 312 183 312 166.5 257.5 c 128,-1,45
 150 203 150 203 150 147 c 0,46,47
 150 106 150 106 161 89 c 128,-1,48
 172 72 172 72 192 72 c 0,33,34
361 794 m 1,49,50
 386 791 386 791 416 780 c 128,-1,51
 446 769 446 769 475 744 c 1,52,-1
 334 567 l 1,53,-1
 277 595 l 1,54,-1
 361 794 l 1,49,50
EndSplineSet
EndChar

StartChar: acircumflex
Encoding: 226 226 164
Width: 584
Flags: W
LayerCount: 2
Fore
SplineSet
303 83 m 1,0,1
 266 41 266 41 222 17 c 128,-1,2
 178 -7 178 -7 133 -7 c 0,3,4
 81 -7 81 -7 49 29 c 128,-1,5
 17 65 17 65 17 137 c 0,6,7
 17 217 17 217 43 284.5 c 128,-1,8
 69 352 69 352 113.5 401.5 c 128,-1,9
 158 451 158 451 218.5 479 c 128,-1,10
 279 507 279 507 348 507 c 0,11,12
 402 507 402 507 447 494 c 128,-1,13
 492 481 492 481 528 461 c 1,14,-1
 429 79 l 1,15,-1
 527 79 l 1,16,-1
 527 37 l 1,17,18
 505 31 505 31 483 25 c 0,19,20
 464 20 464 20 443.5 14.5 c 128,-1,21
 423 9 423 9 406 5 c 0,22,23
 401 3 401 3 391 1 c 128,-1,24
 381 -1 381 -1 369.5 -2.5 c 128,-1,25
 358 -4 358 -4 347 -5.5 c 128,-1,26
 336 -7 336 -7 329 -7 c 0,27,28
 292 -7 292 -7 292 26 c 0,29,30
 292 30 292 30 292.5 38.5 c 128,-1,31
 293 47 293 47 298 64 c 2,32,-1
 303 83 l 1,0,1
192 72 m 0,33,34
 210 72 210 72 229 82 c 128,-1,35
 248 92 248 92 266.5 109 c 128,-1,36
 285 126 285 126 301.5 147 c 128,-1,37
 318 168 318 168 331 191 c 1,38,-1
 399 448 l 1,39,40
 384 453 384 453 355 453 c 0,41,42
 314 453 314 453 276.5 426 c 128,-1,43
 239 399 239 399 211 355.5 c 128,-1,44
 183 312 183 312 166.5 257.5 c 128,-1,45
 150 203 150 203 150 147 c 0,46,47
 150 106 150 106 161 89 c 128,-1,48
 172 72 172 72 192 72 c 0,33,34
498 594 m 1,49,-1
 425 570 l 1,50,-1
 357 709 l 1,51,-1
 222 570 l 1,52,-1
 153 594 l 1,53,-1
 314 788 l 1,54,-1
 427 788 l 1,55,-1
 498 594 l 1,49,-1
EndSplineSet
EndChar

StartChar: atilde
Encoding: 227 227 165
Width: 584
Flags: W
LayerCount: 2
Fore
SplineSet
303 83 m 1,0,1
 266 41 266 41 222 17 c 128,-1,2
 178 -7 178 -7 133 -7 c 0,3,4
 81 -7 81 -7 49 29 c 128,-1,5
 17 65 17 65 17 137 c 0,6,7
 17 217 17 217 43 284.5 c 128,-1,8
 69 352 69 352 113.5 401.5 c 128,-1,9
 158 451 158 451 218.5 479 c 128,-1,10
 279 507 279 507 348 507 c 0,11,12
 402 507 402 507 447 494 c 128,-1,13
 492 481 492 481 528 461 c 1,14,-1
 429 79 l 1,15,-1
 527 79 l 1,16,-1
 527 37 l 1,17,18
 505 31 505 31 483 25 c 0,19,20
 464 20 464 20 443.5 14.5 c 128,-1,21
 423 9 423 9 406 5 c 0,22,23
 401 3 401 3 391 1 c 128,-1,24
 381 -1 381 -1 369.5 -2.5 c 128,-1,25
 358 -4 358 -4 347 -5.5 c 128,-1,26
 336 -7 336 -7 329 -7 c 0,27,28
 292 -7 292 -7 292 26 c 0,29,30
 292 30 292 30 292.5 38.5 c 128,-1,31
 293 47 293 47 298 64 c 2,32,-1
 303 83 l 1,0,1
192 72 m 0,33,34
 210 72 210 72 229 82 c 128,-1,35
 248 92 248 92 266.5 109 c 128,-1,36
 285 126 285 126 301.5 147 c 128,-1,37
 318 168 318 168 331 191 c 1,38,-1
 399 448 l 1,39,40
 384 453 384 453 355 453 c 0,41,42
 314 453 314 453 276.5 426 c 128,-1,43
 239 399 239 399 211 355.5 c 128,-1,44
 183 312 183 312 166.5 257.5 c 128,-1,45
 150 203 150 203 150 147 c 0,46,47
 150 106 150 106 161 89 c 128,-1,48
 172 72 172 72 192 72 c 0,33,34
426 699 m 0,49,50
 450 699 450 699 472 711 c 128,-1,51
 494 723 494 723 523 743 c 1,52,-1
 552 706 l 1,53,54
 531 681 531 681 507 662 c 0,55,56
 487 645 487 645 459.5 632 c 128,-1,57
 432 619 432 619 403 619 c 0,58,59
 381 619 381 619 364 627.5 c 128,-1,60
 347 636 347 636 331.5 645.5 c 128,-1,61
 316 655 316 655 301.5 663.5 c 128,-1,62
 287 672 287 672 271 672 c 0,63,64
 251 672 251 672 232.5 661.5 c 128,-1,65
 214 651 214 651 184 629 c 1,66,-1
 154 665 l 1,67,68
 172 690 172 690 195 709 c 1,69,70
 214 726 214 726 239.5 739.5 c 128,-1,71
 265 753 265 753 294 753 c 0,72,73
 316 753 316 753 332.5 744.5 c 128,-1,74
 349 736 349 736 363.5 726 c 128,-1,75
 378 716 378 716 392.5 707.5 c 128,-1,76
 407 699 407 699 426 699 c 0,49,50
EndSplineSet
EndChar

StartChar: adieresis
Encoding: 228 228 166
Width: 584
Flags: W
LayerCount: 2
Fore
SplineSet
303 83 m 1,0,1
 266 41 266 41 222 17 c 128,-1,2
 178 -7 178 -7 133 -7 c 0,3,4
 81 -7 81 -7 49 29 c 128,-1,5
 17 65 17 65 17 137 c 0,6,7
 17 217 17 217 43 284.5 c 128,-1,8
 69 352 69 352 113.5 401.5 c 128,-1,9
 158 451 158 451 218.5 479 c 128,-1,10
 279 507 279 507 348 507 c 0,11,12
 402 507 402 507 447 494 c 128,-1,13
 492 481 492 481 528 461 c 1,14,-1
 429 79 l 1,15,-1
 527 79 l 1,16,-1
 527 37 l 1,17,18
 505 31 505 31 483 25 c 0,19,20
 464 20 464 20 443.5 14.5 c 128,-1,21
 423 9 423 9 406 5 c 0,22,23
 401 3 401 3 391 1 c 128,-1,24
 381 -1 381 -1 369.5 -2.5 c 128,-1,25
 358 -4 358 -4 347 -5.5 c 128,-1,26
 336 -7 336 -7 329 -7 c 0,27,28
 292 -7 292 -7 292 26 c 0,29,30
 292 30 292 30 292.5 38.5 c 128,-1,31
 293 47 293 47 298 64 c 2,32,-1
 303 83 l 1,0,1
192 72 m 0,33,34
 210 72 210 72 229 82 c 128,-1,35
 248 92 248 92 266.5 109 c 128,-1,36
 285 126 285 126 301.5 147 c 128,-1,37
 318 168 318 168 331 191 c 1,38,-1
 399 448 l 1,39,40
 384 453 384 453 355 453 c 0,41,42
 314 453 314 453 276.5 426 c 128,-1,43
 239 399 239 399 211 355.5 c 128,-1,44
 183 312 183 312 166.5 257.5 c 128,-1,45
 150 203 150 203 150 147 c 0,46,47
 150 106 150 106 161 89 c 128,-1,48
 172 72 172 72 192 72 c 0,33,34
386 681 m 256,49,50
 386 715 386 715 409.5 737.5 c 128,-1,51
 433 760 433 760 466 760 c 0,52,53
 500 760 500 760 522.5 737.5 c 128,-1,54
 545 715 545 715 545 681 c 256,55,56
 545 647 545 647 522.5 624.5 c 128,-1,57
 500 602 500 602 466 602 c 0,58,59
 433 602 433 602 409.5 624.5 c 128,-1,60
 386 647 386 647 386 681 c 256,49,50
167 681 m 256,61,62
 167 715 167 715 190 737.5 c 128,-1,63
 213 760 213 760 247 760 c 0,64,65
 280 760 280 760 302.5 737.5 c 128,-1,66
 325 715 325 715 325 681 c 256,67,68
 325 647 325 647 302.5 624.5 c 128,-1,69
 280 602 280 602 247 602 c 0,70,71
 213 602 213 602 190 624.5 c 128,-1,72
 167 647 167 647 167 681 c 256,61,62
EndSplineSet
EndChar

StartChar: aring
Encoding: 229 229 167
Width: 584
Flags: W
LayerCount: 2
Fore
SplineSet
303 83 m 1,0,1
 266 41 266 41 222 17 c 128,-1,2
 178 -7 178 -7 133 -7 c 0,3,4
 81 -7 81 -7 49 29 c 128,-1,5
 17 65 17 65 17 137 c 0,6,7
 17 217 17 217 43 284.5 c 128,-1,8
 69 352 69 352 113.5 401.5 c 128,-1,9
 158 451 158 451 218.5 479 c 128,-1,10
 279 507 279 507 348 507 c 0,11,12
 402 507 402 507 447 494 c 128,-1,13
 492 481 492 481 528 461 c 1,14,-1
 429 79 l 1,15,-1
 527 79 l 1,16,-1
 527 37 l 1,17,18
 505 31 505 31 483 25 c 0,19,20
 464 20 464 20 443.5 14.5 c 128,-1,21
 423 9 423 9 406 5 c 0,22,23
 401 3 401 3 391 1 c 128,-1,24
 381 -1 381 -1 369.5 -2.5 c 128,-1,25
 358 -4 358 -4 347 -5.5 c 128,-1,26
 336 -7 336 -7 329 -7 c 0,27,28
 292 -7 292 -7 292 26 c 0,29,30
 292 30 292 30 292.5 38.5 c 128,-1,31
 293 47 293 47 298 64 c 2,32,-1
 303 83 l 1,0,1
192 72 m 0,33,34
 210 72 210 72 229 82 c 128,-1,35
 248 92 248 92 266.5 109 c 128,-1,36
 285 126 285 126 301.5 147 c 128,-1,37
 318 168 318 168 331 191 c 1,38,-1
 399 448 l 1,39,40
 384 453 384 453 355 453 c 0,41,42
 314 453 314 453 276.5 426 c 128,-1,43
 239 399 239 399 211 355.5 c 128,-1,44
 183 312 183 312 166.5 257.5 c 128,-1,45
 150 203 150 203 150 147 c 0,46,47
 150 106 150 106 161 89 c 128,-1,48
 172 72 172 72 192 72 c 0,33,34
246 690 m 256,49,50
 246 715 246 715 255.5 736.5 c 128,-1,51
 265 758 265 758 281.5 774.5 c 128,-1,52
 298 791 298 791 319.5 800.5 c 128,-1,53
 341 810 341 810 366 810 c 256,54,55
 391 810 391 810 412.5 800.5 c 128,-1,56
 434 791 434 791 450.5 774.5 c 128,-1,57
 467 758 467 758 476.5 736.5 c 128,-1,58
 486 715 486 715 486 690 c 256,59,60
 486 665 486 665 476.5 643.5 c 128,-1,61
 467 622 467 622 450.5 605.5 c 128,-1,62
 434 589 434 589 412.5 579.5 c 128,-1,63
 391 570 391 570 366 570 c 256,64,65
 341 570 341 570 319.5 579.5 c 128,-1,66
 298 589 298 589 281.5 605.5 c 128,-1,67
 265 622 265 622 255.5 643.5 c 128,-1,68
 246 665 246 665 246 690 c 256,49,50
314 690 m 256,69,70
 314 668 314 668 328.5 653.5 c 128,-1,71
 343 639 343 639 366 639 c 0,72,73
 388 639 388 639 402.5 653.5 c 128,-1,74
 417 668 417 668 417 690 c 256,75,76
 417 712 417 712 402.5 726 c 128,-1,77
 388 740 388 740 366 740 c 0,78,79
 343 740 343 740 328.5 726 c 128,-1,80
 314 712 314 712 314 690 c 256,69,70
EndSplineSet
EndChar

StartChar: ae
Encoding: 230 230 168
Width: 767
Flags: W
LayerCount: 2
Fore
SplineSet
757 401 m 0,0,1
 757 355 757 355 730 322 c 128,-1,2
 703 289 703 289 657.5 267 c 128,-1,3
 612 245 612 245 553 233.5 c 128,-1,4
 494 222 494 222 430 220 c 1,5,6
 429 212 429 212 428.5 204 c 128,-1,7
 428 196 428 196 428 187 c 0,8,9
 428 160 428 160 431.5 135.5 c 128,-1,10
 435 111 435 111 445.5 92.5 c 128,-1,11
 456 74 456 74 474.5 63 c 128,-1,12
 493 52 493 52 523 52 c 0,13,14
 551 52 551 52 589 59.5 c 128,-1,15
 627 67 627 67 659 79 c 1,16,-1
 670 43 l 1,17,18
 637 26 637 26 584 9.5 c 128,-1,19
 531 -7 531 -7 454 -7 c 0,20,21
 358 -7 358 -7 318 56 c 1,22,23
 303 45 303 45 286 33.5 c 128,-1,24
 269 22 269 22 247.5 13 c 128,-1,25
 226 4 226 4 199.5 -1.5 c 128,-1,26
 173 -7 173 -7 140 -7 c 0,27,28
 74 -7 74 -7 39 24.5 c 128,-1,29
 4 56 4 56 4 109 c 0,30,31
 4 154 4 154 27 186 c 128,-1,32
 50 218 50 218 91 239 c 128,-1,33
 132 260 132 260 188.5 269.5 c 128,-1,34
 245 279 245 279 312 279 c 1,35,-1
 319 300 l 2,36,37
 326 320 326 320 331 343 c 128,-1,38
 336 366 336 366 336 386 c 0,39,40
 336 460 336 460 268 460 c 0,41,42
 225 460 225 460 205.5 424.5 c 128,-1,43
 186 389 186 389 185 321 c 1,44,45
 169 321 169 321 149 325.5 c 128,-1,46
 129 330 129 330 111 339.5 c 128,-1,47
 93 349 93 349 81 365 c 128,-1,48
 69 381 69 381 69 405 c 0,49,50
 69 433 69 433 85.5 452.5 c 128,-1,51
 102 472 102 472 128 484 c 128,-1,52
 154 496 154 496 186.5 501.5 c 128,-1,53
 219 507 219 507 251 507 c 0,54,55
 299 507 299 507 343.5 493.5 c 128,-1,56
 388 480 388 480 417 442 c 1,57,58
 452 471 452 471 496.5 489 c 128,-1,59
 541 507 541 507 595 507 c 0,60,61
 678 507 678 507 717.5 478.5 c 128,-1,62
 757 450 757 450 757 401 c 0,0,1
588 459 m 0,63,64
 565 459 565 459 542 447.5 c 128,-1,65
 519 436 519 436 499 412.5 c 128,-1,66
 479 389 479 389 463 355 c 128,-1,67
 447 321 447 321 439 276 c 1,68,69
 530 289 530 289 580 327 c 128,-1,70
 630 365 630 365 630 413 c 0,71,72
 630 434 630 434 619 446.5 c 128,-1,73
 608 459 608 459 588 459 c 0,63,64
195 63 m 0,74,75
 226 63 226 63 252.5 74.5 c 128,-1,76
 279 86 279 86 299 103 c 1,77,78
 293 128 293 128 293 162 c 0,79,80
 293 177 293 177 294.5 192.5 c 128,-1,81
 296 208 296 208 298 224 c 1,82,83
 222 223 222 223 181.5 192.5 c 128,-1,84
 141 162 141 162 141 120 c 0,85,86
 141 97 141 97 153.5 80 c 128,-1,87
 166 63 166 63 195 63 c 0,74,75
EndSplineSet
EndChar

StartChar: ccedilla
Encoding: 231 231 169
Width: 468
Flags: W
LayerCount: 2
Fore
SplineSet
344 -110 m 0,0,1
 344 -143 344 -143 328.5 -167.5 c 128,-1,2
 313 -192 313 -192 288.5 -208 c 128,-1,3
 264 -224 264 -224 234 -231.5 c 128,-1,4
 204 -239 204 -239 175 -239 c 0,5,6
 139 -239 139 -239 106 -229 c 1,7,-1
 121 -181 l 1,8,9
 136 -184 136 -184 158 -184 c 0,10,11
 171 -184 171 -184 185.5 -181.5 c 128,-1,12
 200 -179 200 -179 212.5 -172 c 128,-1,13
 225 -165 225 -165 233 -153.5 c 128,-1,14
 241 -142 241 -142 241 -125 c 0,15,16
 241 -98 241 -98 224 -87 c 128,-1,17
 207 -76 207 -76 182 -76 c 1,18,-1
 218 -6 l 1,19,20
 213 -7 213 -7 207.5 -7 c 128,-1,21
 202 -7 202 -7 197 -7 c 0,22,23
 114 -7 114 -7 65.5 38 c 128,-1,24
 17 83 17 83 17 170 c 0,25,26
 17 229 17 229 38.5 289 c 128,-1,27
 60 349 60 349 100.5 397.5 c 128,-1,28
 141 446 141 446 200.5 476.5 c 128,-1,29
 260 507 260 507 335 507 c 0,30,31
 394 507 394 507 431.5 485.5 c 128,-1,32
 469 464 469 464 469 426 c 0,33,34
 469 385 469 385 436.5 362 c 128,-1,35
 404 339 404 339 358 339 c 1,36,37
 353 368 353 368 350 389 c 128,-1,38
 347 410 347 410 344 426 c 0,39,40
 341 446 341 446 333.5 451.5 c 128,-1,41
 326 457 326 457 315 457 c 0,42,43
 288 457 288 457 259.5 437.5 c 128,-1,44
 231 418 231 418 207.5 381.5 c 128,-1,45
 184 345 184 345 169 293.5 c 128,-1,46
 154 242 154 242 154 178 c 0,47,48
 154 157 154 157 157.5 135 c 128,-1,49
 161 113 161 113 171.5 95 c 128,-1,50
 182 77 182 77 201.5 65.5 c 128,-1,51
 221 54 221 54 254 54 c 0,52,53
 280 54 280 54 311.5 61 c 128,-1,54
 343 68 343 68 375 81 c 1,55,-1
 388 42 l 1,56,57
 363 30 363 30 339.5 19.5 c 128,-1,58
 316 9 316 9 287 2 c 1,59,-1
 266 -41 l 1,60,61
 299 -43 299 -43 321.5 -59.5 c 128,-1,62
 344 -76 344 -76 344 -110 c 0,0,1
EndSplineSet
EndChar

StartChar: egrave
Encoding: 232 232 170
Width: 481
Flags: W
LayerCount: 2
Fore
SplineSet
473 407 m 0,0,1
 473 364 473 364 449.5 329.5 c 128,-1,2
 426 295 426 295 383.5 268 c 128,-1,3
 341 241 341 241 281.5 222.5 c 128,-1,4
 222 204 222 204 150 192 c 1,5,6
 149 187 149 187 149.5 182 c 128,-1,7
 150 177 150 177 150 172 c 0,8,9
 150 120 150 120 173 87 c 128,-1,10
 196 54 196 54 245 54 c 0,11,12
 274 54 274 54 306 61 c 128,-1,13
 338 68 338 68 370 79 c 1,14,-1
 383 41 l 1,15,16
 352 24 352 24 305.5 8.5 c 128,-1,17
 259 -7 259 -7 192 -7 c 0,18,19
 109 -7 109 -7 62.5 36 c 128,-1,20
 16 79 16 79 16 162 c 0,21,22
 16 225 16 225 37 286.5 c 128,-1,23
 58 348 58 348 99 397 c 128,-1,24
 140 446 140 446 200 476.5 c 128,-1,25
 260 507 260 507 338 507 c 0,26,27
 373 507 373 507 398.5 499 c 128,-1,28
 424 491 424 491 440.5 477.5 c 128,-1,29
 457 464 457 464 465 445.5 c 128,-1,30
 473 427 473 427 473 407 c 0,0,1
307 457 m 0,31,32
 283 457 283 457 259 441 c 128,-1,33
 235 425 235 425 214 396.5 c 128,-1,34
 193 368 193 368 177.5 329.5 c 128,-1,35
 162 291 162 291 155 246 c 1,36,37
 191 260 191 260 225.5 277.5 c 128,-1,38
 260 295 260 295 286.5 316 c 128,-1,39
 313 337 313 337 329.5 362.5 c 128,-1,40
 346 388 346 388 346 417 c 0,41,42
 346 438 346 438 335 447.5 c 128,-1,43
 324 457 324 457 307 457 c 0,31,32
362 602 m 1,44,-1
 305 574 l 1,45,-1
 169 746 l 1,46,47
 198 771 198 771 228.5 782 c 128,-1,48
 259 793 259 793 283 796 c 1,49,-1
 362 602 l 1,44,-1
EndSplineSet
EndChar

StartChar: eacute
Encoding: 233 233 171
Width: 481
Flags: W
LayerCount: 2
Fore
SplineSet
473 407 m 0,0,1
 473 364 473 364 449.5 329.5 c 128,-1,2
 426 295 426 295 383.5 268 c 128,-1,3
 341 241 341 241 281.5 222.5 c 128,-1,4
 222 204 222 204 150 192 c 1,5,6
 149 187 149 187 149.5 182 c 128,-1,7
 150 177 150 177 150 172 c 0,8,9
 150 120 150 120 173 87 c 128,-1,10
 196 54 196 54 245 54 c 0,11,12
 274 54 274 54 306 61 c 128,-1,13
 338 68 338 68 370 79 c 1,14,-1
 383 41 l 1,15,16
 352 24 352 24 305.5 8.5 c 128,-1,17
 259 -7 259 -7 192 -7 c 0,18,19
 109 -7 109 -7 62.5 36 c 128,-1,20
 16 79 16 79 16 162 c 0,21,22
 16 225 16 225 37 286.5 c 128,-1,23
 58 348 58 348 99 397 c 128,-1,24
 140 446 140 446 200 476.5 c 128,-1,25
 260 507 260 507 338 507 c 0,26,27
 373 507 373 507 398.5 499 c 128,-1,28
 424 491 424 491 440.5 477.5 c 128,-1,29
 457 464 457 464 465 445.5 c 128,-1,30
 473 427 473 427 473 407 c 0,0,1
370 794 m 1,31,32
 395 791 395 791 425 780 c 128,-1,33
 455 769 455 769 484 744 c 1,34,-1
 343 567 l 1,35,-1
 286 595 l 1,36,-1
 370 794 l 1,31,32
307 457 m 0,37,38
 283 457 283 457 259 441 c 128,-1,39
 235 425 235 425 214 396.5 c 128,-1,40
 193 368 193 368 177.5 329.5 c 128,-1,41
 162 291 162 291 155 246 c 1,42,43
 191 260 191 260 225.5 277.5 c 128,-1,44
 260 295 260 295 286.5 316 c 128,-1,45
 313 337 313 337 329.5 362.5 c 128,-1,46
 346 388 346 388 346 417 c 0,47,48
 346 438 346 438 335 447.5 c 128,-1,49
 324 457 324 457 307 457 c 0,37,38
EndSplineSet
EndChar

StartChar: ecircumflex
Encoding: 234 234 172
Width: 481
Flags: W
LayerCount: 2
Fore
SplineSet
473 407 m 0,0,1
 473 364 473 364 449.5 329.5 c 128,-1,2
 426 295 426 295 383.5 268 c 128,-1,3
 341 241 341 241 281.5 222.5 c 128,-1,4
 222 204 222 204 150 192 c 1,5,6
 149 187 149 187 149.5 182 c 128,-1,7
 150 177 150 177 150 172 c 0,8,9
 150 120 150 120 173 87 c 128,-1,10
 196 54 196 54 245 54 c 0,11,12
 274 54 274 54 306 61 c 128,-1,13
 338 68 338 68 370 79 c 1,14,-1
 383 41 l 1,15,16
 352 24 352 24 305.5 8.5 c 128,-1,17
 259 -7 259 -7 192 -7 c 0,18,19
 109 -7 109 -7 62.5 36 c 128,-1,20
 16 79 16 79 16 162 c 0,21,22
 16 225 16 225 37 286.5 c 128,-1,23
 58 348 58 348 99 397 c 128,-1,24
 140 446 140 446 200 476.5 c 128,-1,25
 260 507 260 507 338 507 c 0,26,27
 373 507 373 507 398.5 499 c 128,-1,28
 424 491 424 491 440.5 477.5 c 128,-1,29
 457 464 457 464 465 445.5 c 128,-1,30
 473 427 473 427 473 407 c 0,0,1
448 594 m 1,31,-1
 375 570 l 1,32,-1
 307 709 l 1,33,-1
 172 570 l 1,34,-1
 103 594 l 1,35,-1
 264 788 l 1,36,-1
 377 788 l 1,37,-1
 448 594 l 1,31,-1
307 457 m 0,38,39
 283 457 283 457 259 441 c 128,-1,40
 235 425 235 425 214 396.5 c 128,-1,41
 193 368 193 368 177.5 329.5 c 128,-1,42
 162 291 162 291 155 246 c 1,43,44
 191 260 191 260 225.5 277.5 c 128,-1,45
 260 295 260 295 286.5 316 c 128,-1,46
 313 337 313 337 329.5 362.5 c 128,-1,47
 346 388 346 388 346 417 c 0,48,49
 346 438 346 438 335 447.5 c 128,-1,50
 324 457 324 457 307 457 c 0,38,39
EndSplineSet
EndChar

StartChar: edieresis
Encoding: 235 235 173
Width: 481
Flags: W
LayerCount: 2
Fore
SplineSet
473 407 m 0,0,1
 473 364 473 364 449.5 329.5 c 128,-1,2
 426 295 426 295 383.5 268 c 128,-1,3
 341 241 341 241 281.5 222.5 c 128,-1,4
 222 204 222 204 150 192 c 1,5,6
 149 187 149 187 149.5 182 c 128,-1,7
 150 177 150 177 150 172 c 0,8,9
 150 120 150 120 173 87 c 128,-1,10
 196 54 196 54 245 54 c 0,11,12
 274 54 274 54 306 61 c 128,-1,13
 338 68 338 68 370 79 c 1,14,-1
 383 41 l 1,15,16
 352 24 352 24 305.5 8.5 c 128,-1,17
 259 -7 259 -7 192 -7 c 0,18,19
 109 -7 109 -7 62.5 36 c 128,-1,20
 16 79 16 79 16 162 c 0,21,22
 16 225 16 225 37 286.5 c 128,-1,23
 58 348 58 348 99 397 c 128,-1,24
 140 446 140 446 200 476.5 c 128,-1,25
 260 507 260 507 338 507 c 0,26,27
 373 507 373 507 398.5 499 c 128,-1,28
 424 491 424 491 440.5 477.5 c 128,-1,29
 457 464 457 464 465 445.5 c 128,-1,30
 473 427 473 427 473 407 c 0,0,1
307 457 m 0,31,32
 283 457 283 457 259 441 c 128,-1,33
 235 425 235 425 214 396.5 c 128,-1,34
 193 368 193 368 177.5 329.5 c 128,-1,35
 162 291 162 291 155 246 c 1,36,37
 191 260 191 260 225.5 277.5 c 128,-1,38
 260 295 260 295 286.5 316 c 128,-1,39
 313 337 313 337 329.5 362.5 c 128,-1,40
 346 388 346 388 346 417 c 0,41,42
 346 438 346 438 335 447.5 c 128,-1,43
 324 457 324 457 307 457 c 0,31,32
336 681 m 256,44,45
 336 715 336 715 359.5 737.5 c 128,-1,46
 383 760 383 760 416 760 c 0,47,48
 450 760 450 760 472.5 737.5 c 128,-1,49
 495 715 495 715 495 681 c 256,50,51
 495 647 495 647 472.5 624.5 c 128,-1,52
 450 602 450 602 416 602 c 0,53,54
 383 602 383 602 359.5 624.5 c 128,-1,55
 336 647 336 647 336 681 c 256,44,45
117 681 m 256,56,57
 117 715 117 715 140 737.5 c 128,-1,58
 163 760 163 760 197 760 c 0,59,60
 230 760 230 760 252.5 737.5 c 128,-1,61
 275 715 275 715 275 681 c 256,62,63
 275 647 275 647 252.5 624.5 c 128,-1,64
 230 602 230 602 197 602 c 0,65,66
 163 602 163 602 140 624.5 c 128,-1,67
 117 647 117 647 117 681 c 256,56,57
EndSplineSet
EndChar

StartChar: igrave
Encoding: 236 236 174
Width: 332
Flags: W
LayerCount: 2
Fore
SplineSet
135 421 m 1,0,-1
 37 421 l 1,1,-1
 37 463 l 1,2,-1
 118 486 l 2,3,4
 158 497 158 497 181.5 502 c 128,-1,5
 205 507 205 507 222 507 c 0,6,7
 270 507 270 507 270 472 c 0,8,9
 270 461 270 461 267.5 449 c 128,-1,10
 265 437 265 437 260 419 c 2,11,-1
 175 78 l 1,12,-1
 273 78 l 1,13,-1
 273 37 l 1,14,15
 257 32 257 32 240 27 c 0,16,17
 226 22 226 22 208.5 17.5 c 128,-1,18
 191 13 191 13 175 8 c 0,19,20
 170 6 170 6 159 3.5 c 128,-1,21
 148 1 148 1 135 -1 c 128,-1,22
 122 -3 122 -3 109 -5 c 128,-1,23
 96 -7 96 -7 86 -7 c 0,24,25
 68 -7 68 -7 54 0 c 128,-1,26
 40 7 40 7 40 32 c 0,27,28
 40 42 40 42 42.5 53 c 128,-1,29
 45 64 45 64 49 80 c 2,30,-1
 135 421 l 1,0,-1
245 602 m 1,31,-1
 188 574 l 1,32,-1
 52 746 l 1,33,34
 81 771 81 771 111.5 782 c 128,-1,35
 142 793 142 793 166 796 c 1,36,-1
 245 602 l 1,31,-1
EndSplineSet
EndChar

StartChar: iacute
Encoding: 237 237 175
Width: 332
Flags: W
LayerCount: 2
Fore
SplineSet
135 421 m 1,0,-1
 37 421 l 1,1,-1
 37 463 l 1,2,-1
 118 486 l 2,3,4
 158 497 158 497 181.5 502 c 128,-1,5
 205 507 205 507 222 507 c 0,6,7
 270 507 270 507 270 472 c 0,8,9
 270 461 270 461 267.5 449 c 128,-1,10
 265 437 265 437 260 419 c 2,11,-1
 175 78 l 1,12,-1
 273 78 l 1,13,-1
 273 37 l 1,14,15
 257 32 257 32 240 27 c 0,16,17
 226 22 226 22 208.5 17.5 c 128,-1,18
 191 13 191 13 175 8 c 0,19,20
 170 6 170 6 159 3.5 c 128,-1,21
 148 1 148 1 135 -1 c 128,-1,22
 122 -3 122 -3 109 -5 c 128,-1,23
 96 -7 96 -7 86 -7 c 0,24,25
 68 -7 68 -7 54 0 c 128,-1,26
 40 7 40 7 40 32 c 0,27,28
 40 42 40 42 42.5 53 c 128,-1,29
 45 64 45 64 49 80 c 2,30,-1
 135 421 l 1,0,-1
244 794 m 1,31,32
 269 791 269 791 299 780 c 128,-1,33
 329 769 329 769 358 744 c 1,34,-1
 217 567 l 1,35,-1
 160 595 l 1,36,-1
 244 794 l 1,31,32
EndSplineSet
EndChar

StartChar: icircumflex
Encoding: 238 238 176
Width: 332
Flags: W
LayerCount: 2
Fore
SplineSet
135 421 m 1,0,-1
 37 421 l 1,1,-1
 37 463 l 1,2,-1
 118 486 l 2,3,4
 158 497 158 497 181.5 502 c 128,-1,5
 205 507 205 507 222 507 c 0,6,7
 270 507 270 507 270 472 c 0,8,9
 270 461 270 461 267.5 449 c 128,-1,10
 265 437 265 437 260 419 c 2,11,-1
 175 78 l 1,12,-1
 273 78 l 1,13,-1
 273 37 l 1,14,15
 257 32 257 32 240 27 c 0,16,17
 226 22 226 22 208.5 17.5 c 128,-1,18
 191 13 191 13 175 8 c 0,19,20
 170 6 170 6 159 3.5 c 128,-1,21
 148 1 148 1 135 -1 c 128,-1,22
 122 -3 122 -3 109 -5 c 128,-1,23
 96 -7 96 -7 86 -7 c 0,24,25
 68 -7 68 -7 54 0 c 128,-1,26
 40 7 40 7 40 32 c 0,27,28
 40 42 40 42 42.5 53 c 128,-1,29
 45 64 45 64 49 80 c 2,30,-1
 135 421 l 1,0,-1
362 594 m 1,31,-1
 289 570 l 1,32,-1
 221 709 l 1,33,-1
 86 570 l 1,34,-1
 17 594 l 1,35,-1
 178 788 l 1,36,-1
 291 788 l 1,37,-1
 362 594 l 1,31,-1
EndSplineSet
EndChar

StartChar: idieresis
Encoding: 239 239 177
Width: 332
Flags: W
LayerCount: 2
Fore
SplineSet
135 421 m 1,0,-1
 37 421 l 1,1,-1
 37 463 l 1,2,-1
 118 486 l 2,3,4
 158 497 158 497 181.5 502 c 128,-1,5
 205 507 205 507 222 507 c 0,6,7
 270 507 270 507 270 472 c 0,8,9
 270 461 270 461 267.5 449 c 128,-1,10
 265 437 265 437 260 419 c 2,11,-1
 175 78 l 1,12,-1
 273 78 l 1,13,-1
 273 37 l 1,14,15
 257 32 257 32 240 27 c 0,16,17
 226 22 226 22 208.5 17.5 c 128,-1,18
 191 13 191 13 175 8 c 0,19,20
 170 6 170 6 159 3.5 c 128,-1,21
 148 1 148 1 135 -1 c 128,-1,22
 122 -3 122 -3 109 -5 c 128,-1,23
 96 -7 96 -7 86 -7 c 0,24,25
 68 -7 68 -7 54 0 c 128,-1,26
 40 7 40 7 40 32 c 0,27,28
 40 42 40 42 42.5 53 c 128,-1,29
 45 64 45 64 49 80 c 2,30,-1
 135 421 l 1,0,-1
219 681 m 256,31,32
 219 715 219 715 242.5 737.5 c 128,-1,33
 266 760 266 760 299 760 c 0,34,35
 333 760 333 760 355.5 737.5 c 128,-1,36
 378 715 378 715 378 681 c 256,37,38
 378 647 378 647 355.5 624.5 c 128,-1,39
 333 602 333 602 299 602 c 0,40,41
 266 602 266 602 242.5 624.5 c 128,-1,42
 219 647 219 647 219 681 c 256,31,32
0 681 m 256,43,44
 0 715 0 715 23 737.5 c 128,-1,45
 46 760 46 760 80 760 c 0,46,47
 113 760 113 760 135.5 737.5 c 128,-1,48
 158 715 158 715 158 681 c 256,49,50
 158 647 158 647 135.5 624.5 c 128,-1,51
 113 602 113 602 80 602 c 0,52,53
 46 602 46 602 23 624.5 c 128,-1,54
 0 647 0 647 0 681 c 256,43,44
EndSplineSet
EndChar

StartChar: eth
Encoding: 240 240 178
Width: 587
Flags: W
LayerCount: 2
Fore
SplineSet
244 597 m 1,0,-1
 333 650 l 1,1,2
 303 676 303 676 265 687.5 c 128,-1,3
 227 699 227 699 189 699 c 1,4,-1
 204 758 l 1,5,6
 266 758 266 758 319 745 c 128,-1,7
 372 732 372 732 415 701 c 1,8,-1
 529 771 l 1,9,-1
 529 693 l 1,10,-1
 464 653 l 1,11,12
 500 608 500 608 517.5 551 c 128,-1,13
 535 494 535 494 535 407 c 0,14,15
 535 342 535 342 520 269.5 c 128,-1,16
 505 197 505 197 468.5 135.5 c 128,-1,17
 432 74 432 74 370 33.5 c 128,-1,18
 308 -7 308 -7 214 -7 c 0,19,20
 121 -7 121 -7 69.5 46 c 128,-1,21
 18 99 18 99 18 186 c 0,22,23
 18 249 18 249 45 303 c 128,-1,24
 72 357 72 357 118.5 396.5 c 128,-1,25
 165 436 165 436 228 459 c 128,-1,26
 291 482 291 482 364 482 c 0,27,28
 374 482 374 482 383 481.5 c 128,-1,29
 392 481 392 481 400 480 c 1,30,31
 398 512 398 512 393 540.5 c 128,-1,32
 388 569 388 569 373 598 c 1,33,-1
 244 519 l 1,34,-1
 244 597 l 1,0,-1
224 43 m 0,35,36
 266 43 266 43 298.5 78 c 128,-1,37
 331 113 331 113 352.5 167.5 c 128,-1,38
 374 222 374 222 385.5 290 c 128,-1,39
 397 358 397 358 399 424 c 1,40,41
 394 425 394 425 390.5 425 c 128,-1,42
 387 425 387 425 383 425 c 0,43,44
 320 425 320 425 276 399.5 c 128,-1,45
 232 374 232 374 205 335.5 c 128,-1,46
 178 297 178 297 165.5 251 c 128,-1,47
 153 205 153 205 153 163 c 0,48,49
 153 97 153 97 174 70 c 128,-1,50
 195 43 195 43 224 43 c 0,35,36
EndSplineSet
EndChar

StartChar: ntilde
Encoding: 241 241 179
Width: 606
Flags: W
LayerCount: 2
Fore
SplineSet
323 62 m 0,0,1
 346 151 346 151 362.5 208.5 c 128,-1,2
 379 266 379 266 389.5 301.5 c 128,-1,3
 400 337 400 337 404.5 357 c 128,-1,4
 409 377 409 377 409 391 c 0,5,6
 409 417 409 417 388 417 c 0,7,8
 361 417 361 417 316.5 382.5 c 128,-1,9
 272 348 272 348 224 285 c 1,10,-1
 153 0 l 1,11,-1
 25 -7 l 1,12,-1
 132 421 l 1,13,-1
 36 421 l 1,14,-1
 36 463 l 1,15,16
 59 469 59 469 81 475 c 0,17,18
 100 480 100 480 121 485 c 128,-1,19
 142 490 142 490 159 494 c 0,20,21
 180 499 180 499 200.5 503 c 128,-1,22
 221 507 221 507 234 507 c 0,23,24
 250 507 250 507 259.5 500.5 c 128,-1,25
 269 494 269 494 269 477 c 0,26,27
 269 473 269 473 268.5 463 c 128,-1,28
 268 453 268 453 264 437 c 2,29,-1
 251 392 l 1,30,31
 294 443 294 443 342 475 c 128,-1,32
 390 507 390 507 443 507 c 0,33,34
 491 507 491 507 512.5 480 c 128,-1,35
 534 453 534 453 534 411 c 0,36,37
 534 383 534 383 526.5 346 c 128,-1,38
 519 309 519 309 501 247 c 2,39,-1
 453 80 l 1,40,-1
 551 80 l 1,41,-1
 551 37 l 1,42,43
 528 30 528 30 505 25 c 0,44,45
 485 20 485 20 464 15 c 128,-1,46
 443 10 443 10 426 6 c 0,47,48
 405 1 405 1 384 -3 c 128,-1,49
 363 -7 363 -7 349 -7 c 0,50,51
 333 -7 333 -7 323.5 -0.5 c 128,-1,52
 314 6 314 6 314 22 c 0,53,54
 314 31 314 31 317 41.5 c 128,-1,55
 320 52 320 52 323 62 c 0,0,1
444 699 m 0,56,57
 468 699 468 699 490 711 c 128,-1,58
 512 723 512 723 541 743 c 1,59,-1
 570 706 l 1,60,61
 549 681 549 681 525 662 c 0,62,63
 505 645 505 645 477.5 632 c 128,-1,64
 450 619 450 619 421 619 c 0,65,66
 399 619 399 619 382 627.5 c 128,-1,67
 365 636 365 636 349.5 645.5 c 128,-1,68
 334 655 334 655 319.5 663.5 c 128,-1,69
 305 672 305 672 289 672 c 0,70,71
 269 672 269 672 250.5 661.5 c 128,-1,72
 232 651 232 651 202 629 c 1,73,-1
 172 665 l 1,74,75
 190 690 190 690 213 709 c 1,76,77
 232 726 232 726 257.5 739.5 c 128,-1,78
 283 753 283 753 312 753 c 0,79,80
 334 753 334 753 350.5 744.5 c 128,-1,81
 367 736 367 736 381.5 726 c 128,-1,82
 396 716 396 716 410.5 707.5 c 128,-1,83
 425 699 425 699 444 699 c 0,56,57
EndSplineSet
EndChar

StartChar: ograve
Encoding: 242 242 180
Width: 551
Flags: W
LayerCount: 2
Fore
SplineSet
209 43 m 0,0,1
 250 43 250 43 281 73 c 128,-1,2
 312 103 312 103 332.5 148 c 128,-1,3
 353 193 353 193 363.5 245 c 128,-1,4
 374 297 374 297 374 341 c 0,5,6
 374 398 374 398 360.5 427.5 c 128,-1,7
 347 457 347 457 318 457 c 0,8,9
 291 457 291 457 268 442.5 c 128,-1,10
 245 428 245 428 226.5 404 c 128,-1,11
 208 380 208 380 194.5 348.5 c 128,-1,12
 181 317 181 317 171.5 284 c 128,-1,13
 162 251 162 251 157.5 218 c 128,-1,14
 153 185 153 185 153 158 c 0,15,16
 153 107 153 107 166 75 c 128,-1,17
 179 43 179 43 209 43 c 0,0,1
197 -7 m 0,18,19
 105 -7 105 -7 61.5 39 c 128,-1,20
 18 85 18 85 18 176 c 0,21,22
 18 238 18 238 41 297.5 c 128,-1,23
 64 357 64 357 105.5 403.5 c 128,-1,24
 147 450 147 450 204 478.5 c 128,-1,25
 261 507 261 507 330 507 c 0,26,27
 415 507 415 507 463 457 c 128,-1,28
 511 407 511 407 511 323 c 0,29,30
 511 261 511 261 489 202 c 128,-1,31
 467 143 467 143 426.5 96.5 c 128,-1,32
 386 50 386 50 327.5 21.5 c 128,-1,33
 269 -7 269 -7 197 -7 c 0,18,19
370 602 m 1,34,-1
 313 574 l 1,35,-1
 177 746 l 1,36,37
 206 771 206 771 236.5 782 c 128,-1,38
 267 793 267 793 291 796 c 1,39,-1
 370 602 l 1,34,-1
EndSplineSet
EndChar

StartChar: oacute
Encoding: 243 243 181
Width: 551
Flags: W
LayerCount: 2
Fore
SplineSet
209 43 m 0,0,1
 250 43 250 43 281 73 c 128,-1,2
 312 103 312 103 332.5 148 c 128,-1,3
 353 193 353 193 363.5 245 c 128,-1,4
 374 297 374 297 374 341 c 0,5,6
 374 398 374 398 360.5 427.5 c 128,-1,7
 347 457 347 457 318 457 c 0,8,9
 291 457 291 457 268 442.5 c 128,-1,10
 245 428 245 428 226.5 404 c 128,-1,11
 208 380 208 380 194.5 348.5 c 128,-1,12
 181 317 181 317 171.5 284 c 128,-1,13
 162 251 162 251 157.5 218 c 128,-1,14
 153 185 153 185 153 158 c 0,15,16
 153 107 153 107 166 75 c 128,-1,17
 179 43 179 43 209 43 c 0,0,1
197 -7 m 0,18,19
 105 -7 105 -7 61.5 39 c 128,-1,20
 18 85 18 85 18 176 c 0,21,22
 18 238 18 238 41 297.5 c 128,-1,23
 64 357 64 357 105.5 403.5 c 128,-1,24
 147 450 147 450 204 478.5 c 128,-1,25
 261 507 261 507 330 507 c 0,26,27
 415 507 415 507 463 457 c 128,-1,28
 511 407 511 407 511 323 c 0,29,30
 511 261 511 261 489 202 c 128,-1,31
 467 143 467 143 426.5 96.5 c 128,-1,32
 386 50 386 50 327.5 21.5 c 128,-1,33
 269 -7 269 -7 197 -7 c 0,18,19
359 794 m 1,34,35
 384 791 384 791 414 780 c 128,-1,36
 444 769 444 769 473 744 c 1,37,-1
 332 567 l 1,38,-1
 275 595 l 1,39,-1
 359 794 l 1,34,35
EndSplineSet
EndChar

StartChar: ocircumflex
Encoding: 244 244 182
Width: 551
Flags: W
LayerCount: 2
Fore
SplineSet
209 43 m 0,0,1
 250 43 250 43 281 73 c 128,-1,2
 312 103 312 103 332.5 148 c 128,-1,3
 353 193 353 193 363.5 245 c 128,-1,4
 374 297 374 297 374 341 c 0,5,6
 374 398 374 398 360.5 427.5 c 128,-1,7
 347 457 347 457 318 457 c 0,8,9
 291 457 291 457 268 442.5 c 128,-1,10
 245 428 245 428 226.5 404 c 128,-1,11
 208 380 208 380 194.5 348.5 c 128,-1,12
 181 317 181 317 171.5 284 c 128,-1,13
 162 251 162 251 157.5 218 c 128,-1,14
 153 185 153 185 153 158 c 0,15,16
 153 107 153 107 166 75 c 128,-1,17
 179 43 179 43 209 43 c 0,0,1
197 -7 m 0,18,19
 105 -7 105 -7 61.5 39 c 128,-1,20
 18 85 18 85 18 176 c 0,21,22
 18 238 18 238 41 297.5 c 128,-1,23
 64 357 64 357 105.5 403.5 c 128,-1,24
 147 450 147 450 204 478.5 c 128,-1,25
 261 507 261 507 330 507 c 0,26,27
 415 507 415 507 463 457 c 128,-1,28
 511 407 511 407 511 323 c 0,29,30
 511 261 511 261 489 202 c 128,-1,31
 467 143 467 143 426.5 96.5 c 128,-1,32
 386 50 386 50 327.5 21.5 c 128,-1,33
 269 -7 269 -7 197 -7 c 0,18,19
506 594 m 1,34,-1
 433 570 l 1,35,-1
 365 709 l 1,36,-1
 230 570 l 1,37,-1
 161 594 l 1,38,-1
 322 788 l 1,39,-1
 435 788 l 1,40,-1
 506 594 l 1,34,-1
EndSplineSet
EndChar

StartChar: otilde
Encoding: 245 245 183
Width: 551
Flags: W
LayerCount: 2
Fore
SplineSet
209 43 m 0,0,1
 250 43 250 43 281 73 c 128,-1,2
 312 103 312 103 332.5 148 c 128,-1,3
 353 193 353 193 363.5 245 c 128,-1,4
 374 297 374 297 374 341 c 0,5,6
 374 398 374 398 360.5 427.5 c 128,-1,7
 347 457 347 457 318 457 c 0,8,9
 291 457 291 457 268 442.5 c 128,-1,10
 245 428 245 428 226.5 404 c 128,-1,11
 208 380 208 380 194.5 348.5 c 128,-1,12
 181 317 181 317 171.5 284 c 128,-1,13
 162 251 162 251 157.5 218 c 128,-1,14
 153 185 153 185 153 158 c 0,15,16
 153 107 153 107 166 75 c 128,-1,17
 179 43 179 43 209 43 c 0,0,1
197 -7 m 0,18,19
 105 -7 105 -7 61.5 39 c 128,-1,20
 18 85 18 85 18 176 c 0,21,22
 18 238 18 238 41 297.5 c 128,-1,23
 64 357 64 357 105.5 403.5 c 128,-1,24
 147 450 147 450 204 478.5 c 128,-1,25
 261 507 261 507 330 507 c 0,26,27
 415 507 415 507 463 457 c 128,-1,28
 511 407 511 407 511 323 c 0,29,30
 511 261 511 261 489 202 c 128,-1,31
 467 143 467 143 426.5 96.5 c 128,-1,32
 386 50 386 50 327.5 21.5 c 128,-1,33
 269 -7 269 -7 197 -7 c 0,18,19
394 699 m 0,34,35
 418 699 418 699 440 711 c 128,-1,36
 462 723 462 723 491 743 c 1,37,-1
 520 706 l 1,38,39
 499 681 499 681 475 662 c 0,40,41
 455 645 455 645 427.5 632 c 128,-1,42
 400 619 400 619 371 619 c 0,43,44
 349 619 349 619 332 627.5 c 128,-1,45
 315 636 315 636 299.5 645.5 c 128,-1,46
 284 655 284 655 269.5 663.5 c 128,-1,47
 255 672 255 672 239 672 c 0,48,49
 219 672 219 672 200.5 661.5 c 128,-1,50
 182 651 182 651 152 629 c 1,51,-1
 122 665 l 1,52,53
 140 690 140 690 163 709 c 1,54,55
 182 726 182 726 207.5 739.5 c 128,-1,56
 233 753 233 753 262 753 c 0,57,58
 284 753 284 753 300.5 744.5 c 128,-1,59
 317 736 317 736 331.5 726 c 128,-1,60
 346 716 346 716 360.5 707.5 c 128,-1,61
 375 699 375 699 394 699 c 0,34,35
EndSplineSet
EndChar

StartChar: odieresis
Encoding: 246 246 184
Width: 551
Flags: W
LayerCount: 2
Fore
SplineSet
209 43 m 0,0,1
 250 43 250 43 281 73 c 128,-1,2
 312 103 312 103 332.5 148 c 128,-1,3
 353 193 353 193 363.5 245 c 128,-1,4
 374 297 374 297 374 341 c 0,5,6
 374 398 374 398 360.5 427.5 c 128,-1,7
 347 457 347 457 318 457 c 0,8,9
 291 457 291 457 268 442.5 c 128,-1,10
 245 428 245 428 226.5 404 c 128,-1,11
 208 380 208 380 194.5 348.5 c 128,-1,12
 181 317 181 317 171.5 284 c 128,-1,13
 162 251 162 251 157.5 218 c 128,-1,14
 153 185 153 185 153 158 c 0,15,16
 153 107 153 107 166 75 c 128,-1,17
 179 43 179 43 209 43 c 0,0,1
197 -7 m 0,18,19
 105 -7 105 -7 61.5 39 c 128,-1,20
 18 85 18 85 18 176 c 0,21,22
 18 238 18 238 41 297.5 c 128,-1,23
 64 357 64 357 105.5 403.5 c 128,-1,24
 147 450 147 450 204 478.5 c 128,-1,25
 261 507 261 507 330 507 c 0,26,27
 415 507 415 507 463 457 c 128,-1,28
 511 407 511 407 511 323 c 0,29,30
 511 261 511 261 489 202 c 128,-1,31
 467 143 467 143 426.5 96.5 c 128,-1,32
 386 50 386 50 327.5 21.5 c 128,-1,33
 269 -7 269 -7 197 -7 c 0,18,19
145 681 m 256,34,35
 145 715 145 715 168 737.5 c 128,-1,36
 191 760 191 760 225 760 c 0,37,38
 258 760 258 760 280.5 737.5 c 128,-1,39
 303 715 303 715 303 681 c 256,40,41
 303 647 303 647 280.5 624.5 c 128,-1,42
 258 602 258 602 225 602 c 0,43,44
 191 602 191 602 168 624.5 c 128,-1,45
 145 647 145 647 145 681 c 256,34,35
364 681 m 256,46,47
 364 715 364 715 387.5 737.5 c 128,-1,48
 411 760 411 760 444 760 c 0,49,50
 478 760 478 760 500.5 737.5 c 128,-1,51
 523 715 523 715 523 681 c 256,52,53
 523 647 523 647 500.5 624.5 c 128,-1,54
 478 602 478 602 444 602 c 0,55,56
 411 602 411 602 387.5 624.5 c 128,-1,57
 364 647 364 647 364 681 c 256,46,47
EndSplineSet
EndChar

StartChar: divide
Encoding: 247 247 185
Width: 554
Flags: W
LayerCount: 2
Fore
SplineSet
207 167 m 0,0,1
 207 185 207 185 214 200.5 c 128,-1,2
 221 216 221 216 232.5 227.5 c 128,-1,3
 244 239 244 239 259.5 246 c 128,-1,4
 275 253 275 253 293 253 c 0,5,6
 328 253 328 253 352.5 227.5 c 128,-1,7
 377 202 377 202 377 167 c 0,8,9
 377 150 377 150 370.5 134.5 c 128,-1,10
 364 119 364 119 352.5 107.5 c 128,-1,11
 341 96 341 96 326 89 c 128,-1,12
 311 82 311 82 293 82 c 256,13,14
 275 82 275 82 259.5 89 c 128,-1,15
 244 96 244 96 232.5 107.5 c 128,-1,16
 221 119 221 119 214 134.5 c 128,-1,17
 207 150 207 150 207 167 c 0,0,1
207 552 m 0,18,19
 207 570 207 570 214 585.5 c 128,-1,20
 221 601 221 601 232.5 612.5 c 128,-1,21
 244 624 244 624 259.5 630.5 c 128,-1,22
 275 637 275 637 293 637 c 0,23,24
 328 637 328 637 353 612 c 128,-1,25
 378 587 378 587 378 552 c 0,26,27
 378 535 378 535 371.5 519.5 c 128,-1,28
 365 504 365 504 353.5 492 c 128,-1,29
 342 480 342 480 326.5 473 c 128,-1,30
 311 466 311 466 293 466 c 256,31,32
 275 466 275 466 259.5 473 c 128,-1,33
 244 480 244 480 232.5 492 c 128,-1,34
 221 504 221 504 214 519.5 c 128,-1,35
 207 535 207 535 207 552 c 0,18,19
68 398 m 1,36,-1
 518 398 l 1,37,-1
 518 316 l 1,38,-1
 68 316 l 1,39,-1
 68 398 l 1,36,-1
EndSplineSet
EndChar

StartChar: oslash
Encoding: 248 248 186
Width: 551
Flags: W
LayerCount: 2
Fore
SplineSet
197 -7 m 0,0,1
 176 -7 176 -7 158 -4 c 1,2,-1
 122 -71 l 1,3,-1
 45 -71 l 1,4,-1
 92 15 l 1,5,6
 18 56 18 56 18 176 c 0,7,8
 18 238 18 238 41 297.5 c 128,-1,9
 64 357 64 357 105.5 403.5 c 128,-1,10
 147 450 147 450 204 478.5 c 128,-1,11
 261 507 261 507 330 507 c 0,12,13
 338 507 338 507 345.5 506.5 c 128,-1,14
 353 506 353 506 361 505 c 1,15,-1
 396 569 l 1,16,-1
 472 569 l 1,17,-1
 425 484 l 1,18,19
 467 462 467 462 489 420.5 c 128,-1,20
 511 379 511 379 511 323 c 0,21,22
 511 261 511 261 489 202 c 128,-1,23
 467 143 467 143 426.5 96.5 c 128,-1,24
 386 50 386 50 327.5 21.5 c 128,-1,25
 269 -7 269 -7 197 -7 c 0,0,1
209 43 m 0,26,27
 250 43 250 43 281 73 c 128,-1,28
 312 103 312 103 332.5 148 c 128,-1,29
 353 193 353 193 363.5 245 c 128,-1,30
 374 297 374 297 374 341 c 0,31,32
 374 365 374 365 371 385 c 1,33,-1
 187 48 l 1,34,35
 197 43 197 43 209 43 c 0,26,27
153 158 m 0,36,37
 153 150 153 150 153 142.5 c 128,-1,38
 153 135 153 135 154 128 c 1,39,-1
 333 454 l 1,40,41
 327 457 327 457 318 457 c 0,42,43
 291 457 291 457 268 442.5 c 128,-1,44
 245 428 245 428 226.5 404 c 128,-1,45
 208 380 208 380 194.5 348.5 c 128,-1,46
 181 317 181 317 171.5 284 c 128,-1,47
 162 251 162 251 157.5 218 c 128,-1,48
 153 185 153 185 153 158 c 0,36,37
EndSplineSet
EndChar

StartChar: ugrave
Encoding: 249 249 187
Width: 607
Flags: W
LayerCount: 2
Fore
SplineSet
261 437 m 0,0,1
 238 348 238 348 221.5 290.5 c 128,-1,2
 205 233 205 233 194.5 197 c 128,-1,3
 184 161 184 161 179.5 141.5 c 128,-1,4
 175 122 175 122 175 107 c 0,5,6
 175 82 175 82 196 82 c 0,7,8
 223 82 223 82 267.5 116.5 c 128,-1,9
 312 151 312 151 359 213 c 1,10,-1
 431 500 l 1,11,-1
 559 507 l 1,12,-1
 452 78 l 1,13,-1
 549 78 l 1,14,-1
 549 37 l 1,15,16
 525 30 525 30 503 25 c 0,17,18
 483 20 483 20 462.5 15 c 128,-1,19
 442 10 442 10 425 6 c 0,20,21
 405 1 405 1 384 -3 c 128,-1,22
 363 -7 363 -7 350 -7 c 0,23,24
 334 -7 334 -7 324.5 -0.5 c 128,-1,25
 315 6 315 6 315 22 c 0,26,27
 315 26 315 26 315.5 36 c 128,-1,28
 316 46 316 46 321 62 c 2,29,-1
 333 107 l 1,30,31
 291 56 291 56 242.5 24.5 c 128,-1,32
 194 -7 194 -7 141 -7 c 0,33,34
 93 -7 93 -7 71.5 19.5 c 128,-1,35
 50 46 50 46 50 88 c 0,36,37
 50 116 50 116 58 153 c 128,-1,38
 66 190 66 190 83 252 c 2,39,-1
 131 420 l 1,40,-1
 33 420 l 1,41,-1
 33 463 l 1,42,43
 56 469 56 469 79 475 c 0,44,45
 99 480 99 480 120 485 c 128,-1,46
 141 490 141 490 158 494 c 0,47,48
 179 499 179 499 200 503 c 128,-1,49
 221 507 221 507 234 507 c 0,50,51
 250 507 250 507 260 500.5 c 128,-1,52
 270 494 270 494 270 477 c 0,53,54
 270 468 270 468 267 458 c 128,-1,55
 264 448 264 448 261 437 c 0,0,1
408 602 m 1,56,-1
 351 574 l 1,57,-1
 215 746 l 1,58,59
 244 771 244 771 274.5 782 c 128,-1,60
 305 793 305 793 329 796 c 1,61,-1
 408 602 l 1,56,-1
EndSplineSet
EndChar

StartChar: uacute
Encoding: 250 250 188
Width: 607
Flags: W
LayerCount: 2
Fore
SplineSet
261 437 m 0,0,1
 238 348 238 348 221.5 290.5 c 128,-1,2
 205 233 205 233 194.5 197 c 128,-1,3
 184 161 184 161 179.5 141.5 c 128,-1,4
 175 122 175 122 175 107 c 0,5,6
 175 82 175 82 196 82 c 0,7,8
 223 82 223 82 267.5 116.5 c 128,-1,9
 312 151 312 151 359 213 c 1,10,-1
 431 500 l 1,11,-1
 559 507 l 1,12,-1
 452 78 l 1,13,-1
 549 78 l 1,14,-1
 549 37 l 1,15,16
 525 30 525 30 503 25 c 0,17,18
 483 20 483 20 462.5 15 c 128,-1,19
 442 10 442 10 425 6 c 0,20,21
 405 1 405 1 384 -3 c 128,-1,22
 363 -7 363 -7 350 -7 c 0,23,24
 334 -7 334 -7 324.5 -0.5 c 128,-1,25
 315 6 315 6 315 22 c 0,26,27
 315 26 315 26 315.5 36 c 128,-1,28
 316 46 316 46 321 62 c 2,29,-1
 333 107 l 1,30,31
 291 56 291 56 242.5 24.5 c 128,-1,32
 194 -7 194 -7 141 -7 c 0,33,34
 93 -7 93 -7 71.5 19.5 c 128,-1,35
 50 46 50 46 50 88 c 0,36,37
 50 116 50 116 58 153 c 128,-1,38
 66 190 66 190 83 252 c 2,39,-1
 131 420 l 1,40,-1
 33 420 l 1,41,-1
 33 463 l 1,42,43
 56 469 56 469 79 475 c 0,44,45
 99 480 99 480 120 485 c 128,-1,46
 141 490 141 490 158 494 c 0,47,48
 179 499 179 499 200 503 c 128,-1,49
 221 507 221 507 234 507 c 0,50,51
 250 507 250 507 260 500.5 c 128,-1,52
 270 494 270 494 270 477 c 0,53,54
 270 468 270 468 267 458 c 128,-1,55
 264 448 264 448 261 437 c 0,0,1
396 794 m 1,56,57
 421 791 421 791 451 780 c 128,-1,58
 481 769 481 769 510 744 c 1,59,-1
 369 567 l 1,60,-1
 312 595 l 1,61,-1
 396 794 l 1,56,57
EndSplineSet
EndChar

